Harmattan-Bold.ufo
<glyph name="parenright" format="2">
  <advance width="645"/>
  <unicode hex="0029"/>
  <outline>
    <contour>
      <point x="244" y="-307" type="line"/>
      <point x="450" y="-93"/>
      <point x="559" y="163"/>
      <point x="559" y="468" type="curve" smooth="yes"/>
      <point x="559" y="796"/>
      <point x="428" y="1083"/>
      <point x="229" y="1230" type="curve"/>
      <point x="138" y="1091" type="line"/>
      <point x="296" y="945"/>
      <point x="363" y="703"/>
      <point x="363" y="476" type="curve" smooth="yes"/>
      <point x="363" y="251"/>
      <point x="299" y="8"/>
      <point x="131" y="-180" type="curve"/>
    </contour>
  </outline>
</glyph>
<glyph name="asterisk" format="2">
  <advance width="780"/>
  <unicode hex="002A"/>
  <outline>
    <contour>
      <point x="323" y="594" type="curve"/>
      <point x="474" y="594" type="line"/>
      <point x="457" y="679"/>
      <point x="451" y="740"/>
      <point x="444" y="813" type="curve"/>
      <point x="511" y="770"/>
      <point x="560" y="735"/>
      <point x="622" y="685" type="curve"/>
      <point x="702" y="816" type="line"/>
      <point x="620" y="845"/>
      <point x="557" y="866"/>
      <point x="488" y="897" type="curve"/>
      <point x="553" y="930"/>
      <point x="615" y="957"/>
      <point x="693" y="990" type="curve"/>
      <point x="620" y="1119" type="line"/>
      <point x="560" y="1069"/>
      <point x="509" y="1025"/>
      <point x="445" y="981" type="curve"/>
      <point x="449" y="1053"/>
      <point x="456" y="1114"/>
      <point x="468" y="1200" type="curve"/>
      <point x="318" y="1200" type="line"/>
      <point x="333" y="1122"/>
      <point x="345" y="1059"/>
      <point x="351" y="981" type="curve"/>
      <point x="287" y="1020"/>
      <point x="234" y="1056"/>
      <point x="171" y="1107" type="curve"/>
      <point x="94" y="979" type="line"/>
      <point x="173" y="953"/>
      <point x="248" y="925"/>
      <point x="309" y="897" type="curve"/>
      <point x="246" y="864"/>
      <point x="182" y="840"/>
      <point x="102" y="807" type="curve"/>
      <point x="177" y="672" type="line"/>
      <point x="237" y="726"/>
      <point x="286" y="769"/>
      <point x="349" y="815" type="curve"/>
      <point x="344" y="737"/>
      <point x="336" y="672"/>
    </contour>
  </outline>
</glyph>
<glyph name="period" format="2">
  <advance width="532"/>
  <unicode hex="002E"/>
  <outline>
    <contour>
      <point x="281" y="-18" type="curve" smooth="yes"/>
      <point x="357" y="-18"/>
      <point x="412" y="34"/>
      <point x="412" y="112" type="curve" smooth="yes"/>
      <point x="412" y="189"/>
      <point x="357" y="243"/>
      <point x="281" y="243" type="curve" smooth="yes"/>
      <point x="205" y="243"/>
      <point x="150" y="189"/>
      <point x="150" y="112" type="curve" smooth="yes"/>
      <point x="150" y="34"/>
      <point x="205" y="-18"/>
    </contour>
  </outline>
</glyph>
<glyph name="three" format="2">
  <advance width="930"/>
  <unicode hex="0033"/>
  <anchor x="468" y="-75" name="L"/>
  <anchor x="468" y="1147" name="U"/>
  <outline>
    <contour>
      <point x="416" y="-18" type="curve" smooth="yes"/>
      <point x="663" y="-18"/>
      <point x="847" y="127"/>
      <point x="847" y="303" type="curve" smooth="yes"/>
      <point x="847" y="504"/>
      <point x="676" y="567"/>
      <point x="570" y="585" type="curve"/>
      <point x="676" y="606"/>
      <point x="810" y="717"/>
      <point x="810" y="855" type="curve" smooth="yes"/>
      <point x="810" y="1015"/>
      <point x="658" y="1113"/>
      <point x="442" y="1113" type="curve" smooth="yes"/>
      <point x="317" y="1113"/>
      <point x="187" y="1062"/>
      <point x="127" y="993" type="curve"/>
      <point x="153" y="821" type="line"/>
      <point x="238" y="908"/>
      <point x="334" y="937"/>
      <point x="450" y="937" type="curve" smooth="yes"/>
      <point x="524" y="937"/>
      <point x="600" y="894"/>
      <point x="600" y="826" type="curve" smooth="yes"/>
      <point x="600" y="745"/>
      <point x="504" y="663"/>
      <point x="367" y="663" type="curve" smooth="yes"/>
      <point x="300" y="663" type="line"/>
      <point x="300" y="483" type="line"/>
      <point x="367" y="483" type="line" smooth="yes"/>
      <point x="537" y="483"/>
      <point x="633" y="411"/>
      <point x="633" y="318" type="curve" smooth="yes"/>
      <point x="633" y="218"/>
      <point x="538" y="157"/>
      <point x="431" y="157" type="curve" smooth="yes"/>
      <point x="311" y="157"/>
      <point x="190" y="211"/>
      <point x="108" y="303" type="curve"/>
      <point x="82" y="97" type="line"/>
      <point x="161" y="24"/>
      <point x="283" y="-18"/>
    </contour>
  </outline>
</glyph>
<glyph name="five" format="2">
  <advance width="930"/>
  <unicode hex="0035"/>
  <anchor x="468" y="-75" name="L"/>
  <anchor x="468" y="1147" name="U"/>
  <outline>
    <contour>
      <point x="405" y="-18" type="curve" smooth="yes"/>
      <point x="639" y="-18"/>
      <point x="832" y="122"/>
      <point x="832" y="351" type="curve" smooth="yes"/>
      <point x="832" y="554"/>
      <point x="676" y="687"/>
      <point x="468" y="687" type="curve" smooth="yes"/>
      <point x="422" y="687"/>
      <point x="366" y="673"/>
      <point x="341" y="661" type="curve"/>
      <point x="341" y="881" type="line"/>
      <point x="588" y="881" type="line" smooth="yes"/>
      <point x="651" y="881"/>
      <point x="731" y="878"/>
      <point x="787" y="866" type="curve"/>
      <point x="787" y="1065" type="line"/>
      <point x="146" y="1065" type="line"/>
      <point x="146" y="473" type="line"/>
      <point x="239" y="509"/>
      <point x="318" y="522"/>
      <point x="397" y="522" type="curve" smooth="yes"/>
      <point x="517" y="522"/>
      <point x="622" y="464"/>
      <point x="622" y="347" type="curve" smooth="yes"/>
      <point x="622" y="238"/>
      <point x="532" y="161"/>
      <point x="412" y="161" type="curve" smooth="yes"/>
      <point x="307" y="161"/>
      <point x="220" y="189"/>
      <point x="120" y="270" type="curve"/>
      <point x="90" y="60" type="line"/>
      <point x="183" y="1"/>
      <point x="288" y="-18"/>
    </contour>
  </outline>
</glyph>
<glyph name="six" format="2">
  <advance width="930"/>
  <unicode hex="0036"/>
  <anchor x="468" y="-75" name="L"/>
  <anchor x="468" y="1147" name="U"/>
  <outline>
    <contour>
      <point x="496" y="-18" type="curve" smooth="yes"/>
      <point x="723" y="-18"/>
      <point x="873" y="134"/>
      <point x="873" y="332" type="curve" smooth="yes"/>
      <point x="873" y="513"/>
      <point x="729" y="660"/>
      <point x="513" y="660" type="curve" smooth="yes"/>
      <point x="370" y="660"/>
      <point x="261" y="577"/>
      <point x="176" y="458" type="curve"/>
      <point x="225" y="372" type="line"/>
      <point x="286" y="452"/>
      <point x="382" y="499"/>
      <point x="498" y="499" type="curve" smooth="yes"/>
      <point x="618" y="499"/>
      <point x="682" y="417"/>
      <point x="682" y="321" type="curve" smooth="yes"/>
      <point x="682" y="246"/>
      <point x="609" y="157"/>
      <point x="499" y="157" type="curve" smooth="yes"/>
      <point x="363" y="157"/>
      <point x="273" y="289"/>
      <point x="273" y="463" type="curve" smooth="yes"/>
      <point x="273" y="816"/>
      <point x="403" y="904"/>
      <point x="551" y="904" type="curve" smooth="yes"/>
      <point x="623" y="904"/>
      <point x="699" y="886"/>
      <point x="764" y="822" type="curve"/>
      <point x="812" y="1013" type="line"/>
      <point x="734" y="1065"/>
      <point x="662" y="1080"/>
      <point x="558" y="1080" type="curve" smooth="yes"/>
      <point x="202" y="1080"/>
      <point x="75" y="768"/>
      <point x="75" y="490" type="curve" smooth="yes"/>
      <point x="75" y="167"/>
      <point x="230" y="-18"/>
    </contour>
  </outline>
</glyph>
<glyph name="nine" format="2">
  <advance width="930"/>
  <unicode hex="0039"/>
  <anchor x="468" y="-75" name="L"/>
  <anchor x="468" y="1147" name="U"/>
  <outline>
    <contour>
      <point x="372" y="-18" type="curve" smooth="yes"/>
      <point x="729" y="-18"/>
      <point x="855" y="308"/>
      <point x="855" y="567" type="curve" smooth="yes"/>
      <point x="855" y="829"/>
      <point x="736" y="1080"/>
      <point x="445" y="1080" type="curve" smooth="yes"/>
      <point x="236" y="1080"/>
      <point x="56" y="942"/>
      <point x="56" y="718" type="curve" smooth="yes"/>
      <point x="56" y="540"/>
      <point x="207" y="420"/>
      <point x="416" y="420" type="curve" smooth="yes"/>
      <point x="559" y="420"/>
      <point x="688" y="518"/>
      <point x="761" y="641" type="curve"/>
      <point x="708" y="733" type="line"/>
      <point x="652" y="647"/>
      <point x="550" y="582"/>
      <point x="434" y="582" type="curve" smooth="yes"/>
      <point x="322" y="582"/>
      <point x="248" y="637"/>
      <point x="248" y="744" type="curve" smooth="yes"/>
      <point x="248" y="831"/>
      <point x="322" y="904"/>
      <point x="433" y="904" type="curve" smooth="yes"/>
      <point x="583" y="904"/>
      <point x="656" y="793"/>
      <point x="656" y="591" type="curve" smooth="yes"/>
      <point x="656" y="244"/>
      <point x="528" y="157"/>
      <point x="380" y="157" type="curve" smooth="yes"/>
      <point x="308" y="157"/>
      <point x="224" y="175"/>
      <point x="159" y="240" type="curve"/>
      <point x="119" y="48" type="line"/>
      <point x="189" y="3"/>
      <point x="276" y="-18"/>
    </contour>
  </outline>
</glyph>
<glyph name="colon" format="2">
  <advance width="532"/>
  <unicode hex="003A"/>
  <outline>
    <contour>
      <point x="281" y="431" type="curve" smooth="yes"/>
      <point x="357" y="431"/>
      <point x="412" y="484"/>
      <point x="412" y="562" type="curve" smooth="yes"/>
      <point x="412" y="639"/>
      <point x="357" y="693"/>
      <point x="281" y="693" type="curve" smooth="yes"/>
      <point x="205" y="693"/>
      <point x="150" y="639"/>
      <point x="150" y="562" type="curve" smooth="yes"/>
      <point x="150" y="484"/>
      <point x="205" y="431"/>
    </contour>
    <contour>
      <point x="281" y="-18" type="curve" smooth="yes"/>
      <point x="357" y="-18"/>
      <point x="412" y="34"/>
      <point x="412" y="112" type="curve" smooth="yes"/>
      <point x="412" y="189"/>
      <point x="357" y="243"/>
      <point x="281" y="243" type="curve" smooth="yes"/>
      <point x="205" y="243"/>
      <point x="150" y="189"/>
      <point x="150" y="112" type="curve" smooth="yes"/>
      <point x="150" y="34"/>
      <point x="205" y="-18"/>
    </contour>
  </outline>
</glyph>
<glyph name="question" format="2">
  <advance width="817"/>
  <unicode hex="003F"/>
  <outline>
    <contour>
      <point x="281" y="375" type="curve"/>
      <point x="480" y="375" type="line"/>
      <point x="480" y="503"/>
      <point x="501" y="603"/>
      <point x="575" y="717" type="curve" smooth="yes"/>
      <point x="627" y="797"/>
      <point x="675" y="837"/>
      <point x="675" y="915" type="curve" smooth="yes"/>
      <point x="675" y="1051"/>
      <point x="567" y="1155"/>
      <point x="375" y="1155" type="curve" smooth="yes"/>
      <point x="266" y="1155"/>
      <point x="154" y="1102"/>
      <point x="105" y="1055" type="curve"/>
      <point x="138" y="876" type="line"/>
      <point x="195" y="935"/>
      <point x="279" y="971"/>
      <point x="354" y="971" type="curve" smooth="yes"/>
      <point x="426" y="971"/>
      <point x="461" y="936"/>
      <point x="461" y="892" type="curve" smooth="yes"/>
      <point x="461" y="854"/>
      <point x="423" y="822"/>
      <point x="371" y="735" type="curve" smooth="yes"/>
      <point x="325" y="659"/>
      <point x="281" y="532"/>
    </contour>
    <contour>
      <point x="382" y="-18" type="curve" smooth="yes"/>
      <point x="459" y="-18"/>
      <point x="513" y="34"/>
      <point x="513" y="112" type="curve" smooth="yes"/>
      <point x="513" y="189"/>
      <point x="459" y="243"/>
      <point x="382" y="243" type="curve" smooth="yes"/>
      <point x="306" y="243"/>
      <point x="251" y="189"/>
      <point x="251" y="112" type="curve" smooth="yes"/>
      <point x="251" y="34"/>
      <point x="306" y="-18"/>
    </contour>
  </outline>
</glyph>
<glyph name="A" format="2">
  <advance width="1113"/>
  <unicode hex="0041"/>
  <anchor x="956" y="0" name="H"/>
  <anchor x="549" y="-75" name="L"/>
  <anchor x="1121" y="0" name="O"/>
  <anchor x="549" y="1147" name="U"/>
  <outline>
    <contour>
      <point x="39" y="0" type="curve"/>
      <point x="262" y="0" type="line"/>
      <point x="345" y="266" type="line"/>
      <point x="753" y="266" type="line"/>
      <point x="836" y="0" type="line"/>
      <point x="1056" y="0" type="line"/>
      <point x="1029" y="60"/>
      <point x="1005" y="126"/>
      <point x="958" y="266" type="curve" smooth="yes"/>
      <point x="681" y="1095" type="line"/>
      <point x="414" y="1095" type="line"/>
      <point x="136" y="266" type="line" smooth="yes"/>
      <point x="89" y="124"/>
      <point x="66" y="60"/>
    </contour>
    <contour>
      <point x="394" y="427" type="line"/>
      <point x="547" y="921" type="line"/>
      <point x="702" y="427" type="line"/>
    </contour>
  </outline>
</glyph>
<glyph name="F" format="2">
  <advance width="900"/>
  <unicode hex="0046"/>
  <anchor x="472" y="-75" name="L"/>
  <anchor x="472" y="1147" name="U"/>
  <outline>
    <contour>
      <point x="112" y="0" type="curve"/>
      <point x="348" y="0" type="line"/>
      <point x="337" y="54"/>
      <point x="337" y="166"/>
      <point x="337" y="306" type="curve" smooth="yes"/>
      <point x="337" y="476" type="line"/>
      <point x="753" y="476" type="line"/>
      <point x="753" y="645" type="line"/>
      <point x="337" y="645" type="line"/>
      <point x="337" y="922" type="line"/>
      <point x="817" y="922" type="line"/>
      <point x="817" y="1095" type="line"/>
      <point x="112" y="1095" type="line"/>
      <point x="123" y="1035"/>
      <point x="123" y="912"/>
      <point x="123" y="765" type="curve" smooth="yes"/>
      <point x="123" y="326" type="line" smooth="yes"/>
      <point x="123" y="178"/>
      <point x="123" y="60"/>
    </contour>
  </outline>
</glyph>
<glyph name="H" format="2">
  <advance width="1136"/>
  <unicode hex="0048"/>
  <anchor x="228" y="0" name="H"/>
  <anchor x="558" y="-75" name="L"/>
  <anchor x="558" y="1147" name="U"/>
  <outline>
    <contour>
      <point x="112" y="0" type="curve"/>
      <point x="337" y="0" type="line"/>
      <point x="337" y="476" type="line"/>
      <point x="780" y="476" type="line"/>
      <point x="780" y="0" type="line"/>
      <point x="1005" y="0" type="line"/>
      <point x="993" y="60"/>
      <point x="993" y="174"/>
      <point x="993" y="322" type="curve" smooth="yes"/>
      <point x="993" y="772" type="line" smooth="yes"/>
      <point x="993" y="920"/>
      <point x="993" y="1035"/>
      <point x="1005" y="1095" type="curve"/>
      <point x="780" y="1095" type="line"/>
      <point x="780" y="645" type="line"/>
      <point x="337" y="645" type="line"/>
      <point x="337" y="1095" type="line"/>
      <point x="112" y="1095" type="line"/>
      <point x="123" y="1035"/>
      <point x="123" y="920"/>
      <point x="123" y="772" type="curve" smooth="yes"/>
      <point x="123" y="322" type="line" smooth="yes"/>
      <point x="123" y="174"/>
      <point x="123" y="60"/>
    </contour>
  </outline>
</glyph>
<glyph name="K" format="2">
  <advance width="1072"/>
  <unicode hex="004B"/>
  <anchor x="240" y="0" name="H"/>
  <anchor x="555" y="-75" name="L"/>
  <anchor x="543" y="1147" name="U"/>
  <outline>
    <contour>
      <point x="742" y="0" type="line"/>
      <point x="1020" y="0" type="line"/>
      <point x="460" y="621" type="line"/>
      <point x="291" y="548" type="line"/>
    </contour>
    <contour>
      <point x="112" y="0" type="curve"/>
      <point x="337" y="0" type="line"/>
      <point x="337" y="1095" type="line"/>
      <point x="112" y="1095" type="line"/>
      <point x="123" y="1035"/>
      <point x="123" y="916"/>
      <point x="123" y="768" type="curve" smooth="yes"/>
      <point x="123" y="326" type="line" smooth="yes"/>
      <point x="123" y="178"/>
      <point x="123" y="60"/>
    </contour>
    <contour>
      <point x="439" y="513" type="line"/>
      <point x="960" y="1095" type="line"/>
      <point x="708" y="1095" type="line"/>
      <point x="278" y="549" type="line"/>
      <point x="365" y="533" type="line"/>
    </contour>
  </outline>
</glyph>
<glyph name="R" format="2">
  <advance width="1035"/>
  <unicode hex="0052"/>
  <anchor x="517" y="0" name="H"/>
  <anchor x="517" y="-75" name="L"/>
  <anchor x="495" y="1147" name="U"/>
  <outline>
    <contour>
      <point x="112" y="0" type="curve"/>
      <point x="348" y="0" type="line"/>
      <point x="338" y="58"/>
      <point x="337" y="178"/>
      <point x="337" y="326" type="curve" smooth="yes"/>
      <point x="337" y="438" type="line"/>
      <point x="468" y="438" type="line" smooth="yes"/>
      <point x="682" y="438"/>
      <point x="881" y="542"/>
      <point x="881" y="780" type="curve" smooth="yes"/>
      <point x="881" y="996"/>
      <point x="720" y="1102"/>
      <point x="487" y="1102" type="curve" smooth="yes"/>
      <point x="312" y="1102"/>
      <point x="112" y="1095"/>
      <point x="112" y="1095" type="curve"/>
      <point x="123" y="1035"/>
      <point x="123" y="897"/>
      <point x="123" y="750" type="curve" smooth="yes"/>
      <point x="123" y="326" type="line" smooth="yes"/>
      <point x="123" y="178"/>
      <point x="123" y="60"/>
    </contour>
    <contour>
      <point x="731" y="0" type="line"/>
      <point x="997" y="0" type="line"/>
      <point x="947" y="54"/>
      <point x="620" y="515"/>
      <point x="620" y="515" type="curve"/>
      <point x="417" y="476" type="line"/>
    </contour>
    <contour>
      <point x="337" y="600" type="line"/>
      <point x="337" y="930" type="line"/>
      <point x="377" y="932"/>
      <point x="402" y="933"/>
      <point x="461" y="933" type="curve" smooth="yes"/>
      <point x="594" y="933"/>
      <point x="667" y="889"/>
      <point x="667" y="776" type="curve" smooth="yes"/>
      <point x="667" y="644"/>
      <point x="585" y="600"/>
      <point x="453" y="600" type="curve" smooth="yes"/>
    </contour>
  </outline>
</glyph>
<glyph name="T" format="2">
  <advance width="948"/>
  <unicode hex="0054"/>
  <anchor x="466" y="0" name="H"/>
  <anchor x="466" y="-75" name="L"/>
  <anchor x="466" y="1147" name="U"/>
  <outline>
    <contour>
      <point x="343" y="0" type="curve"/>
      <point x="587" y="0" type="line"/>
      <point x="574" y="57"/>
      <point x="572" y="169"/>
      <point x="572" y="309" type="curve" smooth="yes"/>
      <point x="572" y="922" type="line"/>
      <point x="735" y="922" type="line" smooth="yes"/>
      <point x="795" y="922"/>
      <point x="853" y="920"/>
      <point x="907" y="907" type="curve"/>
      <point x="907" y="1095" type="line"/>
      <point x="26" y="1095" type="line"/>
      <point x="26" y="907" type="line"/>
      <point x="80" y="920"/>
      <point x="138" y="922"/>
      <point x="198" y="922" type="curve" smooth="yes"/>
      <point x="358" y="922" type="line"/>
      <point x="358" y="309" type="line" smooth="yes"/>
      <point x="358" y="169"/>
      <point x="356" y="57"/>
    </contour>
  </outline>
</glyph>
<glyph name="W" format="2">
  <advance width="1601"/>
  <unicode hex="0057"/>
  <anchor x="789" y="-75" name="L"/>
  <anchor x="789" y="1147" name="U"/>
  <outline>
    <contour>
      <point x="337" y="0" type="line"/>
      <point x="465" y="0" type="line"/>
      <point x="480" y="97" type="line"/>
      <point x="255" y="1095" type="line"/>
      <point x="22" y="1095" type="line"/>
      <point x="45" y="1035"/>
      <point x="69" y="964"/>
      <point x="108" y="821" type="curve" smooth="yes"/>
    </contour>
    <contour>
      <point x="450" y="0" type="line"/>
      <point x="573" y="0" type="line"/>
      <point x="828" y="978" type="line"/>
      <point x="885" y="1095" type="line"/>
      <point x="690" y="1095" type="line"/>
      <point x="435" y="97" type="line"/>
    </contour>
    <contour>
      <point x="1005" y="0" type="line"/>
      <point x="1132" y="0" type="line"/>
      <point x="1147" y="97" type="line"/>
      <point x="885" y="1095" type="line"/>
      <point x="690" y="1095" type="line"/>
      <point x="746" y="978" type="line"/>
    </contour>
    <contour>
      <point x="1117" y="0" type="line"/>
      <point x="1241" y="0" type="line"/>
      <point x="1473" y="821" type="line" smooth="yes"/>
      <point x="1515" y="966"/>
      <point x="1536" y="1033"/>
      <point x="1560" y="1095" type="curve"/>
      <point x="1327" y="1095" type="line"/>
      <point x="1102" y="97" type="line"/>
    </contour>
  </outline>
</glyph>
<glyph name="backslash" format="2">
  <advance width="810"/>
  <unicode hex="005C"/>
  <outline>
    <contour>
      <point x="630" y="-183" type="line"/>
      <point x="802" y="-183" type="line"/>
      <point x="180" y="1200" type="line"/>
      <point x="7" y="1200" type="line"/>
    </contour>
  </outline>
</glyph>
<glyph name="grave" format="2">
  <advance width="480"/>
  <unicode hex="0060"/>
  <anchor x="375" y="1226" name="U"/>
  <outline>
    <contour>
      <point x="300" y="900" type="line"/>
      <point x="480" y="900" type="line"/>
      <point x="262" y="1200" type="line"/>
      <point x="0" y="1200" type="line"/>
    </contour>
  </outline>
</glyph>
<glyph name="d" format="2">
  <advance width="948"/>
  <unicode hex="0064"/>
  <anchor x="446" y="0" name="H"/>
  <anchor x="446" y="-75" name="L"/>
  <anchor x="963" y="750" name="R"/>
  <anchor x="457" y="1226" name="U"/>
  <outline>
    <contour>
      <point x="386" y="-18" type="curve" smooth="yes"/>
      <point x="490" y="-18"/>
      <point x="577" y="35"/>
      <point x="645" y="131" type="curve"/>
      <point x="657" y="78"/>
      <point x="675" y="24"/>
      <point x="686" y="0" type="curve"/>
      <point x="892" y="0" type="line"/>
      <point x="860" y="84"/>
      <point x="836" y="208"/>
      <point x="836" y="397" type="curve" smooth="yes"/>
      <point x="836" y="1200" type="line"/>
      <point x="607" y="1200" type="line"/>
      <point x="621" y="1137"/>
      <point x="626" y="1046"/>
      <point x="626" y="926" type="curve" smooth="yes"/>
      <point x="626" y="716" type="line"/>
      <point x="572" y="749"/>
      <point x="501" y="780"/>
      <point x="442" y="780" type="curve" smooth="yes"/>
      <point x="239" y="780"/>
      <point x="75" y="610"/>
      <point x="75" y="345" type="curve" smooth="yes"/>
      <point x="75" y="125"/>
      <point x="201" y="-18"/>
    </contour>
    <contour>
      <point x="427" y="150" type="curve" smooth="yes"/>
      <point x="332" y="150"/>
      <point x="285" y="225"/>
      <point x="285" y="367" type="curve" smooth="yes"/>
      <point x="285" y="513"/>
      <point x="363" y="600"/>
      <point x="442" y="600" type="curve" smooth="yes"/>
      <point x="512" y="600"/>
      <point x="557" y="587"/>
      <point x="626" y="553" type="curve"/>
      <point x="626" y="300" type="line"/>
      <point x="590" y="225"/>
      <point x="507" y="150"/>
    </contour>
  </outline>
</glyph>
<glyph name="f" format="2">
  <advance width="600"/>
  <unicode hex="0066"/>
  <anchor x="285" y="0" name="H"/>
  <anchor x="300" y="-75" name="L"/>
  <anchor x="375" y="1226" name="U"/>
  <outline>
    <contour>
      <point x="172" y="0" type="line"/>
      <point x="405" y="0" type="line"/>
      <point x="388" y="78"/>
      <point x="382" y="225"/>
      <point x="382" y="370" type="curve" smooth="yes"/>
      <point x="382" y="603" type="line"/>
      <point x="573" y="603" type="line"/>
      <point x="573" y="753" type="line"/>
      <point x="382" y="753" type="line"/>
      <point x="382" y="869" type="line" smooth="yes"/>
      <point x="382" y="991"/>
      <point x="414" y="1040"/>
      <point x="486" y="1040" type="curve" smooth="yes"/>
      <point x="522" y="1040"/>
      <point x="573" y="1021"/>
      <point x="606" y="991" type="curve"/>
      <point x="648" y="1162" type="line"/>
      <point x="604" y="1191"/>
      <point x="524" y="1215"/>
      <point x="468" y="1215" type="curve" smooth="yes"/>
      <point x="283" y="1215"/>
      <point x="172" y="1102"/>
      <point x="172" y="877" type="curve" smooth="yes"/>
      <point x="172" y="753" type="line"/>
      <point x="22" y="753" type="line"/>
      <point x="22" y="603" type="line"/>
      <point x="172" y="603" type="line"/>
    </contour>
  </outline>
</glyph>
<glyph name="g" format="2">
  <advance width="900"/>
  <unicode hex="0067"/>
  <anchor x="438" y="-348" name="H"/>
  <anchor x="438" y="-401" name="L"/>
  <anchor x="890" y="750" name="R"/>
  <anchor x="423" y="825" name="U"/>
  <outline>
    <contour>
      <point x="440" y="-378" type="curve" smooth="yes"/>
      <point x="632" y="-378"/>
      <point x="862" y="-281"/>
      <point x="862" y="-120" type="curve" smooth="yes"/>
      <point x="862" y="9"/>
      <point x="787" y="97"/>
      <point x="564" y="123" type="curve" smooth="yes"/>
      <point x="372" y="146"/>
      <point x="324" y="162"/>
      <point x="324" y="191" type="curve" smooth="yes"/>
      <point x="324" y="213"/>
      <point x="354" y="241"/>
      <point x="441" y="262" type="curve"/>
      <point x="264" y="296" type="line"/>
      <point x="192" y="267"/>
      <point x="151" y="206"/>
      <point x="151" y="161" type="curve" smooth="yes"/>
      <point x="151" y="84"/>
      <point x="210" y="6"/>
      <point x="410" y="-17" type="curve" smooth="yes"/>
      <point x="597" y="-39"/>
      <point x="652" y="-74"/>
      <point x="652" y="-127" type="curve" smooth="yes"/>
      <point x="652" y="-171"/>
      <point x="561" y="-226"/>
      <point x="451" y="-226" type="curve" smooth="yes"/>
      <point x="313" y="-226"/>
      <point x="247" y="-176"/>
      <point x="247" y="-135" type="curve" smooth="yes"/>
      <point x="247" y="-90"/>
      <point x="267" y="-42"/>
      <point x="421" y="15" type="curve"/>
      <point x="415" y="36"/>
      <point x="241" y="56"/>
      <point x="241" y="56" type="curve"/>
      <point x="103" y="1"/>
      <point x="37" y="-66"/>
      <point x="37" y="-150" type="curve" smooth="yes"/>
      <point x="37" y="-306"/>
      <point x="255" y="-378"/>
    </contour>
    <contour>
      <point x="425" y="228" type="curve" smooth="yes"/>
      <point x="615" y="228"/>
      <point x="759" y="348"/>
      <point x="759" y="510" type="curve" smooth="yes"/>
      <point x="759" y="663"/>
      <point x="615" y="780"/>
      <point x="425" y="780" type="curve" smooth="yes"/>
      <point x="237" y="780"/>
      <point x="91" y="655"/>
      <point x="91" y="502" type="curve" smooth="yes"/>
      <point x="91" y="341"/>
      <point x="237" y="228"/>
    </contour>
    <contour>
      <point x="425" y="375" type="curve" smooth="yes"/>
      <point x="342" y="375"/>
      <point x="282" y="433"/>
      <point x="282" y="510" type="curve" smooth="yes"/>
      <point x="282" y="577"/>
      <point x="342" y="635"/>
      <point x="425" y="635" type="curve" smooth="yes"/>
      <point x="508" y="635"/>
      <point x="567" y="577"/>
      <point x="567" y="510" type="curve" smooth="yes"/>
      <point x="567" y="433"/>
      <point x="508" y="375"/>
    </contour>
    <contour>
      <point x="635" y="577" type="line"/>
      <point x="704" y="606"/>
      <point x="764" y="617"/>
      <point x="819" y="618" type="curve"/>
      <point x="826" y="780" type="line"/>
      <point x="752" y="774"/>
      <point x="653" y="747"/>
      <point x="586" y="705" type="curve"/>
    </contour>
  </outline>
</glyph>
<glyph name="h" format="2">
  <advance width="926"/>
  <unicode hex="0068"/>
  <anchor x="210" y="0" name="H"/>
  <anchor x="465" y="-75" name="L"/>
  <anchor x="465" y="1226" name="U"/>
  <outline>
    <contour>
      <point x="101" y="0" type="curve"/>
      <point x="311" y="0" type="line"/>
      <point x="311" y="435" type="line"/>
      <point x="337" y="512"/>
      <point x="420" y="596"/>
      <point x="506" y="596" type="curve" smooth="yes"/>
      <point x="586" y="596"/>
      <point x="622" y="558"/>
      <point x="622" y="412" type="curve" smooth="yes"/>
      <point x="622" y="309"/>
      <point x="622" y="0"/>
      <point x="622" y="0" type="curve"/>
      <point x="832" y="0" type="line"/>
      <point x="832" y="0"/>
      <point x="832" y="344"/>
      <point x="832" y="468" type="curve" smooth="yes"/>
      <point x="832" y="675"/>
      <point x="756" y="780"/>
      <point x="603" y="780" type="curve" smooth="yes"/>
      <point x="496" y="780"/>
      <point x="384" y="732"/>
      <point x="311" y="637" type="curve"/>
      <point x="311" y="670"/>
      <point x="311" y="1200"/>
      <point x="311" y="1200" type="curve"/>
      <point x="90" y="1200" type="line"/>
      <point x="101" y="1135"/>
      <point x="101" y="1008"/>
      <point x="101" y="847" type="curve" smooth="yes"/>
      <point x="101" y="701"/>
      <point x="101" y="0"/>
    </contour>
  </outline>
</glyph>
<glyph name="j" format="2">
  <advance width="502"/>
  <unicode hex="006A"/>
  <anchor x="105" y="-375" name="L"/>
  <anchor x="266" y="825" name="U"/>
  <outline>
    <contour>
      <point x="42" y="-352" type="curve" smooth="yes"/>
      <point x="229" y="-352"/>
      <point x="375" y="-261"/>
      <point x="375" y="18" type="curve" smooth="yes"/>
      <point x="375" y="765" type="line"/>
      <point x="153" y="765" type="line"/>
      <point x="163" y="686"/>
      <point x="165" y="543"/>
      <point x="165" y="397" type="curve" smooth="yes"/>
      <point x="165" y="15" type="line" smooth="yes"/>
      <point x="165" y="-112"/>
      <point x="123" y="-174"/>
      <point x="36" y="-174" type="curve" smooth="yes"/>
      <point x="-15" y="-174"/>
      <point x="-75" y="-146"/>
      <point x="-108" y="-114" type="curve"/>
      <point x="-142" y="-291" type="line"/>
      <point x="-111" y="-315"/>
      <point x="-27" y="-352"/>
    </contour>
    <contour>
      <point x="270" y="907" type="curve" smooth="yes"/>
      <point x="346" y="907"/>
      <point x="401" y="960"/>
      <point x="401" y="1038" type="curve" smooth="yes"/>
      <point x="401" y="1115"/>
      <point x="346" y="1170"/>
      <point x="270" y="1170" type="curve" smooth="yes"/>
      <point x="194" y="1170"/>
      <point x="138" y="1115"/>
      <point x="138" y="1038" type="curve" smooth="yes"/>
      <point x="138" y="960"/>
      <point x="194" y="907"/>
    </contour>
  </outline>
</glyph>
<glyph name="l" format="2">
  <advance width="480"/>
  <unicode hex="006C"/>
  <anchor x="251" y="0" name="H"/>
  <anchor x="251" y="-75" name="L"/>
  <anchor x="495" y="750" name="R"/>
  <anchor x="240" y="1226" name="U"/>
  <outline>
    <contour>
      <point x="135" y="0" type="line"/>
      <point x="360" y="0" type="line"/>
      <point x="350" y="81"/>
      <point x="345" y="259"/>
      <point x="345" y="356" type="curve" smooth="yes"/>
      <point x="345" y="1200" type="line"/>
      <point x="120" y="1200" type="line"/>
      <point x="129" y="1113"/>
      <point x="135" y="993"/>
      <point x="135" y="847" type="curve" smooth="yes"/>
    </contour>
  </outline>
</glyph>
<glyph name="p" format="2">
  <advance width="926"/>
  <unicode hex="0070"/>
  <anchor x="217" y="-326" name="H"/>
  <anchor x="480" y="-375" name="L"/>
  <anchor x="926" y="750" name="R"/>
  <anchor x="480" y="825" name="U"/>
  <outline>
    <contour>
      <point x="108" y="-367" type="line"/>
      <point x="337" y="-367" type="line"/>
      <point x="324" y="-303"/>
      <point x="318" y="-232"/>
      <point x="318" y="-112" type="curve" smooth="yes"/>
      <point x="318" y="48" type="line"/>
      <point x="388" y="7"/>
      <point x="445" y="-18"/>
      <point x="524" y="-18" type="curve" smooth="yes"/>
      <point x="708" y="-18"/>
      <point x="858" y="144"/>
      <point x="858" y="401" type="curve" smooth="yes"/>
      <point x="858" y="621"/>
      <point x="747" y="780"/>
      <point x="579" y="780" type="curve" smooth="yes"/>
      <point x="471" y="780"/>
      <point x="376" y="721"/>
      <point x="307" y="637" type="curve"/>
      <point x="300" y="699"/>
      <point x="288" y="742"/>
      <point x="277" y="765" type="curve"/>
      <point x="71" y="765" type="line"/>
      <point x="105" y="680"/>
      <point x="108" y="550"/>
      <point x="108" y="363" type="curve" smooth="yes"/>
    </contour>
    <contour>
      <point x="474" y="154" type="curve" smooth="yes"/>
      <point x="423" y="154"/>
      <point x="395" y="168"/>
      <point x="318" y="225" type="curve"/>
      <point x="318" y="438" type="line"/>
      <point x="361" y="544"/>
      <point x="437" y="601"/>
      <point x="504" y="601" type="curve" smooth="yes"/>
      <point x="594" y="601"/>
      <point x="648" y="514"/>
      <point x="648" y="378" type="curve" smooth="yes"/>
      <point x="648" y="240"/>
      <point x="566" y="154"/>
    </contour>
  </outline>
</glyph>
<glyph name="v" format="2">
  <advance width="828"/>
  <unicode hex="0076"/>
  <anchor x="423" y="0" name="H"/>
  <anchor x="423" y="-75" name="L"/>
  <anchor x="562" y="0" name="O"/>
  <anchor x="423" y="825" name="U"/>
  <outline>
    <contour>
      <point x="322" y="0" type="curve"/>
      <point x="506" y="0" type="line"/>
      <point x="506" y="0"/>
      <point x="664" y="402"/>
      <point x="704" y="498" type="curve" smooth="yes"/>
      <point x="729" y="558"/>
      <point x="777" y="678"/>
      <point x="820" y="765" type="curve"/>
      <point x="589" y="765" type="line"/>
      <point x="417" y="217" type="line"/>
      <point x="241" y="765" type="line"/>
      <point x="7" y="765" type="line"/>
      <point x="48" y="678"/>
      <point x="99" y="559"/>
      <point x="123" y="498" type="curve" smooth="yes"/>
      <point x="170" y="382"/>
      <point x="322" y="0"/>
    </contour>
  </outline>
</glyph>
<glyph name="w" format="2">
  <advance width="1177"/>
  <unicode hex="0077"/>
  <anchor x="588" y="-75" name="L"/>
  <anchor x="588" y="825" name="U"/>
  <outline>
    <contour>
      <point x="243" y="0" type="line"/>
      <point x="461" y="0" type="line"/>
      <point x="588" y="521" type="line"/>
      <point x="716" y="0" type="line"/>
      <point x="933" y="0" type="line"/>
      <point x="1072" y="498" type="line" smooth="yes"/>
      <point x="1098" y="588"/>
      <point x="1116" y="651"/>
      <point x="1151" y="765" type="curve"/>
      <point x="935" y="765" type="line"/>
      <point x="817" y="213" type="line"/>
      <point x="678" y="765" type="line"/>
      <point x="498" y="765" type="line"/>
      <point x="360" y="213" type="line"/>
      <point x="242" y="765" type="line"/>
      <point x="26" y="765" type="line"/>
      <point x="61" y="650"/>
      <point x="82" y="578"/>
      <point x="105" y="498" type="curve" smooth="yes"/>
    </contour>
  </outline>
</glyph>
<glyph name="x" format="2">
  <advance width="888"/>
  <unicode hex="0078"/>
  <anchor x="720" y="0" name="H"/>
  <anchor x="442" y="-75" name="L"/>
  <anchor x="461" y="825" name="U"/>
  <outline>
    <contour>
      <point x="611" y="0" type="line"/>
      <point x="858" y="0" type="line"/>
      <point x="777" y="96"/>
      <point x="741" y="142"/>
      <point x="697" y="202" type="curve" smooth="yes"/>
      <point x="285" y="765" type="line"/>
      <point x="37" y="765" type="line"/>
      <point x="118" y="665"/>
      <point x="144" y="631"/>
      <point x="195" y="562" type="curve" smooth="yes"/>
    </contour>
    <contour>
      <point x="30" y="0" type="curve"/>
      <point x="258" y="0" type="line"/>
      <point x="438" y="269" type="line"/>
      <point x="374" y="462" type="line"/>
      <point x="183" y="202" type="line" smooth="yes"/>
      <point x="146" y="150"/>
      <point x="112" y="107"/>
    </contour>
    <contour>
      <point x="506" y="303" type="line"/>
      <point x="693" y="562" type="line" smooth="yes"/>
      <point x="735" y="619"/>
      <point x="770" y="664"/>
      <point x="847" y="765" type="curve"/>
      <point x="618" y="765" type="line"/>
      <point x="446" y="501" type="line"/>
    </contour>
  </outline>
</glyph>
<glyph name="asciitilde" format="2">
  <advance width="836"/>
  <unicode hex="007E"/>
  <outline>
    <contour>
      <point x="619" y="247" type="curve" smooth="yes"/>
      <point x="739" y="247"/>
      <point x="811" y="384"/>
      <point x="811" y="480" type="curve"/>
      <point x="702" y="480" type="line"/>
      <point x="697" y="445"/>
      <point x="674" y="405"/>
      <point x="612" y="405" type="curve" smooth="yes"/>
      <point x="450" y="405"/>
      <point x="346" y="483"/>
      <point x="196" y="483" type="curve" smooth="yes"/>
      <point x="79" y="483"/>
      <point x="16" y="350"/>
      <point x="16" y="258" type="curve"/>
      <point x="124" y="258" type="line"/>
      <point x="128" y="295"/>
      <point x="152" y="326"/>
      <point x="211" y="326" type="curve" smooth="yes"/>
      <point x="327" y="326"/>
      <point x="462" y="247"/>
    </contour>
  </outline>
</glyph>
<glyph name="cent" format="2">
  <advance width="817"/>
  <unicode hex="00A2"/>
  <outline>
    <contour>
      <point x="460" y="37" type="curve" smooth="yes"/>
      <point x="566" y="37"/>
      <point x="640" y="60"/>
      <point x="712" y="105" type="curve"/>
      <point x="691" y="279" type="line"/>
      <point x="629" y="230"/>
      <point x="573" y="201"/>
      <point x="488" y="201" type="curve" smooth="yes"/>
      <point x="381" y="201"/>
      <point x="312" y="286"/>
      <point x="312" y="411" type="curve" smooth="yes"/>
      <point x="312" y="549"/>
      <point x="389" y="632"/>
      <point x="488" y="632" type="curve" smooth="yes"/>
      <point x="561" y="632"/>
      <point x="609" y="610"/>
      <point x="674" y="566" type="curve"/>
      <point x="705" y="746" type="line"/>
      <point x="653" y="773"/>
      <point x="578" y="796"/>
      <point x="484" y="796" type="curve" smooth="yes"/>
      <point x="258" y="796"/>
      <point x="112" y="627"/>
      <point x="112" y="404" type="curve" smooth="yes"/>
      <point x="112" y="170"/>
      <point x="268" y="37"/>
    </contour>
    <contour>
      <point x="422" y="-157" type="line"/>
      <point x="564" y="-157" type="line"/>
      <point x="564" y="990" type="line"/>
      <point x="422" y="990" type="line"/>
    </contour>
  </outline>
</glyph>
<glyph name="dieresis" format="2">
  <advance width="630"/>
  <unicode hex="00A8"/>
  <anchor x="315" y="1188" name="U"/>
  <outline>
    <contour>
      <point x="498" y="907" type="curve" smooth="yes"/>
      <point x="575" y="907"/>
      <point x="630" y="960"/>
      <point x="630" y="1038" type="curve" smooth="yes"/>
      <point x="630" y="1115"/>
      <point x="575" y="1170"/>
      <point x="498" y="1170" type="curve" smooth="yes"/>
      <point x="423" y="1170"/>
      <point x="367" y="1115"/>
      <point x="367" y="1038" type="curve" smooth="yes"/>
      <point x="367" y="960"/>
      <point x="423" y="907"/>
    </contour>
    <contour>
      <point x="131" y="907" type="curve" smooth="yes"/>
      <point x="207" y="907"/>
      <point x="262" y="960"/>
      <point x="262" y="1038" type="curve" smooth="yes"/>
      <point x="262" y="1115"/>
      <point x="207" y="1170"/>
      <point x="131" y="1170" type="curve" smooth="yes"/>
      <point x="55" y="1170"/>
      <point x="0" y="1115"/>
      <point x="0" y="1038" type="curve" smooth="yes"/>
      <point x="0" y="960"/>
      <point x="55" y="907"/>
    </contour>
  </outline>
</glyph>
<glyph name="copyright" format="2">
  <advance width="1151"/>
  <unicode hex="00A9"/>
  <outline>
    <contour>
      <point x="573" y="-18" type="curve" smooth="yes"/>
      <point x="840" y="-18"/>
      <point x="1117" y="165"/>
      <point x="1117" y="547" type="curve" smooth="yes"/>
      <point x="1117" y="922"/>
      <point x="840" y="1113"/>
      <point x="573" y="1113" type="curve" smooth="yes"/>
      <point x="299" y="1113"/>
      <point x="33" y="922"/>
      <point x="33" y="547" type="curve" smooth="yes"/>
      <point x="33" y="165"/>
      <point x="299" y="-18"/>
    </contour>
    <contour>
      <point x="564" y="207" type="curve" smooth="yes"/>
      <point x="638" y="207"/>
      <point x="732" y="236"/>
      <point x="786" y="280" type="curve"/>
      <point x="764" y="407" type="line"/>
      <point x="717" y="357"/>
      <point x="644" y="324"/>
      <point x="579" y="324" type="curve" smooth="yes"/>
      <point x="470" y="324"/>
      <point x="405" y="408"/>
      <point x="405" y="548" type="curve" smooth="yes"/>
      <point x="405" y="696"/>
      <point x="481" y="770"/>
      <point x="584" y="770" type="curve" smooth="yes"/>
      <point x="640" y="770"/>
      <point x="693" y="752"/>
      <point x="750" y="708" type="curve"/>
      <point x="779" y="823" type="line"/>
      <point x="717" y="870"/>
      <point x="657" y="885"/>
      <point x="577" y="885" type="curve" smooth="yes"/>
      <point x="414" y="885"/>
      <point x="273" y="768"/>
      <point x="273" y="537" type="curve" smooth="yes"/>
      <point x="273" y="335"/>
      <point x="384" y="207"/>
    </contour>
    <contour>
      <point x="573" y="102" type="curve" smooth="yes"/>
      <point x="360" y="102"/>
      <point x="159" y="256"/>
      <point x="159" y="547" type="curve" smooth="yes"/>
      <point x="159" y="838"/>
      <point x="360" y="993"/>
      <point x="573" y="993" type="curve" smooth="yes"/>
      <point x="787" y="993"/>
      <point x="992" y="838"/>
      <point x="992" y="547" type="curve" smooth="yes"/>
      <point x="992" y="256"/>
      <point x="787" y="102"/>
    </contour>
  </outline>
</glyph>
<glyph name="plusminus" format="2">
  <advance width="900"/>
  <unicode hex="00B1"/>
  <outline>
    <contour>
      <point x="116" y="603" type="line"/>
      <point x="783" y="603" type="line"/>
      <point x="783" y="761" type="line"/>
      <point x="116" y="761" type="line"/>
    </contour>
    <contour>
      <point x="116" y="127" type="line"/>
      <point x="783" y="127" type="line"/>
      <point x="783" y="277" type="line"/>
      <point x="116" y="277" type="line"/>
    </contour>
    <contour>
      <point x="371" y="352" type="line"/>
      <point x="528" y="352" type="line"/>
      <point x="528" y="1023" type="line"/>
      <point x="371" y="1023" type="line"/>
    </contour>
  </outline>
</glyph>
<glyph name="ordmasculine" format="2">
  <advance width="600"/>
  <unicode hex="00BA"/>
  <outline>
    <component base="o" xScale="0.68301" yScale="0.68301" xOffset="3" yOffset="508"/>
    <contour>
      <point x="48" y="338" type="line"/>
      <point x="554" y="338" type="line"/>
      <point x="554" y="450" type="line"/>
      <point x="48" y="450" type="line"/>
    </contour>
  </outline>
</glyph>
<glyph name="AE" format="2">
  <advance width="1373"/>
  <unicode hex="00C6"/>
  <anchor x="757" y="-75" name="L"/>
  <anchor x="757" y="1147" name="U"/>
  <outline>
    <contour>
      <point x="7" y="0" type="curve"/>
      <point x="231" y="0" type="line"/>
      <point x="354" y="266" type="line"/>
      <point x="660" y="266" type="line"/>
      <point x="658" y="87"/>
      <point x="654" y="33"/>
      <point x="648" y="0" type="curve"/>
      <point x="1286" y="0" type="line"/>
      <point x="1286" y="183" type="line"/>
      <point x="1227" y="173"/>
      <point x="1134" y="172"/>
      <point x="991" y="172" type="curve" smooth="yes"/>
      <point x="873" y="172" type="line"/>
      <point x="873" y="487" type="line"/>
      <point x="1207" y="487" type="line"/>
      <point x="1207" y="656" type="line"/>
      <point x="873" y="656" type="line"/>
      <point x="873" y="922" type="line"/>
      <point x="1263" y="922" type="line"/>
      <point x="1263" y="1095" type="line"/>
      <point x="552" y="1095" type="line"/>
      <point x="147" y="266" type="line" smooth="yes"/>
      <point x="77" y="124"/>
      <point x="44" y="60"/>
    </contour>
    <contour>
      <point x="429" y="427" type="line"/>
      <point x="660" y="922" type="line"/>
      <point x="660" y="427" type="line"/>
    </contour>
  </outline>
</glyph>
<glyph name="Eth" format="2">
  <advance width="1125"/>
  <unicode hex="00D0"/>
  <anchor x="547" y="-75" name="L"/>
  <anchor x="547" y="1147" name="U"/>
  <outline>
    <contour>
      <point x="468" y="-7" type="curve" smooth="yes"/>
      <point x="700" y="-7"/>
      <point x="1038" y="108"/>
      <point x="1038" y="555" type="curve" smooth="yes"/>
      <point x="1038" y="1030"/>
      <point x="690" y="1102"/>
      <point x="483" y="1102" type="curve" smooth="yes"/>
      <point x="376" y="1102"/>
      <point x="190" y="1099"/>
      <point x="123" y="1095" type="curve"/>
      <point x="135" y="1035"/>
      <point x="135" y="897"/>
      <point x="135" y="750" type="curve" smooth="yes"/>
      <point x="135" y="341" type="line" smooth="yes"/>
      <point x="135" y="192"/>
      <point x="135" y="60"/>
      <point x="123" y="0" type="curve"/>
      <point x="123" y="0"/>
      <point x="366" y="-7"/>
    </contour>
    <contour>
      <point x="8" y="483" type="line"/>
      <point x="604" y="483" type="line"/>
      <point x="604" y="640" type="line"/>
      <point x="8" y="640" type="line"/>
    </contour>
    <contour>
      <point x="486" y="165" type="curve" smooth="yes"/>
      <point x="426" y="165"/>
      <point x="378" y="170"/>
      <point x="348" y="173" type="curve"/>
      <point x="348" y="930" type="line"/>
      <point x="380" y="932"/>
      <point x="447" y="934"/>
      <point x="489" y="934" type="curve" smooth="yes"/>
      <point x="684" y="934"/>
      <point x="819" y="838"/>
      <point x="819" y="540" type="curve" smooth="yes"/>
      <point x="819" y="267"/>
      <point x="653" y="165"/>
    </contour>
  </outline>
</glyph>
<glyph name="ae" format="2">
  <advance width="1333"/>
  <unicode hex="00E6"/>
  <anchor x="927" y="0" name="H"/>
  <anchor x="641" y="-75" name="L"/>
  <anchor x="1188" y="0" name="O"/>
  <anchor x="1361" y="750" name="R"/>
  <anchor x="705" y="825" name="U"/>
  <outline>
    <contour>
      <point x="333" y="-18" type="curve" smooth="yes"/>
      <point x="421" y="-18"/>
      <point x="512" y="21"/>
      <point x="600" y="101" type="curve" smooth="yes"/>
      <point x="608" y="108"/>
      <point x="624" y="124"/>
      <point x="633" y="135" type="curve"/>
      <point x="702" y="32"/>
      <point x="817" y="-18"/>
      <point x="942" y="-18" type="curve" smooth="yes"/>
      <point x="1059" y="-18"/>
      <point x="1154" y="1"/>
      <point x="1262" y="56" type="curve"/>
      <point x="1246" y="229" type="line"/>
      <point x="1153" y="174"/>
      <point x="1059" y="153"/>
      <point x="961" y="153" type="curve" smooth="yes"/>
      <point x="848" y="153"/>
      <point x="784" y="207"/>
      <point x="774" y="337" type="curve"/>
      <point x="1258" y="337" type="line"/>
      <point x="1258" y="399" type="line" smooth="yes"/>
      <point x="1258" y="586"/>
      <point x="1194" y="780"/>
      <point x="942" y="780" type="curve" smooth="yes"/>
      <point x="848" y="780"/>
      <point x="768" y="745"/>
      <point x="705" y="686" type="curve"/>
      <point x="649" y="744"/>
      <point x="565" y="780"/>
      <point x="461" y="780" type="curve" smooth="yes"/>
      <point x="334" y="780"/>
      <point x="246" y="745"/>
      <point x="161" y="712" type="curve"/>
      <point x="156" y="651"/>
      <point x="154" y="551"/>
      <point x="153" y="518" type="curve"/>
      <point x="241" y="579"/>
      <point x="318" y="612"/>
      <point x="397" y="612" type="curve" smooth="yes"/>
      <point x="510" y="612"/>
      <point x="577" y="588"/>
      <point x="577" y="532" type="curve" smooth="yes"/>
      <point x="577" y="484" type="line"/>
      <point x="546" y="483"/>
      <point x="426" y="477"/>
      <point x="375" y="473" type="curve" smooth="yes"/>
      <point x="142" y="453"/>
      <point x="75" y="328"/>
      <point x="75" y="213" type="curve" smooth="yes"/>
      <point x="75" y="90"/>
      <point x="183" y="-18"/>
    </contour>
    <contour>
      <point x="388" y="153" type="curve" smooth="yes"/>
      <point x="327" y="153"/>
      <point x="285" y="192"/>
      <point x="285" y="240" type="curve" smooth="yes"/>
      <point x="285" y="289"/>
      <point x="315" y="323"/>
      <point x="420" y="334" type="curve" smooth="yes"/>
      <point x="454" y="338"/>
      <point x="534" y="343"/>
      <point x="569" y="345" type="curve"/>
      <point x="570" y="322"/>
      <point x="573" y="296"/>
      <point x="579" y="267" type="curve"/>
      <point x="573" y="259"/>
      <point x="568" y="253"/>
      <point x="563" y="246" type="curve" smooth="yes"/>
      <point x="498" y="167"/>
      <point x="445" y="153"/>
    </contour>
    <contour>
      <point x="778" y="472" type="line"/>
      <point x="795" y="579"/>
      <point x="846" y="622"/>
      <point x="932" y="622" type="curve" smooth="yes"/>
      <point x="1020" y="622"/>
      <point x="1067" y="577"/>
      <point x="1067" y="472" type="curve"/>
    </contour>
  </outline>
</glyph>
<glyph name="divide" format="2">
  <advance width="900"/>
  <unicode hex="00F7"/>
  <outline>
    <contour>
      <point x="116" y="472" type="line"/>
      <point x="783" y="472" type="line"/>
      <point x="783" y="622" type="line"/>
      <point x="116" y="622" type="line"/>
    </contour>
    <contour>
      <point x="450" y="116" type="curve" smooth="yes"/>
      <point x="526" y="116"/>
      <point x="581" y="169"/>
      <point x="581" y="247" type="curve" smooth="yes"/>
      <point x="581" y="324"/>
      <point x="526" y="378"/>
      <point x="450" y="378" type="curve" smooth="yes"/>
      <point x="374" y="378"/>
      <point x="318" y="324"/>
      <point x="318" y="247" type="curve" smooth="yes"/>
      <point x="318" y="169"/>
      <point x="374" y="116"/>
    </contour>
    <contour>
      <point x="450" y="723" type="curve" smooth="yes"/>
      <point x="526" y="723"/>
      <point x="581" y="777"/>
      <point x="581" y="855" type="curve" smooth="yes"/>
      <point x="581" y="931"/>
      <point x="526" y="986"/>
      <point x="450" y="986" type="curve" smooth="yes"/>
      <point x="374" y="986"/>
      <point x="318" y="931"/>
      <point x="318" y="855" type="curve" smooth="yes"/>
      <point x="318" y="777"/>
      <point x="374" y="723"/>
    </contour>
  </outline>
</glyph>
<glyph name="oe" format="2">
  <advance width="1357"/>
  <unicode hex="0153"/>
  <anchor x="973" y="0" name="H"/>
  <anchor x="699" y="-75" name="L"/>
  <anchor x="1176" y="0" name="O"/>
  <anchor x="1378" y="750" name="R"/>
  <anchor x="699" y="825" name="U"/>
  <outline>
    <contour>
      <point x="427" y="-18" type="curve" smooth="yes"/>
      <point x="531" y="-18"/>
      <point x="627" y="18"/>
      <point x="696" y="89" type="curve"/>
      <point x="765" y="18"/>
      <point x="862" y="-18"/>
      <point x="966" y="-18" type="curve" smooth="yes"/>
      <point x="1083" y="-18"/>
      <point x="1178" y="1"/>
      <point x="1286" y="56" type="curve"/>
      <point x="1270" y="229" type="line"/>
      <point x="1177" y="174"/>
      <point x="1083" y="153"/>
      <point x="985" y="153" type="curve" smooth="yes"/>
      <point x="872" y="153"/>
      <point x="808" y="207"/>
      <point x="798" y="337" type="curve"/>
      <point x="1281" y="337" type="line"/>
      <point x="1282" y="351"/>
      <point x="1282" y="379"/>
      <point x="1282" y="399" type="curve" smooth="yes"/>
      <point x="1282" y="586"/>
      <point x="1218" y="780"/>
      <point x="966" y="780" type="curve" smooth="yes"/>
      <point x="855" y="780"/>
      <point x="765" y="742"/>
      <point x="701" y="677" type="curve"/>
      <point x="637" y="744"/>
      <point x="548" y="780"/>
      <point x="442" y="780" type="curve" smooth="yes"/>
      <point x="240" y="780"/>
      <point x="67" y="638"/>
      <point x="67" y="380" type="curve" smooth="yes"/>
      <point x="67" y="122"/>
      <point x="216" y="-18"/>
    </contour>
    <contour>
      <point x="435" y="150" type="curve" smooth="yes"/>
      <point x="332" y="150"/>
      <point x="277" y="237"/>
      <point x="277" y="380" type="curve" smooth="yes"/>
      <point x="277" y="524"/>
      <point x="338" y="611"/>
      <point x="435" y="611" type="curve" smooth="yes"/>
      <point x="537" y="611"/>
      <point x="592" y="524"/>
      <point x="592" y="380" type="curve" smooth="yes"/>
      <point x="592" y="237"/>
      <point x="531" y="150"/>
    </contour>
    <contour>
      <point x="802" y="472" type="line"/>
      <point x="819" y="579"/>
      <point x="870" y="622"/>
      <point x="956" y="622" type="curve" smooth="yes"/>
      <point x="1044" y="622"/>
      <point x="1091" y="577"/>
      <point x="1091" y="472" type="curve"/>
    </contour>
  </outline>
</glyph>
<glyph name="ogonek" format="2">
  <advance width="363"/>
  <unicode hex="02DB"/>
  <anchor x="281" y="-300" name="L"/>
  <outline>
    <contour>
      <point x="195" y="-330" type="curve" smooth="yes"/>
      <point x="250" y="-330"/>
      <point x="320" y="-306"/>
      <point x="363" y="-262" type="curve"/>
      <point x="341" y="-157" type="line"/>
      <point x="313" y="-190"/>
      <point x="242" y="-213"/>
      <point x="210" y="-213" type="curve" smooth="yes"/>
      <point x="162" y="-213"/>
      <point x="131" y="-187"/>
      <point x="131" y="-138" type="curve" smooth="yes"/>
      <point x="131" y="-86"/>
      <point x="170" y="-48"/>
      <point x="247" y="0" type="curve"/>
      <point x="120" y="0" type="line"/>
      <point x="42" y="-37"/>
      <point x="0" y="-90"/>
      <point x="0" y="-168" type="curve" smooth="yes"/>
      <point x="0" y="-258"/>
      <point x="88" y="-330"/>
    </contour>
  </outline>
</glyph>
<glyph name="samvat-ar" format="2">
  <advance width="2023"/>
  <unicode hex="0604"/>
  <anchor x="141" y="0" name="digitR"/>
  <outline>
    <contour>
      <point x="1301" y="-130" type="curve"/>
      <point x="1302" y="-86"/>
      <point x="1299" y="5"/>
      <point x="1283" y="45" type="curve"/>
      <point x="1159" y="65"/>
      <point x="1117" y="132"/>
      <point x="1117" y="186" type="curve" smooth="yes"/>
      <point x="1117" y="225"/>
      <point x="1140" y="257"/>
      <point x="1170" y="257" type="curve" smooth="yes"/>
      <point x="1243" y="257"/>
      <point x="1243" y="73"/>
      <point x="1409" y="73" type="curve" smooth="yes"/>
      <point x="1492" y="73"/>
      <point x="1585" y="124"/>
      <point x="1619" y="321" type="curve"/>
      <point x="1551" y="271" type="line"/>
      <point x="1585" y="200"/>
      <point x="1645" y="160"/>
      <point x="1717" y="160" type="curve" smooth="yes"/>
      <point x="1871" y="160"/>
      <point x="1938" y="295"/>
      <point x="1938" y="451" type="curve" smooth="yes"/>
      <point x="1938" y="509"/>
      <point x="1929" y="570"/>
      <point x="1911" y="628" type="curve"/>
      <point x="1846" y="624"/>
      <point x="1778" y="605"/>
      <point x="1741" y="582" type="curve"/>
      <point x="1760" y="528"/>
      <point x="1769" y="472"/>
      <point x="1769" y="427" type="curve" smooth="yes"/>
      <point x="1769" y="373"/>
      <point x="1756" y="335"/>
      <point x="1729" y="335" type="curve" smooth="yes"/>
      <point x="1692" y="335"/>
      <point x="1667" y="420"/>
      <point x="1639" y="568" type="curve"/>
      <point x="1583" y="567"/>
      <point x="1500" y="547"/>
      <point x="1471" y="529" type="curve"/>
      <point x="1474" y="504"/>
      <point x="1475" y="478"/>
      <point x="1475" y="454" type="curve" smooth="yes"/>
      <point x="1475" y="339"/>
      <point x="1448" y="246"/>
      <point x="1412" y="246" type="curve" smooth="yes"/>
      <point x="1358" y="246"/>
      <point x="1352" y="430"/>
      <point x="1175" y="430" type="curve" smooth="yes"/>
      <point x="1030" y="430"/>
      <point x="942" y="314"/>
      <point x="942" y="187" type="curve" smooth="yes"/>
      <point x="942" y="48"/>
      <point x="1048" y="-104"/>
    </contour>
    <contour>
      <point x="576" y="-165" type="curve" smooth="yes"/>
      <point x="847" y="-165"/>
      <point x="1052" y="-137"/>
      <point x="1228" y="-28" type="curve"/>
      <point x="1086" y="110" type="line"/>
      <point x="978" y="33"/>
      <point x="922" y="10"/>
      <point x="598" y="10" type="curve" smooth="yes"/>
      <point x="369" y="10"/>
      <point x="190" y="19"/>
      <point x="85" y="32" type="curve"/>
      <point x="85" y="-42"/>
      <point x="111" y="-127"/>
      <point x="136" y="-149" type="curve"/>
      <point x="226" y="-158"/>
      <point x="439" y="-165"/>
    </contour>
  </outline>
</glyph>
<glyph name="numbermark-ar" format="2">
  <advance width="1081"/>
  <unicode hex="0605"/>
  <anchor x="48" y="0" name="digitR"/>
  <outline>
    <contour>
      <point x="539" y="1155" type="curve" smooth="yes"/>
      <point x="725" y="1155"/>
      <point x="954" y="1249"/>
      <point x="1121" y="1386" type="curve"/>
      <point x="1107" y="1431"/>
      <point x="1065" y="1470"/>
      <point x="1025" y="1485" type="curve"/>
      <point x="883" y="1391"/>
      <point x="714" y="1329"/>
      <point x="556" y="1329" type="curve" smooth="yes"/>
      <point x="441" y="1329"/>
      <point x="378" y="1377"/>
      <point x="332" y="1480" type="curve"/>
      <point x="229" y="1472"/>
      <point x="72" y="1398"/>
      <point x="-40" y="1319" type="curve"/>
      <point x="-22" y="1284"/>
      <point x="41" y="1208"/>
      <point x="89" y="1189" type="curve"/>
      <point x="150" y="1235"/>
      <point x="240" y="1292"/>
      <point x="332" y="1328" type="curve"/>
      <point x="220" y="1351" type="line"/>
      <point x="268" y="1225"/>
      <point x="390" y="1155"/>
    </contour>
  </outline>
</glyph>
<glyph name="rehHahabove-ar" format="2">
  <unicode hex="0612"/>
  <anchor x="351" y="1149" name="_diaA"/>
  <outline>
    <contour>
      <point x="109" y="1175" type="curve"/>
      <point x="130" y="1183"/>
      <point x="168" y="1218"/>
      <point x="178" y="1247" type="curve"/>
      <point x="161" y="1272"/>
      <point x="149" y="1299"/>
      <point x="149" y="1332" type="curve" smooth="yes"/>
      <point x="149" y="1450"/>
      <point x="302" y="1508"/>
      <point x="441" y="1447" type="curve"/>
      <point x="463" y="1462"/>
      <point x="487" y="1487"/>
      <point x="494" y="1514" type="curve"/>
      <point x="387" y="1621"/>
      <point x="344" y="1724"/>
      <point x="254" y="1724" type="curve" smooth="yes"/>
      <point x="198" y="1724"/>
      <point x="139" y="1673"/>
      <point x="93" y="1612" type="curve"/>
      <point x="98" y="1595"/>
      <point x="114" y="1583"/>
      <point x="132" y="1574" type="curve"/>
      <point x="169" y="1602"/>
      <point x="201" y="1620"/>
      <point x="233" y="1620" type="curve" smooth="yes"/>
      <point x="279" y="1620"/>
      <point x="302" y="1598"/>
      <point x="356" y="1545" type="curve"/>
      <point x="195" y="1574"/>
      <point x="56" y="1469"/>
      <point x="56" y="1322" type="curve" smooth="yes"/>
      <point x="56" y="1281"/>
      <point x="67" y="1226"/>
    </contour>
    <contour>
      <point x="448" y="1133" type="curve"/>
      <point x="579" y="1185"/>
      <point x="656" y="1286"/>
      <point x="656" y="1445" type="curve" smooth="yes"/>
      <point x="656" y="1492"/>
      <point x="650" y="1554"/>
      <point x="639" y="1615" type="curve"/>
      <point x="606" y="1615"/>
      <point x="575" y="1606"/>
      <point x="556" y="1596" type="curve"/>
      <point x="564" y="1552"/>
      <point x="571" y="1502"/>
      <point x="571" y="1441" type="curve" smooth="yes"/>
      <point x="571" y="1291"/>
      <point x="507" y="1245"/>
      <point x="408" y="1209" type="curve"/>
      <point x="410" y="1190"/>
      <point x="426" y="1148"/>
    </contour>
  </outline>
</glyph>
<glyph name="takhallusabove-ar" format="2">
  <unicode hex="0614"/>
  <anchor x="402" y="1338" name="_diaA"/>
  <anchor x="393" y="1699" name="diaA"/>
  <outline>
    <contour>
      <point x="142" y="1394" type="curve" smooth="yes"/>
      <point x="279" y="1394"/>
      <point x="355" y="1421"/>
      <point x="395" y="1480" type="curve"/>
      <point x="428" y="1433"/>
      <point x="468" y="1411"/>
      <point x="512" y="1411" type="curve" smooth="yes"/>
      <point x="602" y="1411"/>
      <point x="644" y="1476"/>
      <point x="644" y="1575" type="curve" smooth="yes"/>
      <point x="644" y="1611"/>
      <point x="637" y="1650"/>
      <point x="622" y="1689" type="curve"/>
      <point x="586" y="1687"/>
      <point x="546" y="1674"/>
      <point x="528" y="1661" type="curve"/>
      <point x="539" y="1637"/>
      <point x="548" y="1601"/>
      <point x="548" y="1571" type="curve" smooth="yes"/>
      <point x="548" y="1540"/>
      <point x="539" y="1516"/>
      <point x="512" y="1516" type="curve" smooth="yes"/>
      <point x="487" y="1516"/>
      <point x="460" y="1554"/>
      <point x="451" y="1618" type="curve"/>
      <point x="424" y="1616"/>
      <point x="386" y="1608"/>
      <point x="365" y="1598" type="curve"/>
      <point x="341" y="1525"/>
      <point x="293" y="1493"/>
      <point x="163" y="1493" type="curve" smooth="yes"/>
      <point x="106" y="1493"/>
      <point x="61" y="1498"/>
      <point x="13" y="1505" type="curve"/>
      <point x="18" y="1477"/>
      <point x="35" y="1415"/>
      <point x="66" y="1398" type="curve"/>
      <point x="87" y="1394"/>
      <point x="108" y="1394"/>
    </contour>
  </outline>
</glyph>
<glyph name="alefLamYehabove-ar" format="2">
  <unicode hex="0616"/>
  <anchor x="0" y="1168" name="_diaA"/>
  <anchor x="0" y="1899" name="diaA"/>
  <outline>
    <component base="alef-ar" xScale="0.5" yScale="0.45" xOffset="120" yOffset="1423"/>
    <contour>
      <point x="-98" y="1199" type="curve" smooth="yes"/>
      <point x="-6" y="1199"/>
      <point x="181" y="1222"/>
      <point x="266" y="1245" type="curve"/>
      <point x="272" y="1254"/>
      <point x="280" y="1297"/>
      <point x="280" y="1310" type="curve"/>
      <point x="209" y="1303"/>
      <point x="7" y="1294"/>
      <point x="-81" y="1294" type="curve" smooth="yes"/>
      <point x="-188" y="1294"/>
      <point x="-239" y="1312"/>
      <point x="-239" y="1337" type="curve" smooth="yes"/>
      <point x="-239" y="1373"/>
      <point x="-145" y="1383"/>
      <point x="-95" y="1455" type="curve" smooth="yes"/>
      <point x="-66" y="1497"/>
      <point x="-53" y="1519"/>
      <point x="-28" y="1519" type="curve" smooth="yes"/>
      <point x="-5" y="1519"/>
      <point x="9" y="1503"/>
      <point x="10" y="1455" type="curve"/>
      <point x="23" y="1458"/>
      <point x="67" y="1475"/>
      <point x="72" y="1487" type="curve"/>
      <point x="71" y="1575"/>
      <point x="15" y="1616"/>
      <point x="-21" y="1616" type="curve" smooth="yes"/>
      <point x="-83" y="1616"/>
      <point x="-119" y="1562"/>
      <point x="-147" y="1522" type="curve" smooth="yes"/>
      <point x="-188" y="1464"/>
      <point x="-334" y="1426"/>
      <point x="-334" y="1325" type="curve" smooth="yes"/>
      <point x="-334" y="1244"/>
      <point x="-238" y="1199"/>
    </contour>
  </outline>
</glyph>
<glyph name="endoftext-ar" format="2">
  <advance width="992"/>
  <unicode hex="061D"/>
  <outline>
    <contour>
      <point x="456" y="1155" type="curve" smooth="yes"/>
      <point x="193" y="1155"/>
      <point x="80" y="937"/>
      <point x="80" y="794" type="curve" smooth="yes"/>
      <point x="80" y="682"/>
      <point x="144" y="612"/>
      <point x="226" y="541" type="curve" smooth="yes"/>
      <point x="284" y="491"/>
      <point x="366" y="433"/>
      <point x="415" y="360" type="curve" smooth="yes"/>
      <point x="477" y="267"/>
      <point x="493" y="145"/>
      <point x="542" y="73" type="curve" smooth="yes"/>
      <point x="573" y="27"/>
      <point x="648" y="1"/>
      <point x="695" y="1" type="curve" smooth="yes"/>
      <point x="812" y="1"/>
      <point x="932" y="122"/>
      <point x="932" y="218" type="curve" smooth="yes"/>
      <point x="932" y="272"/>
      <point x="897" y="322"/>
      <point x="828" y="322" type="curve" smooth="yes"/>
      <point x="779" y="322"/>
      <point x="742" y="277"/>
      <point x="742" y="236" type="curve" smooth="yes"/>
      <point x="742" y="207"/>
      <point x="745" y="190"/>
      <point x="754" y="167" type="curve"/>
      <point x="713" y="161"/>
      <point x="667" y="174"/>
      <point x="647" y="225" type="curve" smooth="yes"/>
      <point x="608" y="322"/>
      <point x="573" y="401"/>
      <point x="514" y="498" type="curve" smooth="yes"/>
      <point x="441" y="619"/>
      <point x="244" y="682"/>
      <point x="244" y="778" type="curve" smooth="yes"/>
      <point x="244" y="886"/>
      <point x="307" y="991"/>
      <point x="431" y="991" type="curve" smooth="yes"/>
      <point x="474" y="991"/>
      <point x="527" y="954"/>
      <point x="527" y="888" type="curve" smooth="yes"/>
      <point x="527" y="838"/>
      <point x="518" y="786"/>
      <point x="498" y="747" type="curve"/>
      <point x="512" y="726"/>
      <point x="556" y="714"/>
      <point x="587" y="728" type="curve"/>
      <point x="619" y="784"/>
      <point x="644" y="865"/>
      <point x="644" y="974" type="curve" smooth="yes"/>
      <point x="644" y="1069"/>
      <point x="559" y="1155"/>
    </contour>
  </outline>
</glyph>
<glyph name="tah-ar" format="2">
  <advance width="1186"/>
  <unicode hex="0637"/>
  <anchor x="814" y="608" name="above"/>
  <anchor x="140" y="769" name="alef"/>
  <anchor x="666" y="-89" name="below"/>
  <anchor x="364" y="1154" name="diaA"/>
  <anchor x="639" y="-89" name="diaB"/>
  <outline>
    <contour>
      <point x="689" y="-25" type="curve" smooth="yes"/>
      <point x="966" y="-25"/>
      <point x="1121" y="140"/>
      <point x="1121" y="314" type="curve" smooth="yes"/>
      <point x="1121" y="435"/>
      <point x="1036" y="575"/>
      <point x="843" y="575" type="curve" smooth="yes"/>
      <point x="556" y="575"/>
      <point x="385" y="300"/>
      <point x="244" y="172" type="curve"/>
      <point x="149" y="174"/>
      <point x="129" y="174"/>
      <point x="85" y="175" type="curve"/>
      <point x="98" y="112"/>
      <point x="115" y="22"/>
      <point x="135" y="0" type="curve"/>
      <point x="320" y="-5"/>
      <point x="443" y="-25"/>
    </contour>
    <contour>
      <point x="690" y="144" type="curve" smooth="yes"/>
      <point x="575" y="144"/>
      <point x="545" y="150"/>
      <point x="442" y="160" type="curve"/>
      <point x="535" y="253"/>
      <point x="670" y="396"/>
      <point x="831" y="396" type="curve" smooth="yes"/>
      <point x="881" y="396"/>
      <point x="940" y="371"/>
      <point x="940" y="299" type="curve" smooth="yes"/>
      <point x="940" y="230"/>
      <point x="862" y="144"/>
    </contour>
    <contour>
      <point x="333" y="199" type="curve"/>
      <point x="502" y="363" type="line"/>
      <point x="505" y="473"/>
      <point x="508" y="841"/>
      <point x="508" y="1006" type="curve" smooth="yes"/>
      <point x="508" y="1056"/>
      <point x="507" y="1095"/>
      <point x="503" y="1119" type="curve"/>
      <point x="429" y="1112"/>
      <point x="312" y="1062"/>
      <point x="299" y="1005" type="curve"/>
      <point x="300" y="932"/>
      <point x="340" y="495"/>
    </contour>
  </outline>
</glyph>
<glyph name="kashida-ar" format="2">
  <advance width="363"/>
  <unicode hex="0640"/>
  <anchor x="177" y="315" name="alef"/>
  <anchor x="177" y="371" name="diaA"/>
  <anchor x="179" y="-134" name="diaB"/>
  <outline>
    <contour>
      <point x="-20" y="-10" type="line"/>
      <point x="383" y="-10" type="line"/>
      <point x="383" y="165" type="line"/>
      <point x="-20" y="165" type="line"/>
    </contour>
  </outline>
</glyph>
<glyph name="dammatan-ar" format="2">
  <unicode hex="064C"/>
  <anchor x="326" y="1276" name="_diaA"/>
  <anchor x="175" y="1736" name="diaA"/>
  <outline>
    <contour>
      <point x="123" y="1253" type="curve"/>
      <point x="361" y="1334"/>
      <point x="481" y="1441"/>
      <point x="481" y="1585" type="curve" smooth="yes"/>
      <point x="481" y="1685"/>
      <point x="411" y="1733"/>
      <point x="340" y="1733" type="curve" smooth="yes"/>
      <point x="269" y="1733"/>
      <point x="198" y="1684"/>
      <point x="198" y="1593" type="curve" smooth="yes"/>
      <point x="198" y="1476"/>
      <point x="311" y="1423"/>
      <point x="490" y="1425" type="curve"/>
      <point x="513" y="1442"/>
      <point x="531" y="1482"/>
      <point x="535" y="1515" type="curve"/>
      <point x="513" y="1513"/>
      <point x="493" y="1513"/>
      <point x="474" y="1513" type="curve" smooth="yes"/>
      <point x="335" y="1513"/>
      <point x="292" y="1554"/>
      <point x="292" y="1596" type="curve" smooth="yes"/>
      <point x="292" y="1628"/>
      <point x="313" y="1644"/>
      <point x="335" y="1644" type="curve" smooth="yes"/>
      <point x="360" y="1644"/>
      <point x="387" y="1623"/>
      <point x="387" y="1578" type="curve" smooth="yes"/>
      <point x="387" y="1465"/>
      <point x="235" y="1379"/>
      <point x="109" y="1350" type="curve"/>
      <point x="175" y="1343" type="line"/>
      <point x="198" y="1379"/>
      <point x="201" y="1422"/>
      <point x="201" y="1447" type="curve" smooth="yes"/>
      <point x="201" y="1529"/>
      <point x="149" y="1583"/>
      <point x="73" y="1583" type="curve" smooth="yes"/>
      <point x="8" y="1583"/>
      <point x="-45" y="1545"/>
      <point x="-62" y="1481" type="curve"/>
      <point x="-55" y="1462"/>
      <point x="-9" y="1448"/>
      <point x="14" y="1446" type="curve"/>
      <point x="22" y="1482"/>
      <point x="41" y="1490"/>
      <point x="62" y="1490" type="curve" smooth="yes"/>
      <point x="87" y="1490"/>
      <point x="111" y="1470"/>
      <point x="111" y="1435" type="curve" smooth="yes"/>
      <point x="111" y="1409"/>
      <point x="105" y="1363"/>
      <point x="59" y="1309" type="curve"/>
      <point x="70" y="1290"/>
      <point x="100" y="1258"/>
    </contour>
  </outline>
</glyph>
<glyph name="shadda-ar" format="2">
  <unicode hex="0651"/>
  <anchor x="283" y="1326" name="_diaA"/>
  <anchor x="263" y="1706" name="diaA"/>
  <outline>
    <contour>
      <point x="150" y="1341" type="curve" smooth="yes"/>
      <point x="218" y="1341"/>
      <point x="271" y="1390"/>
      <point x="286" y="1444" type="curve"/>
      <point x="301" y="1413"/>
      <point x="338" y="1388"/>
      <point x="386" y="1388" type="curve" smooth="yes"/>
      <point x="485" y="1388"/>
      <point x="528" y="1470"/>
      <point x="528" y="1564" type="curve" smooth="yes"/>
      <point x="528" y="1629"/>
      <point x="515" y="1685"/>
      <point x="492" y="1733" type="curve"/>
      <point x="462" y="1730"/>
      <point x="416" y="1714"/>
      <point x="392" y="1692" type="curve"/>
      <point x="408" y="1665"/>
      <point x="422" y="1612"/>
      <point x="422" y="1556" type="curve" smooth="yes"/>
      <point x="422" y="1518"/>
      <point x="412" y="1487"/>
      <point x="382" y="1487" type="curve" smooth="yes"/>
      <point x="350" y="1487"/>
      <point x="325" y="1544"/>
      <point x="325" y="1680" type="curve"/>
      <point x="289" y="1680"/>
      <point x="245" y="1669"/>
      <point x="227" y="1660" type="curve"/>
      <point x="228" y="1512"/>
      <point x="193" y="1443"/>
      <point x="159" y="1443" type="curve" smooth="yes"/>
      <point x="134" y="1443"/>
      <point x="122" y="1466"/>
      <point x="122" y="1497" type="curve" smooth="yes"/>
      <point x="122" y="1546"/>
      <point x="135" y="1589"/>
      <point x="149" y="1629" type="curve"/>
      <point x="141" y="1631"/>
      <point x="127" y="1633"/>
      <point x="111" y="1633" type="curve" smooth="yes"/>
      <point x="88" y="1633"/>
      <point x="62" y="1630"/>
      <point x="46" y="1625" type="curve"/>
      <point x="28" y="1581"/>
      <point x="19" y="1536"/>
      <point x="19" y="1482" type="curve" smooth="yes"/>
      <point x="19" y="1402"/>
      <point x="57" y="1341"/>
    </contour>
  </outline>
</glyph>
<glyph name="vinvertedabove-ar" format="2">
  <unicode hex="065B"/>
  <anchor x="-3" y="1001" name="_diaA"/>
  <anchor x="1" y="1385" name="diaA"/>
  <outline>
    <contour>
      <point x="-179" y="987" type="curve"/>
      <point x="-146" y="1032"/>
      <point x="-55" y="1147"/>
      <point x="-2" y="1195" type="curve"/>
      <point x="53" y="1157"/>
      <point x="150" y="1056"/>
      <point x="211" y="988" type="curve"/>
      <point x="220" y="988"/>
      <point x="262" y="1067"/>
      <point x="267" y="1117" type="curve"/>
      <point x="223" y="1165"/>
      <point x="46" y="1341"/>
      <point x="13" y="1341" type="curve" smooth="yes"/>
      <point x="-26" y="1341"/>
      <point x="-175" y="1173"/>
      <point x="-238" y="1083" type="curve"/>
      <point x="-226" y="1040"/>
      <point x="-185" y="987"/>
    </contour>
  </outline>
</glyph>
<glyph name="three-ar" format="2">
  <advance width="930"/>
  <unicode hex="0663"/>
  <outline>
    <contour>
      <point x="106" y="-13" type="curve"/>
      <point x="137" y="-13"/>
      <point x="247" y="-7"/>
      <point x="265" y="22" type="curve"/>
      <point x="277" y="112"/>
      <point x="284" y="240"/>
      <point x="284" y="327" type="curve" smooth="yes"/>
      <point x="284" y="415"/>
      <point x="280" y="491"/>
      <point x="272" y="558" type="curve"/>
      <point x="301" y="534"/>
      <point x="335" y="524"/>
      <point x="361" y="524" type="curve" smooth="yes"/>
      <point x="463" y="524"/>
      <point x="596" y="610"/>
      <point x="596" y="1013" type="curve" smooth="yes"/>
      <point x="596" y="1028"/>
      <point x="595" y="1062"/>
      <point x="595" y="1077" type="curve"/>
      <point x="558" y="1089"/>
      <point x="491" y="1103"/>
      <point x="421" y="1103" type="curve"/>
      <point x="422" y="1072"/>
      <point x="423" y="1014"/>
      <point x="423" y="987" type="curve" smooth="yes"/>
      <point x="423" y="770"/>
      <point x="397" y="710"/>
      <point x="346" y="710" type="curve" smooth="yes"/>
      <point x="305" y="710"/>
      <point x="241" y="766"/>
      <point x="188" y="1089" type="curve"/>
      <point x="188" y="1088"/>
      <point x="187" y="1088"/>
      <point x="187" y="1087" type="curve"/>
      <point x="187" y="1088"/>
      <point x="186" y="1088"/>
      <point x="186" y="1089" type="curve"/>
      <point x="113" y="1076"/>
      <point x="26" y="1003"/>
      <point x="6" y="948" type="curve"/>
      <point x="74" y="716"/>
      <point x="116" y="426"/>
      <point x="116" y="200" type="curve" smooth="yes"/>
      <point x="116" y="125"/>
      <point x="113" y="52"/>
    </contour>
    <contour>
      <point x="632" y="524" type="curve" smooth="yes"/>
      <point x="754" y="524"/>
      <point x="896" y="630"/>
      <point x="896" y="1002" type="curve" smooth="yes"/>
      <point x="896" y="1015"/>
      <point x="895" y="1048"/>
      <point x="895" y="1061" type="curve"/>
      <point x="849" y="1073"/>
      <point x="786" y="1086"/>
      <point x="722" y="1085" type="curve"/>
      <point x="719" y="774"/>
      <point x="671" y="705"/>
      <point x="628" y="705" type="curve" smooth="yes"/>
      <point x="586" y="705"/>
      <point x="540" y="735"/>
      <point x="540" y="917" type="curve" smooth="yes"/>
      <point x="540" y="933"/>
      <point x="541" y="950"/>
      <point x="542" y="968" type="curve" smooth="yes"/>
      <point x="543" y="983"/>
      <point x="543" y="999"/>
      <point x="545" y="1016" type="curve"/>
      <point x="542" y="1017"/>
      <point x="539" y="1030"/>
      <point x="535" y="1030" type="curve"/>
      <point x="468" y="615" type="line"/>
      <point x="506" y="557"/>
      <point x="585" y="524"/>
    </contour>
  </outline>
</glyph>
<glyph name="four-ar" format="2">
  <advance width="930"/>
  <unicode hex="0664"/>
  <outline>
    <contour>
      <point x="682" y="-6" type="curve"/>
      <point x="737" y="32"/>
      <point x="769" y="110"/>
      <point x="772" y="175" type="curve"/>
      <point x="514" y="194"/>
      <point x="341" y="264"/>
      <point x="341" y="306" type="curve" smooth="yes"/>
      <point x="341" y="333"/>
      <point x="436" y="456"/>
      <point x="643" y="500" type="curve"/>
      <point x="676" y="550"/>
      <point x="686" y="609"/>
      <point x="686" y="644" type="curve"/>
      <point x="473" y="697"/>
      <point x="374" y="767"/>
      <point x="374" y="794" type="curve" smooth="yes"/>
      <point x="374" y="812"/>
      <point x="461" y="890"/>
      <point x="681" y="907" type="curve"/>
      <point x="716" y="946"/>
      <point x="730" y="1034"/>
      <point x="731" y="1096" type="curve"/>
      <point x="408" y="1081"/>
      <point x="174" y="932"/>
      <point x="174" y="783" type="curve" smooth="yes"/>
      <point x="174" y="713"/>
      <point x="241" y="627"/>
      <point x="466" y="534" type="curve"/>
      <point x="425" y="591" type="line"/>
      <point x="228" y="504"/>
      <point x="130" y="356"/>
      <point x="130" y="287" type="curve" smooth="yes"/>
      <point x="130" y="142"/>
      <point x="380" y="9"/>
    </contour>
  </outline>
</glyph>
<glyph name="seven-ar" format="2">
  <advance width="930"/>
  <unicode hex="0667"/>
  <outline>
    <contour>
      <point x="417" y="-13" type="curve"/>
      <point x="440" y="-13"/>
      <point x="535" y="0"/>
      <point x="553" y="29" type="curve"/>
      <point x="599" y="271"/>
      <point x="765" y="651"/>
      <point x="915" y="920" type="curve"/>
      <point x="927" y="962"/>
      <point x="850" y="1078"/>
      <point x="804" y="1094" type="curve"/>
      <point x="650" y="804"/>
      <point x="534" y="514"/>
      <point x="478" y="341" type="curve"/>
      <point x="406" y="570"/>
      <point x="279" y="858"/>
      <point x="147" y="1104" type="curve"/>
      <point x="80" y="1074"/>
      <point x="18" y="961"/>
      <point x="15" y="912" type="curve"/>
      <point x="144" y="701"/>
      <point x="298" y="396"/>
    </contour>
  </outline>
</glyph>
<glyph name="nine-ar" format="2">
  <advance width="930"/>
  <unicode hex="0669"/>
  <outline>
    <contour>
      <point x="650" y="-13" type="curve"/>
      <point x="708" y="2"/>
      <point x="793" y="55"/>
      <point x="803" y="100" type="curve"/>
      <point x="744" y="237"/>
      <point x="709" y="411"/>
      <point x="708" y="568" type="curve" smooth="yes"/>
      <point x="706" y="846" type="line" smooth="yes"/>
      <point x="705" y="998"/>
      <point x="597" y="1083"/>
      <point x="445" y="1083" type="curve" smooth="yes"/>
      <point x="224" y="1083"/>
      <point x="110" y="909"/>
      <point x="110" y="762" type="curve" smooth="yes"/>
      <point x="110" y="617"/>
      <point x="199" y="476"/>
      <point x="393" y="476" type="curve" smooth="yes"/>
      <point x="470" y="476"/>
      <point x="532" y="494"/>
      <point x="600" y="527" type="curve"/>
      <point x="585" y="704" type="line"/>
      <point x="539" y="678"/>
      <point x="479" y="660"/>
      <point x="425" y="660" type="curve" smooth="yes"/>
      <point x="353" y="660"/>
      <point x="292" y="693"/>
      <point x="292" y="782" type="curve" smooth="yes"/>
      <point x="292" y="869"/>
      <point x="364" y="922"/>
      <point x="430" y="922" type="curve" smooth="yes"/>
      <point x="488" y="922"/>
      <point x="536" y="882"/>
      <point x="536" y="801" type="curve" smooth="yes"/>
      <point x="536" y="561" type="line"/>
      <point x="535" y="544"/>
      <point x="535" y="527"/>
      <point x="535" y="511" type="curve" smooth="yes"/>
      <point x="535" y="339"/>
      <point x="574" y="130"/>
    </contour>
  </outline>
</glyph>
<glyph name="percent-ar" format="2">
  <advance width="1200"/>
  <unicode hex="066A"/>
  <outline>
    <contour>
      <point x="84" y="-29" type="line"/>
      <point x="170" y="-29" type="line"/>
      <point x="1083" y="1417" type="line"/>
      <point x="995" y="1417" type="line"/>
    </contour>
    <contour>
      <point x="903" y="84" type="curve"/>
      <point x="920" y="90"/>
      <point x="967" y="139"/>
      <point x="1030" y="225" type="curve"/>
      <point x="866" y="356" type="line"/>
      <point x="754" y="217" type="line"/>
      <point x="764" y="195"/>
      <point x="821" y="143"/>
    </contour>
    <contour>
      <point x="258" y="1055" type="curve"/>
      <point x="274" y="1061"/>
      <point x="322" y="1110"/>
      <point x="385" y="1196" type="curve"/>
      <point x="221" y="1327" type="line"/>
      <point x="109" y="1188" type="line"/>
      <point x="119" y="1165"/>
      <point x="176" y="1114"/>
    </contour>
  </outline>
</glyph>
<glyph name="qafDotless-ar" format="2">
  <advance width="1393"/>
  <unicode hex="066F"/>
  <anchor x="875" y="861" name="above"/>
  <anchor x="446" y="805" name="alef"/>
  <anchor x="677" y="-372" name="below"/>
  <anchor x="879" y="896" name="diaA"/>
  <anchor x="664" y="-376" name="diaB"/>
  <outline>
    <contour>
      <point x="654" y="-299" type="curve" smooth="yes"/>
      <point x="972" y="-299"/>
      <point x="1269" y="-68"/>
      <point x="1269" y="294" type="curve"/>
      <point x="1315" y="308" type="line"/>
      <point x="1325" y="347"/>
      <point x="1328" y="379"/>
      <point x="1328" y="397" type="curve" smooth="yes"/>
      <point x="1328" y="427"/>
      <point x="1324" y="468"/>
      <point x="1316" y="487" type="curve"/>
      <point x="1263" y="471" type="line"/>
      <point x="1228" y="670"/>
      <point x="1112" y="801"/>
      <point x="932" y="801" type="curve" smooth="yes"/>
      <point x="751" y="801"/>
      <point x="631" y="662"/>
      <point x="631" y="516" type="curve" smooth="yes"/>
      <point x="631" y="383"/>
      <point x="714" y="227"/>
      <point x="934" y="227" type="curve" smooth="yes"/>
      <point x="985" y="227"/>
      <point x="1055" y="235"/>
      <point x="1095" y="254" type="curve"/>
      <point x="1072" y="-1"/>
      <point x="873" y="-125"/>
      <point x="672" y="-125" type="curve" smooth="yes"/>
      <point x="454" y="-125"/>
      <point x="235" y="20"/>
      <point x="235" y="301" type="curve" smooth="yes"/>
      <point x="235" y="441"/>
      <point x="288" y="593"/>
      <point x="389" y="714" type="curve"/>
      <point x="370" y="744"/>
      <point x="337" y="774"/>
      <point x="308" y="784" type="curve"/>
      <point x="143" y="630"/>
      <point x="65" y="439"/>
      <point x="65" y="260" type="curve" smooth="yes"/>
      <point x="65" y="-36"/>
      <point x="278" y="-299"/>
    </contour>
    <contour>
      <point x="953" y="397" type="curve" smooth="yes"/>
      <point x="845" y="397"/>
      <point x="805" y="468"/>
      <point x="805" y="521" type="curve" smooth="yes"/>
      <point x="805" y="588"/>
      <point x="858" y="636"/>
      <point x="923" y="636" type="curve" smooth="yes"/>
      <point x="1021" y="636"/>
      <point x="1084" y="537"/>
      <point x="1093" y="418" type="curve"/>
      <point x="1047" y="401"/>
      <point x="998" y="397"/>
    </contour>
  </outline>
</glyph>
<glyph name="jeemabove-ar" format="2">
  <unicode hex="06DA"/>
  <anchor x="14" y="1005" name="_diaA"/>
  <anchor x="0" y="1778" name="diaA"/>
  <outline>
    <contour>
      <point x="51" y="1041" type="curve" smooth="yes"/>
      <point x="82" y="1041"/>
      <point x="109" y="1043"/>
      <point x="129" y="1046" type="curve"/>
      <point x="151" y="1070"/>
      <point x="164" y="1111"/>
      <point x="165" y="1147" type="curve"/>
      <point x="130" y="1143"/>
      <point x="102" y="1142"/>
      <point x="67" y="1142" type="curve" smooth="yes"/>
      <point x="-54" y="1142"/>
      <point x="-114" y="1221"/>
      <point x="-114" y="1295" type="curve" smooth="yes"/>
      <point x="-114" y="1376"/>
      <point x="-40" y="1453"/>
      <point x="64" y="1453" type="curve" smooth="yes"/>
      <point x="142" y="1453"/>
      <point x="181" y="1436"/>
      <point x="223" y="1426" type="curve"/>
      <point x="242" y="1440"/>
      <point x="270" y="1479"/>
      <point x="278" y="1497" type="curve"/>
      <point x="159" y="1610"/>
      <point x="91" y="1735"/>
      <point x="-1" y="1735" type="curve" smooth="yes"/>
      <point x="-66" y="1735"/>
      <point x="-121" y="1688"/>
      <point x="-181" y="1613" type="curve"/>
      <point x="-176" y="1608"/>
      <point x="-160" y="1590"/>
      <point x="-145" y="1580" type="curve"/>
      <point x="-101" y="1605"/>
      <point x="-69" y="1620"/>
      <point x="-37" y="1620" type="curve" smooth="yes"/>
      <point x="9" y="1620"/>
      <point x="54" y="1590"/>
      <point x="113" y="1539" type="curve"/>
      <point x="100" y="1541"/>
      <point x="86" y="1541"/>
      <point x="67" y="1541" type="curve" smooth="yes"/>
      <point x="-128" y="1536"/>
      <point x="-215" y="1405"/>
      <point x="-215" y="1282" type="curve" smooth="yes"/>
      <point x="-215" y="1154"/>
      <point x="-122" y="1041"/>
    </contour>
    <contour>
      <point x="41" y="1219" type="curve"/>
      <point x="49" y="1221"/>
      <point x="71" y="1244"/>
      <point x="116" y="1301" type="curve"/>
      <point x="28" y="1372" type="line"/>
      <point x="-40" y="1292" type="line"/>
      <point x="-35" y="1281"/>
      <point x="2" y="1247"/>
    </contour>
  </outline>
</glyph>
<glyph name="threedotsabove-ar" format="2">
  <unicode hex="06DB"/>
  <anchor x="8" y="1293" name="_diaA"/>
  <anchor x="-20" y="1569" name="diaA"/>
  <outline>
    <contour>
      <point x="-38" y="1302" type="curve"/>
      <point x="-32" y="1305"/>
      <point x="-4" y="1333"/>
      <point x="20" y="1366" type="curve"/>
      <point x="-52" y="1425" type="line"/>
      <point x="-105" y="1363" type="line"/>
      <point x="-101" y="1354"/>
      <point x="-69" y="1325"/>
    </contour>
    <contour>
      <point x="54" y="1310" type="curve"/>
      <point x="61" y="1312"/>
      <point x="88" y="1341"/>
      <point x="112" y="1373" type="curve"/>
      <point x="41" y="1433" type="line"/>
      <point x="-12" y="1370" type="line"/>
      <point x="-8" y="1362"/>
      <point x="24" y="1333"/>
    </contour>
    <contour>
      <point x="-6" y="1415" type="curve"/>
      <point x="0" y="1417"/>
      <point x="28" y="1446"/>
      <point x="52" y="1478" type="curve"/>
      <point x="-20" y="1538" type="line"/>
      <point x="-72" y="1475" type="line"/>
      <point x="-68" y="1466"/>
      <point x="-37" y="1437"/>
    </contour>
  </outline>
</glyph>
<glyph name="hizb-ar" format="2">
  <advance width="2363"/>
  <unicode hex="06DE"/>
  <outline>
    <contour>
      <point x="1179" y="-576" type="curve"/>
      <point x="1347" y="-402"/>
      <point x="1441" y="-231"/>
      <point x="1457" y="-78" type="curve"/>
      <point x="1575" y="-175"/>
      <point x="1764" y="-229"/>
      <point x="2004" y="-233" type="curve"/>
      <point x="1999" y="9"/>
      <point x="1944" y="195"/>
      <point x="1846" y="311" type="curve"/>
      <point x="1998" y="328"/>
      <point x="2170" y="422"/>
      <point x="2343" y="589" type="curve"/>
      <point x="2169" y="755"/>
      <point x="1999" y="849"/>
      <point x="1847" y="862" type="curve"/>
      <point x="1943" y="982"/>
      <point x="1997" y="1169"/>
      <point x="2001" y="1408" type="curve"/>
      <point x="1760" y="1402"/>
      <point x="1573" y="1348"/>
      <point x="1457" y="1250" type="curve"/>
      <point x="1441" y="1402"/>
      <point x="1346" y="1574"/>
      <point x="1179" y="1747" type="curve"/>
      <point x="1013" y="1573"/>
      <point x="918" y="1403"/>
      <point x="906" y="1252" type="curve"/>
      <point x="789" y="1349"/>
      <point x="603" y="1403"/>
      <point x="363" y="1408" type="curve"/>
      <point x="367" y="1169"/>
      <point x="421" y="981"/>
      <point x="517" y="862" type="curve"/>
      <point x="365" y="850"/>
      <point x="194" y="755"/>
      <point x="20" y="589" type="curve"/>
      <point x="194" y="422"/>
      <point x="365" y="327"/>
      <point x="517" y="311" type="curve"/>
      <point x="419" y="195"/>
      <point x="365" y="9"/>
      <point x="359" y="-234" type="curve"/>
      <point x="599" y="-230"/>
      <point x="786" y="-176"/>
      <point x="906" y="-80" type="curve"/>
      <point x="918" y="-231"/>
      <point x="1012" y="-402"/>
    </contour>
    <contour>
      <point x="509" y="-84" type="curve"/>
      <point x="507" y="63"/>
      <point x="562" y="179"/>
      <point x="644" y="261" type="curve" smooth="yes"/>
      <point x="727" y="344"/>
      <point x="837" y="391"/>
      <point x="941" y="393" type="curve"/>
      <point x="991" y="343" type="line"/>
      <point x="988" y="241"/>
      <point x="943" y="135"/>
      <point x="861" y="53" type="curve" smooth="yes"/>
      <point x="779" y="-29"/>
      <point x="659" y="-86"/>
    </contour>
    <contour>
      <point x="605" y="11" type="curve"/>
      <point x="675" y="6"/>
      <point x="748" y="48"/>
      <point x="805" y="104" type="curve" smooth="yes"/>
      <point x="863" y="161"/>
      <point x="902" y="235"/>
      <point x="901" y="290" type="curve"/>
      <point x="887" y="304" type="line"/>
      <point x="831" y="305"/>
      <point x="754" y="265"/>
      <point x="695" y="206" type="curve" smooth="yes"/>
      <point x="640" y="151"/>
      <point x="600" y="79"/>
    </contour>
    <contour>
      <point x="1179" y="-363" type="curve"/>
      <point x="1074" y="-261"/>
      <point x="1031" y="-140"/>
      <point x="1031" y="-24" type="curve" smooth="yes"/>
      <point x="1031" y="94"/>
      <point x="1076" y="204"/>
      <point x="1147" y="279" type="curve"/>
      <point x="1218" y="279" type="line"/>
      <point x="1288" y="205"/>
      <point x="1331" y="98"/>
      <point x="1331" y="-17" type="curve" smooth="yes"/>
      <point x="1331" y="-134"/>
      <point x="1286" y="-259"/>
    </contour>
    <contour>
      <point x="579" y="436" type="curve" smooth="yes"/>
      <point x="462" y="436"/>
      <point x="337" y="481"/>
      <point x="233" y="589" type="curve"/>
      <point x="335" y="694"/>
      <point x="456" y="737"/>
      <point x="572" y="737" type="curve" smooth="yes"/>
      <point x="690" y="737"/>
      <point x="800" y="692"/>
      <point x="876" y="620" type="curve"/>
      <point x="876" y="550" type="line"/>
      <point x="801" y="480"/>
      <point x="694" y="436"/>
    </contour>
    <contour>
      <point x="573" y="512" type="curve" smooth="yes"/>
      <point x="654" y="512"/>
      <point x="734" y="536"/>
      <point x="772" y="576" type="curve"/>
      <point x="772" y="595" type="line"/>
      <point x="734" y="636"/>
      <point x="651" y="662"/>
      <point x="568" y="662" type="curve" smooth="yes"/>
      <point x="489" y="662"/>
      <point x="411" y="639"/>
      <point x="366" y="588" type="curve"/>
      <point x="411" y="535"/>
      <point x="493" y="512"/>
    </contour>
    <contour>
      <point x="1180" y="-228" type="curve"/>
      <point x="1233" y="-183"/>
      <point x="1256" y="-101"/>
      <point x="1256" y="-21" type="curve" smooth="yes"/>
      <point x="1256" y="60"/>
      <point x="1232" y="140"/>
      <point x="1191" y="178" type="curve"/>
      <point x="1172" y="178" type="line"/>
      <point x="1132" y="139"/>
      <point x="1106" y="56"/>
      <point x="1106" y="-27" type="curve" smooth="yes"/>
      <point x="1106" y="-105"/>
      <point x="1128" y="-184"/>
    </contour>
    <contour>
      <point x="1181" y="168" type="curve" smooth="yes"/>
      <point x="951" y="168"/>
      <point x="763" y="354"/>
      <point x="763" y="586" type="curve" smooth="yes"/>
      <point x="763" y="816"/>
      <point x="951" y="1004"/>
      <point x="1181" y="1004" type="curve" smooth="yes"/>
      <point x="1411" y="1004"/>
      <point x="1599" y="816"/>
      <point x="1599" y="586" type="curve" smooth="yes"/>
      <point x="1599" y="356"/>
      <point x="1411" y="168"/>
    </contour>
    <contour>
      <point x="1181" y="275" type="curve" smooth="yes"/>
      <point x="1353" y="275"/>
      <point x="1492" y="414"/>
      <point x="1492" y="586" type="curve" smooth="yes"/>
      <point x="1492" y="758"/>
      <point x="1353" y="897"/>
      <point x="1181" y="897" type="curve" smooth="yes"/>
      <point x="1009" y="897"/>
      <point x="870" y="758"/>
      <point x="870" y="586" type="curve" smooth="yes"/>
      <point x="870" y="414"/>
      <point x="1009" y="275"/>
    </contour>
    <contour>
      <point x="1181" y="485" type="curve" smooth="yes"/>
      <point x="1125" y="485"/>
      <point x="1080" y="530"/>
      <point x="1080" y="586" type="curve" smooth="yes"/>
      <point x="1080" y="642"/>
      <point x="1125" y="687"/>
      <point x="1181" y="687" type="curve" smooth="yes"/>
      <point x="1237" y="687"/>
      <point x="1282" y="642"/>
      <point x="1282" y="586" type="curve" smooth="yes"/>
      <point x="1282" y="530"/>
      <point x="1237" y="485"/>
    </contour>
    <contour>
      <point x="940" y="776" type="line"/>
      <point x="838" y="780"/>
      <point x="731" y="825"/>
      <point x="650" y="906" type="curve" smooth="yes"/>
      <point x="567" y="989"/>
      <point x="511" y="1109"/>
      <point x="513" y="1259" type="curve"/>
      <point x="659" y="1261"/>
      <point x="776" y="1205"/>
      <point x="858" y="1124" type="curve" smooth="yes"/>
      <point x="942" y="1042"/>
      <point x="987" y="931"/>
      <point x="990" y="826" type="curve"/>
    </contour>
    <contour>
      <point x="1855" y="-83" type="curve"/>
      <point x="1705" y="-85"/>
      <point x="1585" y="-29"/>
      <point x="1502" y="54" type="curve" smooth="yes"/>
      <point x="1421" y="135"/>
      <point x="1376" y="242"/>
      <point x="1373" y="344" type="curve"/>
      <point x="1423" y="394" type="line"/>
      <point x="1527" y="391"/>
      <point x="1637" y="345"/>
      <point x="1720" y="262" type="curve" smooth="yes"/>
      <point x="1802" y="180"/>
      <point x="1857" y="63"/>
    </contour>
    <contour>
      <point x="1758" y="12" type="curve"/>
      <point x="1764" y="80"/>
      <point x="1724" y="151"/>
      <point x="1668" y="207" type="curve" smooth="yes"/>
      <point x="1610" y="265"/>
      <point x="1533" y="306"/>
      <point x="1477" y="305" type="curve"/>
      <point x="1463" y="291" type="line"/>
      <point x="1461" y="235"/>
      <point x="1500" y="161"/>
      <point x="1558" y="104" type="curve" smooth="yes"/>
      <point x="1615" y="48"/>
      <point x="1689" y="6"/>
    </contour>
    <contour>
      <point x="886" y="868" type="curve"/>
      <point x="899" y="882" type="line"/>
      <point x="901" y="938"/>
      <point x="861" y="1016"/>
      <point x="802" y="1074" type="curve" smooth="yes"/>
      <point x="746" y="1129"/>
      <point x="675" y="1169"/>
      <point x="607" y="1163" type="curve"/>
      <point x="601" y="1094"/>
      <point x="643" y="1020"/>
      <point x="699" y="964" type="curve" smooth="yes"/>
      <point x="757" y="906"/>
      <point x="830" y="866"/>
    </contour>
    <contour>
      <point x="1172" y="993" type="curve"/>
      <point x="1191" y="993" type="line"/>
      <point x="1232" y="1031"/>
      <point x="1256" y="1111"/>
      <point x="1256" y="1192" type="curve" smooth="yes"/>
      <point x="1256" y="1272"/>
      <point x="1233" y="1354"/>
      <point x="1180" y="1399" type="curve"/>
      <point x="1128" y="1355"/>
      <point x="1106" y="1276"/>
      <point x="1106" y="1198" type="curve" smooth="yes"/>
      <point x="1106" y="1115"/>
      <point x="1132" y="1032"/>
    </contour>
    <contour>
      <point x="1788" y="512" type="curve" smooth="yes"/>
      <point x="1868" y="512"/>
      <point x="1950" y="535"/>
      <point x="1995" y="588" type="curve"/>
      <point x="1951" y="639"/>
      <point x="1872" y="662"/>
      <point x="1794" y="662" type="curve" smooth="yes"/>
      <point x="1711" y="662"/>
      <point x="1628" y="636"/>
      <point x="1589" y="595" type="curve"/>
      <point x="1589" y="576" type="line"/>
      <point x="1627" y="536"/>
      <point x="1707" y="512"/>
    </contour>
    <contour>
      <point x="1147" y="892" type="line"/>
      <point x="1076" y="967"/>
      <point x="1031" y="1077"/>
      <point x="1031" y="1195" type="curve" smooth="yes"/>
      <point x="1031" y="1311"/>
      <point x="1074" y="1432"/>
      <point x="1179" y="1534" type="curve"/>
      <point x="1286" y="1430"/>
      <point x="1331" y="1305"/>
      <point x="1331" y="1188" type="curve" smooth="yes"/>
      <point x="1331" y="1073"/>
      <point x="1288" y="966"/>
      <point x="1218" y="892" type="curve"/>
    </contour>
    <contour>
      <point x="1784" y="436" type="curve" smooth="yes"/>
      <point x="1669" y="436"/>
      <point x="1562" y="480"/>
      <point x="1488" y="550" type="curve"/>
      <point x="1488" y="620" type="line"/>
      <point x="1563" y="692"/>
      <point x="1673" y="737"/>
      <point x="1791" y="737" type="curve" smooth="yes"/>
      <point x="1907" y="737"/>
      <point x="2028" y="694"/>
      <point x="2130" y="589" type="curve"/>
      <point x="2026" y="481"/>
      <point x="1901" y="436"/>
    </contour>
    <contour>
      <point x="1424" y="776" type="curve"/>
      <point x="1374" y="826" type="line"/>
      <point x="1376" y="930"/>
      <point x="1423" y="1040"/>
      <point x="1506" y="1123" type="curve" smooth="yes"/>
      <point x="1588" y="1205"/>
      <point x="1704" y="1260"/>
      <point x="1851" y="1258" type="curve"/>
      <point x="1853" y="1108"/>
      <point x="1796" y="988"/>
      <point x="1714" y="906" type="curve" smooth="yes"/>
      <point x="1632" y="824"/>
      <point x="1526" y="779"/>
    </contour>
    <contour>
      <point x="1477" y="866" type="line"/>
      <point x="1532" y="865"/>
      <point x="1605" y="905"/>
      <point x="1663" y="962" type="curve" smooth="yes"/>
      <point x="1720" y="1018"/>
      <point x="1761" y="1092"/>
      <point x="1756" y="1162" type="curve"/>
      <point x="1688" y="1167"/>
      <point x="1616" y="1127"/>
      <point x="1561" y="1072" type="curve" smooth="yes"/>
      <point x="1502" y="1013"/>
      <point x="1462" y="936"/>
      <point x="1463" y="880" type="curve"/>
    </contour>
  </outline>
</glyph>
<glyph name="meemStopabove-ar" format="2">
  <unicode hex="06E2"/>
  <anchor x="209" y="1167" name="_diaA"/>
  <anchor x="110" y="1807" name="diaA"/>
  <outline>
    <contour>
      <point x="-178" y="1092" type="curve"/>
      <point x="-71" y="1123"/>
      <point x="39" y="1224"/>
      <point x="39" y="1398" type="curve" smooth="yes"/>
      <point x="39" y="1429"/>
      <point x="37" y="1460"/>
      <point x="37" y="1490" type="curve" smooth="yes"/>
      <point x="37" y="1572"/>
      <point x="61" y="1610"/>
      <point x="114" y="1610" type="curve" smooth="yes"/>
      <point x="156" y="1610"/>
      <point x="181" y="1572"/>
      <point x="181" y="1536" type="curve" smooth="yes"/>
      <point x="181" y="1505"/>
      <point x="163" y="1477"/>
      <point x="123" y="1477" type="curve" smooth="yes"/>
      <point x="74" y="1477"/>
      <point x="33" y="1508"/>
      <point x="17" y="1562" type="curve"/>
      <point x="-19" y="1456" type="line"/>
      <point x="15" y="1401"/>
      <point x="73" y="1375"/>
      <point x="130" y="1375" type="curve" smooth="yes"/>
      <point x="208" y="1375"/>
      <point x="283" y="1426"/>
      <point x="283" y="1533" type="curve" smooth="yes"/>
      <point x="283" y="1633"/>
      <point x="213" y="1712"/>
      <point x="115" y="1712" type="curve" smooth="yes"/>
      <point x="52" y="1712"/>
      <point x="3" y="1687"/>
      <point x="-25" y="1646" type="curve" smooth="yes"/>
      <point x="-57" y="1600"/>
      <point x="-68" y="1545"/>
      <point x="-68" y="1433" type="curve" smooth="yes"/>
      <point x="-68" y="1285"/>
      <point x="-96" y="1231"/>
      <point x="-224" y="1187" type="curve"/>
      <point x="-220" y="1154"/>
      <point x="-199" y="1105"/>
    </contour>
  </outline>
</glyph>
<glyph name="noonabove-ar" format="2">
  <unicode hex="06E8"/>
  <anchor x="-5" y="1191" name="_diaA"/>
  <anchor x="-99" y="1843" name="alef"/>
  <anchor x="-1" y="1896" name="diaA"/>
  <outline>
    <component base="_dot1" xScale="0.56448" yScale="0.56448" xOffset="4" yOffset="1791"/>
    <contour>
      <point x="-3" y="1216" type="curve" smooth="yes"/>
      <point x="181" y="1216"/>
      <point x="273" y="1346"/>
      <point x="273" y="1511" type="curve" smooth="yes"/>
      <point x="273" y="1583"/>
      <point x="251" y="1661"/>
      <point x="207" y="1731" type="curve"/>
      <point x="190" y="1730"/>
      <point x="155" y="1715"/>
      <point x="141" y="1704" type="curve"/>
      <point x="169" y="1636"/>
      <point x="185" y="1575"/>
      <point x="185" y="1514" type="curve" smooth="yes"/>
      <point x="185" y="1402"/>
      <point x="128" y="1309"/>
      <point x="2" y="1309" type="curve" smooth="yes"/>
      <point x="-103" y="1309"/>
      <point x="-168" y="1386"/>
      <point x="-168" y="1477" type="curve" smooth="yes"/>
      <point x="-168" y="1538"/>
      <point x="-140" y="1600"/>
      <point x="-89" y="1654" type="curve"/>
      <point x="-99" y="1670"/>
      <point x="-121" y="1687"/>
      <point x="-145" y="1692" type="curve"/>
      <point x="-222" y="1628"/>
      <point x="-257" y="1538"/>
      <point x="-257" y="1458" type="curve" smooth="yes"/>
      <point x="-257" y="1295"/>
      <point x="-134" y="1216"/>
    </contour>
  </outline>
</glyph>
<glyph name="four-persian" format="2">
  <advance width="930"/>
  <unicode hex="06F4"/>
  <outline>
    <contour>
      <point x="140" y="-13" type="curve"/>
      <point x="171" y="-13"/>
      <point x="261" y="-7"/>
      <point x="279" y="22" type="curve"/>
      <point x="293" y="133"/>
      <point x="300" y="258"/>
      <point x="300" y="344" type="curve" smooth="yes"/>
      <point x="300" y="445"/>
      <point x="296" y="526"/>
      <point x="289" y="604" type="curve"/>
      <point x="366" y="555"/>
      <point x="481" y="504"/>
      <point x="597" y="504" type="curve" smooth="yes"/>
      <point x="668" y="504"/>
      <point x="739" y="515"/>
      <point x="795" y="539" type="curve"/>
      <point x="810" y="576"/>
      <point x="814" y="637"/>
      <point x="814" y="674" type="curve" smooth="yes"/>
      <point x="814" y="698"/>
      <point x="814" y="709"/>
      <point x="813" y="721" type="curve"/>
      <point x="763" y="697"/>
      <point x="687" y="677"/>
      <point x="619" y="677" type="curve" smooth="yes"/>
      <point x="538" y="677"/>
      <point x="469" y="706"/>
      <point x="469" y="793" type="curve" smooth="yes"/>
      <point x="469" y="867"/>
      <point x="521" y="910"/>
      <point x="588" y="910" type="curve" smooth="yes"/>
      <point x="630" y="910"/>
      <point x="678" y="893"/>
      <point x="722" y="854" type="curve"/>
      <point x="770" y="874"/>
      <point x="829" y="936"/>
      <point x="849" y="983" type="curve"/>
      <point x="772" y="1056"/>
      <point x="680" y="1089"/>
      <point x="593" y="1089" type="curve" smooth="yes"/>
      <point x="440" y="1089"/>
      <point x="304" y="985"/>
      <point x="304" y="816" type="curve" smooth="yes"/>
      <point x="304" y="801"/>
      <point x="305" y="781"/>
      <point x="312" y="744" type="curve"/>
      <point x="258" y="775"/>
      <point x="258" y="935"/>
      <point x="202" y="1084" type="curve"/>
      <point x="202" y="1083"/>
      <point x="201" y="1083"/>
      <point x="201" y="1082" type="curve"/>
      <point x="201" y="1083"/>
      <point x="200" y="1083"/>
      <point x="200" y="1084" type="curve"/>
      <point x="127" y="1061"/>
      <point x="60" y="1008"/>
      <point x="40" y="963" type="curve"/>
      <point x="108" y="741"/>
      <point x="150" y="421"/>
      <point x="150" y="200" type="curve" smooth="yes"/>
      <point x="150" y="125"/>
      <point x="147" y="52"/>
    </contour>
  </outline>
</glyph>
<glyph name="kashidaHamza-ar" format="2">
  <advance width="703"/>
  <unicode hex="0883"/>
  <anchor x="305" y="529" name="diaA"/>
  <anchor x="352" y="-330" name="diaB"/>
  <outline>
    <component base="hamza-ar" xOffset="-79" yOffset="-17"/>
    <contour>
      <point x="-20" y="-10" type="line"/>
      <point x="723" y="-10" type="line"/>
      <point x="723" y="165" type="line"/>
      <point x="-20" y="165" type="line"/>
    </contour>
  </outline>
</glyph>
<glyph name="kashidaWaw-ar" format="2">
  <advance width="721"/>
  <unicode hex="0884"/>
  <anchor x="357" y="752" name="diaA"/>
  <anchor x="265" y="-615" name="diaB"/>
  <outline>
    <contour>
      <point x="-20" y="-10" type="line"/>
      <point x="741" y="-10" type="line"/>
      <point x="741" y="165" type="line"/>
      <point x="-20" y="165" type="line"/>
    </contour>
    <contour>
      <point x="357" y="652" type="curve" smooth="yes"/>
      <point x="160" y="652"/>
      <point x="41" y="490"/>
      <point x="41" y="345" type="curve" smooth="yes"/>
      <point x="41" y="133"/>
      <point x="188" y="40"/>
      <point x="375" y="40" type="curve" smooth="yes"/>
      <point x="544" y="40"/>
      <point x="613" y="74"/>
      <point x="674" y="106" type="curve"/>
      <point x="688" y="169"/>
      <point x="685" y="231"/>
      <point x="669" y="294" type="curve"/>
      <point x="584" y="239"/>
      <point x="524" y="213"/>
      <point x="384" y="213" type="curve" smooth="yes"/>
      <point x="289" y="213"/>
      <point x="217" y="251"/>
      <point x="217" y="347" type="curve" smooth="yes"/>
      <point x="217" y="411"/>
      <point x="265" y="476"/>
      <point x="353" y="476" type="curve" smooth="yes"/>
      <point x="473" y="476"/>
      <point x="533" y="372"/>
      <point x="533" y="193" type="curve" smooth="yes"/>
      <point x="533" y="-136"/>
      <point x="293" y="-348"/>
      <point x="-80" y="-433" type="curve"/>
      <point x="-78" y="-484"/>
      <point x="-36" y="-581"/>
      <point x="15" y="-606" type="curve"/>
      <point x="440" y="-499"/>
      <point x="709" y="-143"/>
      <point x="709" y="189" type="curve" smooth="yes"/>
      <point x="709" y="490"/>
      <point x="571" y="652"/>
    </contour>
  </outline>
</glyph>
<glyph name="yehthin-ar" format="2">
  <advance width="1425"/>
  <unicode hex="0886"/>
  <anchor x="423" y="602" name="alef"/>
  <anchor x="975" y="760" name="diaA"/>
  <anchor x="677" y="-749" name="diaB"/>
  <outline>
    <component base="_dot2h" xScale="0.65" yScale="0.65" xOffset="669" yOffset="-486"/>
    <contour>
      <point x="703" y="-323" type="curve" smooth="yes"/>
      <point x="1074" y="-323"/>
      <point x="1296" y="-133"/>
      <point x="1296" y="62" type="curve" smooth="yes"/>
      <point x="1296" y="285"/>
      <point x="836" y="213"/>
      <point x="836" y="359" type="curve" smooth="yes"/>
      <point x="836" y="454"/>
      <point x="1015" y="598"/>
      <point x="1169" y="598" type="curve" smooth="yes"/>
      <point x="1206" y="598"/>
      <point x="1236" y="592"/>
      <point x="1270" y="579" type="curve"/>
      <point x="1313" y="621"/>
      <point x="1335" y="634"/>
      <point x="1340" y="678" type="curve"/>
      <point x="1298" y="717"/>
      <point x="1239" y="726"/>
      <point x="1192" y="726" type="curve" smooth="yes"/>
      <point x="1004" y="726"/>
      <point x="730" y="551"/>
      <point x="730" y="335" type="curve" smooth="yes"/>
      <point x="730" y="101"/>
      <point x="1190" y="149"/>
      <point x="1190" y="44" type="curve" smooth="yes"/>
      <point x="1190" y="-27"/>
      <point x="1044" y="-220"/>
      <point x="726" y="-220" type="curve" smooth="yes"/>
      <point x="372" y="-220"/>
      <point x="175" y="-92"/>
      <point x="175" y="144" type="curve" smooth="yes"/>
      <point x="175" y="264"/>
      <point x="287" y="412"/>
      <point x="419" y="516" type="curve"/>
      <point x="403" y="543"/>
      <point x="394" y="554"/>
      <point x="363" y="562" type="curve"/>
      <point x="144" y="397"/>
      <point x="85" y="244"/>
      <point x="85" y="104" type="curve" smooth="yes"/>
      <point x="85" y="-140"/>
      <point x="284" y="-323"/>
    </contour>
  </outline>
</glyph>
<glyph name="pepet-ar" format="2">
  <unicode hex="0897"/>
  <anchor x="0" y="1091" name="_diaA"/>
  <anchor x="0" y="1543" name="diaA"/>
  <outline>
    <contour>
      <point x="-113" y="1288" type="curve"/>
      <point x="-70" y="1228"/>
      <point x="16" y="1143"/>
      <point x="44" y="1143" type="curve" smooth="yes"/>
      <point x="75" y="1143"/>
      <point x="229" y="1253"/>
      <point x="306" y="1343" type="curve"/>
      <point x="306" y="1394"/>
      <point x="274" y="1440"/>
      <point x="260" y="1442" type="curve"/>
      <point x="227" y="1397"/>
      <point x="124" y="1310"/>
      <point x="67" y="1274" type="curve"/>
      <point x="12" y="1312"/>
      <point x="-18" y="1364"/>
      <point x="-74" y="1446" type="curve"/>
      <point x="-103" y="1446"/>
      <point x="-262" y="1318"/>
      <point x="-345" y="1228" type="curve"/>
      <point x="-345" y="1180"/>
      <point x="-307" y="1123"/>
      <point x="-301" y="1123" type="curve"/>
      <point x="-263" y="1167"/>
      <point x="-169" y="1253"/>
    </contour>
  </outline>
</glyph>
<glyph name="maddadoubled-ar" format="2">
  <unicode hex="089E"/>
  <anchor x="209" y="1283" name="_diaA"/>
  <anchor x="196" y="1691" name="diaA"/>
  <outline>
    <component base="_madda" xOffset="114" yOffset="1390"/>
    <contour>
      <point x="-94" y="1541" type="curve"/>
      <point x="-74" y="1566"/>
      <point x="-47" y="1586"/>
      <point x="-11" y="1586" type="curve" smooth="yes"/>
      <point x="92" y="1586"/>
      <point x="218" y="1547"/>
      <point x="319" y="1547" type="curve" smooth="yes"/>
      <point x="419" y="1547"/>
      <point x="466" y="1569"/>
      <point x="485" y="1597" type="curve"/>
      <point x="495" y="1614"/>
      <point x="492" y="1639"/>
      <point x="491" y="1662" type="curve"/>
      <point x="459" y="1633"/>
      <point x="403" y="1607"/>
      <point x="332" y="1607" type="curve" smooth="yes"/>
      <point x="183" y="1607"/>
      <point x="102" y="1649"/>
      <point x="8" y="1649" type="curve" smooth="yes"/>
      <point x="-12" y="1649"/>
      <point x="-31" y="1646"/>
      <point x="-48" y="1640" type="curve" smooth="yes"/>
      <point x="-79" y="1629"/>
      <point x="-97" y="1608"/>
      <point x="-100" y="1595" type="curve" smooth="yes"/>
      <point x="-104" y="1580"/>
      <point x="-103" y="1558"/>
    </contour>
  </outline>
</glyph>
<glyph name="aleflow-ar" format="2">
  <advance width="372"/>
  <unicode hex="08AD"/>
  <anchor x="175" y="257" name="diaA"/>
  <anchor x="156" y="-575" name="diaB"/>
  <outline>
    <contour>
      <point x="104" y="-463" type="curve"/>
      <point x="177" y="-457"/>
      <point x="238" y="-427"/>
      <point x="265" y="-392" type="curve"/>
      <point x="276" y="-180"/>
      <point x="282" y="-99"/>
      <point x="282" y="66" type="curve" smooth="yes"/>
      <point x="282" y="78"/>
      <point x="281" y="165"/>
      <point x="277" y="189" type="curve"/>
      <point x="213" y="182"/>
      <point x="103" y="135"/>
      <point x="80" y="88" type="curve"/>
      <point x="80" y="57"/>
      <point x="106" y="-87"/>
      <point x="106" y="-288" type="curve" smooth="yes"/>
      <point x="106" y="-347"/>
      <point x="105" y="-420"/>
    </contour>
  </outline>
</glyph>
<glyph name="sahabove-ar" format="2">
  <unicode hex="08CC"/>
  <anchor x="146" y="1313" name="_diaA"/>
  <anchor x="136" y="1714" name="diaA"/>
  <outline>
    <contour>
      <point x="-110" y="1412" type="curve" smooth="yes"/>
      <point x="-3" y="1412"/>
      <point x="65" y="1590"/>
      <point x="173" y="1590" type="curve" smooth="yes"/>
      <point x="211" y="1590"/>
      <point x="230" y="1569"/>
      <point x="230" y="1545" type="curve" smooth="yes"/>
      <point x="230" y="1518"/>
      <point x="203" y="1488"/>
      <point x="146" y="1488" type="curve" smooth="yes"/>
      <point x="101" y="1488"/>
      <point x="66" y="1493"/>
      <point x="21" y="1517" type="curve"/>
      <point x="8" y="1527"/>
      <point x="-7" y="1572"/>
      <point x="-16" y="1620" type="curve"/>
      <point x="-42" y="1615"/>
      <point x="-67" y="1600"/>
      <point x="-86" y="1577" type="curve"/>
      <point x="-74" y="1541"/>
      <point x="-54" y="1491"/>
      <point x="-50" y="1469" type="curve"/>
      <point x="32" y="1413"/>
      <point x="93" y="1405"/>
      <point x="141" y="1405" type="curve" smooth="yes"/>
      <point x="255" y="1405"/>
      <point x="317" y="1481"/>
      <point x="317" y="1550" type="curve" smooth="yes"/>
      <point x="317" y="1618"/>
      <point x="267" y="1674"/>
      <point x="179" y="1674" type="curve" smooth="yes"/>
      <point x="24" y="1674"/>
      <point x="-31" y="1497"/>
      <point x="-111" y="1497" type="curve"/>
      <point x="-165" y="1488"/>
      <point x="-198" y="1489"/>
      <point x="-239" y="1453" type="curve" smooth="yes"/>
      <point x="-268" y="1427"/>
      <point x="-294" y="1359"/>
      <point x="-296" y="1313" type="curve"/>
      <point x="-233" y="1385"/>
      <point x="-197" y="1412"/>
    </contour>
  </outline>
</glyph>
<glyph name="wawbelow-ar" format="2">
  <unicode hex="08D3"/>
  <anchor x="19" y="-590" name="_diaB"/>
  <anchor x="-19" y="-1243" name="diaB"/>
  <outline>
    <contour>
      <point x="-169" y="-1252" type="curve"/>
      <point x="59" y="-1188"/>
      <point x="192" y="-1029"/>
      <point x="192" y="-859" type="curve" smooth="yes"/>
      <point x="192" y="-708"/>
      <point x="121" y="-630"/>
      <point x="26" y="-630" type="curve" smooth="yes"/>
      <point x="-74" y="-630"/>
      <point x="-136" y="-706"/>
      <point x="-136" y="-790" type="curve" smooth="yes"/>
      <point x="-136" y="-892"/>
      <point x="-56" y="-939"/>
      <point x="33" y="-939" type="curve" smooth="yes"/>
      <point x="90" y="-939"/>
      <point x="153" y="-920"/>
      <point x="218" y="-875" type="curve"/>
      <point x="221" y="-861"/>
      <point x="222" y="-848"/>
      <point x="222" y="-835" type="curve" smooth="yes"/>
      <point x="222" y="-819"/>
      <point x="221" y="-787"/>
      <point x="219" y="-775" type="curve"/>
      <point x="153" y="-816"/>
      <point x="86" y="-839"/>
      <point x="34" y="-839" type="curve" smooth="yes"/>
      <point x="-13" y="-839"/>
      <point x="-34" y="-810"/>
      <point x="-34" y="-782" type="curve" smooth="yes"/>
      <point x="-34" y="-755"/>
      <point x="-15" y="-729"/>
      <point x="19" y="-729" type="curve" smooth="yes"/>
      <point x="73" y="-729"/>
      <point x="94" y="-785"/>
      <point x="94" y="-857" type="curve" smooth="yes"/>
      <point x="94" y="-1019"/>
      <point x="-12" y="-1104"/>
      <point x="-213" y="-1157" type="curve"/>
      <point x="-208" y="-1183"/>
      <point x="-186" y="-1240"/>
    </contour>
  </outline>
</glyph>
<glyph name="sadabove-ar" format="2">
  <unicode hex="08D5"/>
  <anchor x="-130" y="1039" name="_diaA"/>
  <anchor x="-522" y="1558" name="alef"/>
  <anchor x="0" y="1776" name="diaA"/>
  <outline>
    <contour>
      <point x="236" y="1544" type="curve" smooth="yes"/>
      <point x="236" y="1623"/>
      <point x="180" y="1712"/>
      <point x="58" y="1712" type="curve" smooth="yes"/>
      <point x="-37" y="1712"/>
      <point x="-123" y="1656"/>
      <point x="-201" y="1598" type="curve"/>
      <point x="-203" y="1610"/>
      <point x="-210" y="1629"/>
      <point x="-212" y="1634" type="curve"/>
      <point x="-241" y="1630"/>
      <point x="-287" y="1610"/>
      <point x="-314" y="1590" type="curve"/>
      <point x="-298" y="1514"/>
      <point x="-286" y="1439"/>
      <point x="-286" y="1373" type="curve" smooth="yes"/>
      <point x="-286" y="1256"/>
      <point x="-322" y="1167"/>
      <point x="-434" y="1167" type="curve" smooth="yes"/>
      <point x="-510" y="1167"/>
      <point x="-559" y="1221"/>
      <point x="-559" y="1293" type="curve" smooth="yes"/>
      <point x="-559" y="1332"/>
      <point x="-545" y="1377"/>
      <point x="-522" y="1420" type="curve"/>
      <point x="-530" y="1435"/>
      <point x="-550" y="1455"/>
      <point x="-566" y="1459" type="curve"/>
      <point x="-619" y="1400"/>
      <point x="-647" y="1329"/>
      <point x="-647" y="1264" type="curve" smooth="yes"/>
      <point x="-647" y="1159"/>
      <point x="-575" y="1069"/>
      <point x="-440" y="1069" type="curve" smooth="yes"/>
      <point x="-252" y="1069"/>
      <point x="-185" y="1212"/>
      <point x="-185" y="1401" type="curve"/>
      <point x="-133" y="1379"/>
      <point x="-68" y="1366"/>
      <point x="2" y="1366" type="curve" smooth="yes"/>
      <point x="132" y="1366"/>
      <point x="236" y="1442"/>
    </contour>
    <contour>
      <point x="-10" y="1462" type="curve" smooth="yes"/>
      <point x="-82" y="1462"/>
      <point x="-140" y="1480"/>
      <point x="-186" y="1498" type="curve"/>
      <point x="-134" y="1547"/>
      <point x="-46" y="1617"/>
      <point x="40" y="1617" type="curve" smooth="yes"/>
      <point x="104" y="1617"/>
      <point x="136" y="1583"/>
      <point x="136" y="1543" type="curve" smooth="yes"/>
      <point x="136" y="1493"/>
      <point x="82" y="1462"/>
    </contour>
  </outline>
</glyph>
<glyph name="ainabove-ar" format="2">
  <unicode hex="08D6"/>
  <anchor x="-13" y="1043" name="_diaA"/>
  <anchor x="-155" y="1798" name="alef"/>
  <anchor x="16" y="1826" name="diaA"/>
  <outline>
    <contour>
      <point x="21" y="1066" type="curve" smooth="yes"/>
      <point x="53" y="1066"/>
      <point x="87" y="1070"/>
      <point x="120" y="1077" type="curve"/>
      <point x="142" y="1097"/>
      <point x="156" y="1136"/>
      <point x="156" y="1167" type="curve"/>
      <point x="121" y="1161"/>
      <point x="86" y="1158"/>
      <point x="51" y="1158" type="curve" smooth="yes"/>
      <point x="-66" y="1158"/>
      <point x="-167" y="1201"/>
      <point x="-167" y="1318" type="curve" smooth="yes"/>
      <point x="-167" y="1392"/>
      <point x="-110" y="1464"/>
      <point x="5" y="1464" type="curve" smooth="yes"/>
      <point x="26" y="1464"/>
      <point x="53" y="1461"/>
      <point x="78" y="1455" type="curve"/>
      <point x="95" y="1477"/>
      <point x="112" y="1519"/>
      <point x="112" y="1544" type="curve"/>
      <point x="0" y="1559"/>
      <point x="-55" y="1588"/>
      <point x="-55" y="1643" type="curve" smooth="yes"/>
      <point x="-55" y="1680"/>
      <point x="-24" y="1706"/>
      <point x="20" y="1706" type="curve" smooth="yes"/>
      <point x="62" y="1706"/>
      <point x="89" y="1683"/>
      <point x="121" y="1644" type="curve"/>
      <point x="149" y="1654"/>
      <point x="180" y="1687"/>
      <point x="191" y="1710" type="curve"/>
      <point x="147" y="1773"/>
      <point x="84" y="1798"/>
      <point x="23" y="1798" type="curve" smooth="yes"/>
      <point x="-87" y="1798"/>
      <point x="-157" y="1723"/>
      <point x="-157" y="1643" type="curve" smooth="yes"/>
      <point x="-157" y="1603"/>
      <point x="-139" y="1561"/>
      <point x="-101" y="1533" type="curve"/>
      <point x="-208" y="1493"/>
      <point x="-261" y="1397"/>
      <point x="-261" y="1309" type="curve" smooth="yes"/>
      <point x="-261" y="1151"/>
      <point x="-134" y="1066"/>
    </contour>
  </outline>
</glyph>
<glyph name="noonKasrabelow-ar" format="2">
  <unicode hex="08D9"/>
  <anchor x="-1" y="-204" name="_diaB"/>
  <anchor x="-5" y="-1069" name="diaB"/>
  <outline>
    <component base="_dot1" xScale="0.56448" yScale="0.56448" xOffset="4" yOffset="-309"/>
    <component base="kasrasmall-ar" yOffset="-730"/>
    <contour>
      <point x="-3" y="-884" type="curve" smooth="yes"/>
      <point x="181" y="-884"/>
      <point x="273" y="-754"/>
      <point x="273" y="-589" type="curve" smooth="yes"/>
      <point x="273" y="-517"/>
      <point x="251" y="-439"/>
      <point x="207" y="-369" type="curve"/>
      <point x="190" y="-370"/>
      <point x="155" y="-385"/>
      <point x="141" y="-396" type="curve"/>
      <point x="169" y="-464"/>
      <point x="185" y="-525"/>
      <point x="185" y="-586" type="curve" smooth="yes"/>
      <point x="185" y="-698"/>
      <point x="128" y="-791"/>
      <point x="2" y="-791" type="curve" smooth="yes"/>
      <point x="-103" y="-791"/>
      <point x="-168" y="-714"/>
      <point x="-168" y="-623" type="curve" smooth="yes"/>
      <point x="-168" y="-562"/>
      <point x="-140" y="-500"/>
      <point x="-89" y="-446" type="curve"/>
      <point x="-99" y="-430"/>
      <point x="-121" y="-413"/>
      <point x="-145" y="-408" type="curve"/>
      <point x="-222" y="-472"/>
      <point x="-257" y="-562"/>
      <point x="-257" y="-642" type="curve" smooth="yes"/>
      <point x="-257" y="-805"/>
      <point x="-134" y="-884"/>
    </contour>
  </outline>
</glyph>
<glyph name="footnotemarkerabove-ar" format="2">
  <unicode hex="08E0"/>
  <anchor x="1" y="1108" name="_diaA"/>
  <anchor x="-2" y="1551" name="diaA"/>
  <outline>
    <contour>
      <point x="-8" y="1239" type="curve" smooth="yes"/>
      <point x="153" y="1239"/>
      <point x="263" y="1241"/>
      <point x="356" y="1247" type="curve"/>
      <point x="373" y="1276"/>
      <point x="385" y="1312"/>
      <point x="392" y="1347" type="curve"/>
      <point x="320" y="1339"/>
      <point x="173" y="1335"/>
      <point x="-81" y="1335" type="curve" smooth="yes"/>
      <point x="-235" y="1335"/>
      <point x="-270" y="1368"/>
      <point x="-270" y="1405" type="curve" smooth="yes"/>
      <point x="-270" y="1433"/>
      <point x="-251" y="1447"/>
      <point x="-231" y="1447" type="curve" smooth="yes"/>
      <point x="-211" y="1447"/>
      <point x="-190" y="1431"/>
      <point x="-190" y="1397" type="curve" smooth="yes"/>
      <point x="-190" y="1373"/>
      <point x="-197" y="1344"/>
      <point x="-218" y="1321" type="curve"/>
      <point x="-146" y="1290" type="line"/>
      <point x="-111" y="1322"/>
      <point x="-96" y="1362"/>
      <point x="-96" y="1402" type="curve" smooth="yes"/>
      <point x="-96" y="1473"/>
      <point x="-146" y="1540"/>
      <point x="-229" y="1540" type="curve" smooth="yes"/>
      <point x="-301" y="1540"/>
      <point x="-362" y="1491"/>
      <point x="-362" y="1406" type="curve" smooth="yes"/>
      <point x="-362" y="1277"/>
      <point x="-234" y="1239"/>
    </contour>
  </outline>
</glyph>
<glyph name="dammaCurly-ar" format="2">
  <unicode hex="08E5"/>
  <anchor x="0" y="1295" name="_diaA"/>
  <anchor x="-17" y="1774" name="diaA"/>
  <outline>
    <contour>
      <point x="-72" y="1333" type="curve" smooth="yes"/>
      <point x="49" y="1333"/>
      <point x="163" y="1432"/>
      <point x="163" y="1575" type="curve" smooth="yes"/>
      <point x="163" y="1686"/>
      <point x="90" y="1739"/>
      <point x="18" y="1739" type="curve" smooth="yes"/>
      <point x="-53" y="1739"/>
      <point x="-124" y="1688"/>
      <point x="-124" y="1593" type="curve" smooth="yes"/>
      <point x="-124" y="1502"/>
      <point x="-55" y="1436"/>
      <point x="109" y="1436" type="curve" smooth="yes"/>
      <point x="129" y="1436"/>
      <point x="160" y="1438"/>
      <point x="182" y="1440" type="curve"/>
      <point x="205" y="1457"/>
      <point x="233" y="1504"/>
      <point x="231" y="1537" type="curve"/>
      <point x="199" y="1531"/>
      <point x="146" y="1528"/>
      <point x="119" y="1528" type="curve" smooth="yes"/>
      <point x="8" y="1528"/>
      <point x="-21" y="1565"/>
      <point x="-21" y="1596" type="curve" smooth="yes"/>
      <point x="-21" y="1622"/>
      <point x="-2" y="1639"/>
      <point x="18" y="1639" type="curve" smooth="yes"/>
      <point x="48" y="1639"/>
      <point x="64" y="1609"/>
      <point x="64" y="1572" type="curve" smooth="yes"/>
      <point x="64" y="1505"/>
      <point x="21" y="1424"/>
      <point x="-68" y="1424" type="curve" smooth="yes"/>
      <point x="-123" y="1424"/>
      <point x="-169" y="1470"/>
      <point x="-182" y="1556" type="curve"/>
      <point x="-226" y="1546"/>
      <point x="-252" y="1518"/>
      <point x="-266" y="1486" type="curve"/>
      <point x="-230" y="1369"/>
      <point x="-147" y="1333"/>
    </contour>
  </outline>
</glyph>
<glyph name="toneonedotabove-ar" format="2">
  <unicode hex="08EA"/>
  <anchor x="136" y="1283" name="_diaA"/>
  <anchor x="109" y="1547" name="diaA"/>
  <outline>
    <contour>
      <point x="63" y="1340" type="curve"/>
      <point x="71" y="1340"/>
      <point x="169" y="1340"/>
      <point x="216" y="1355" type="curve"/>
      <point x="211" y="1393"/>
      <point x="205" y="1462"/>
      <point x="202" y="1508" type="curve"/>
      <point x="48" y="1494" type="line"/>
      <point x="48" y="1488"/>
      <point x="50" y="1366"/>
    </contour>
  </outline>
</glyph>
<glyph name="leftarrowheadabove-ar" format="2">
  <unicode hex="08F7"/>
  <anchor x="126" y="1223" name="_diaA"/>
  <anchor x="228" y="1682" name="diaA"/>
  <outline>
    <contour>
      <point x="332" y="1254" type="curve"/>
      <point x="346" y="1276"/>
      <point x="356" y="1318"/>
      <point x="356" y="1353" type="curve"/>
      <point x="254" y="1355"/>
      <point x="106" y="1371"/>
      <point x="71" y="1397" type="curve"/>
      <point x="71" y="1432"/>
      <point x="108" y="1588"/>
      <point x="141" y="1682" type="curve"/>
      <point x="117" y="1690"/>
      <point x="58" y="1690"/>
      <point x="36" y="1679" type="curve"/>
      <point x="5" y="1606"/>
      <point x="-37" y="1391"/>
      <point x="-37" y="1332" type="curve"/>
      <point x="23" y="1278"/>
      <point x="230" y="1254"/>
    </contour>
  </outline>
</glyph>
<glyph name="horizontalbar" format="2">
  <advance width="1500"/>
  <unicode hex="2015"/>
  <outline>
    <contour>
      <point x="60" y="397" type="line"/>
      <point x="1440" y="397" type="line"/>
      <point x="1440" y="547" type="line"/>
      <point x="60" y="547" type="line"/>
    </contour>
  </outline>
</glyph>
<glyph name="quoteright" format="2">
  <advance width="581"/>
  <unicode hex="2019"/>
  <outline>
    <contour>
      <point x="296" y="750" type="line"/>
      <point x="389" y="830"/>
      <point x="468" y="964"/>
      <point x="468" y="1098" type="curve" smooth="yes"/>
      <point x="468" y="1191"/>
      <point x="415" y="1256"/>
      <point x="330" y="1256" type="curve" smooth="yes"/>
      <point x="245" y="1256"/>
      <point x="187" y="1192"/>
      <point x="187" y="1136" type="curve" smooth="yes"/>
      <point x="187" y="1038" type="line"/>
      <point x="307" y="1038" type="line"/>
      <point x="307" y="975"/>
      <point x="266" y="886"/>
      <point x="187" y="802" type="curve"/>
    </contour>
  </outline>
</glyph>
<glyph name="quotedblbase" format="2">
  <advance width="1001"/>
  <unicode hex="201E"/>
  <outline>
    <contour>
      <point x="262" y="-251" type="line"/>
      <point x="355" y="-171"/>
      <point x="435" y="-36"/>
      <point x="435" y="97" type="curve" smooth="yes"/>
      <point x="435" y="190"/>
      <point x="381" y="255"/>
      <point x="296" y="255" type="curve" smooth="yes"/>
      <point x="211" y="255"/>
      <point x="153" y="191"/>
      <point x="153" y="135" type="curve" smooth="yes"/>
      <point x="153" y="37" type="line"/>
      <point x="273" y="37" type="line"/>
      <point x="273" y="-25"/>
      <point x="232" y="-114"/>
      <point x="153" y="-198" type="curve"/>
    </contour>
    <contour>
      <point x="675" y="-251" type="line"/>
      <point x="768" y="-171"/>
      <point x="847" y="-36"/>
      <point x="847" y="97" type="curve" smooth="yes"/>
      <point x="847" y="190"/>
      <point x="794" y="255"/>
      <point x="708" y="255" type="curve" smooth="yes"/>
      <point x="624" y="255"/>
      <point x="566" y="191"/>
      <point x="566" y="135" type="curve" smooth="yes"/>
      <point x="566" y="37" type="line"/>
      <point x="686" y="37" type="line"/>
      <point x="686" y="-25"/>
      <point x="645" y="-114"/>
      <point x="566" y="-198" type="curve"/>
    </contour>
  </outline>
</glyph>
<glyph name="quotedblrightreversed" format="2">
  <advance width="952"/>
  <unicode hex="201F"/>
  <outline>
    <contour>
      <point x="244" y="750" type="curve"/>
      <point x="352" y="802" type="line"/>
      <point x="274" y="886"/>
      <point x="232" y="975"/>
      <point x="232" y="1038" type="curve"/>
      <point x="352" y="1038" type="line"/>
      <point x="352" y="1136" type="line" smooth="yes"/>
      <point x="352" y="1192"/>
      <point x="295" y="1256"/>
      <point x="210" y="1256" type="curve" smooth="yes"/>
      <point x="124" y="1256"/>
      <point x="71" y="1191"/>
      <point x="71" y="1098" type="curve" smooth="yes"/>
      <point x="71" y="964"/>
      <point x="151" y="830"/>
    </contour>
    <contour>
      <point x="656" y="750" type="curve"/>
      <point x="765" y="802" type="line"/>
      <point x="686" y="886"/>
      <point x="645" y="975"/>
      <point x="645" y="1038" type="curve"/>
      <point x="765" y="1038" type="line"/>
      <point x="765" y="1136" type="line" smooth="yes"/>
      <point x="765" y="1192"/>
      <point x="707" y="1256"/>
      <point x="622" y="1256" type="curve" smooth="yes"/>
      <point x="537" y="1256"/>
      <point x="484" y="1191"/>
      <point x="484" y="1098" type="curve" smooth="yes"/>
      <point x="484" y="964"/>
      <point x="563" y="830"/>
    </contour>
  </outline>
</glyph>
<glyph name="guilsinglright" format="2">
  <advance width="552"/>
  <unicode hex="203A"/>
  <outline>
    <contour>
      <point x="113" y="46" type="curve"/>
      <point x="170" y="-10" type="line"/>
      <point x="234" y="37"/>
      <point x="439" y="165"/>
      <point x="439" y="385" type="curve" smooth="yes"/>
      <point x="439" y="607"/>
      <point x="238" y="734"/>
      <point x="170" y="778" type="curve"/>
      <point x="117" y="722" type="line"/>
      <point x="194" y="633"/>
      <point x="243" y="532"/>
      <point x="243" y="385" type="curve" smooth="yes"/>
      <point x="243" y="233"/>
      <point x="194" y="154"/>
    </contour>
  </outline>
</glyph>
<glyph name="Ohm" format="2">
  <advance width="1217"/>
  <unicode hex="2126"/>
  <outline>
    <contour>
      <point x="350" y="122" type="curve"/>
      <point x="468" y="168" type="line"/>
      <point x="363" y="267"/>
      <point x="284" y="410"/>
      <point x="284" y="577" type="curve" smooth="yes"/>
      <point x="284" y="770"/>
      <point x="404" y="930"/>
      <point x="603" y="930" type="curve" smooth="yes"/>
      <point x="806" y="930"/>
      <point x="918" y="787"/>
      <point x="918" y="581" type="curve" smooth="yes"/>
      <point x="918" y="408"/>
      <point x="823" y="259"/>
      <point x="729" y="168" type="curve"/>
      <point x="848" y="122" type="line"/>
      <point x="967" y="210"/>
      <point x="1132" y="369"/>
      <point x="1132" y="607" type="curve" smooth="yes"/>
      <point x="1132" y="936"/>
      <point x="897" y="1113"/>
      <point x="611" y="1113" type="curve" smooth="yes"/>
      <point x="312" y="1113"/>
      <point x="71" y="922"/>
      <point x="71" y="581" type="curve" smooth="yes"/>
      <point x="71" y="372"/>
      <point x="231" y="193"/>
    </contour>
    <contour>
      <point x="45" y="0" type="line"/>
      <point x="468" y="0" type="line"/>
      <point x="468" y="168" type="line"/>
      <point x="321" y="168"/>
      <point x="105" y="169"/>
      <point x="45" y="180" type="curve"/>
    </contour>
    <contour>
      <point x="729" y="0" type="line"/>
      <point x="1153" y="0" type="line"/>
      <point x="1153" y="180" type="line"/>
      <point x="1093" y="169"/>
      <point x="877" y="168"/>
      <point x="729" y="168" type="curve"/>
    </contour>
  </outline>
</glyph>
<glyph name="Delta" format="2">
  <advance width="1076"/>
  <unicode hex="2206"/>
  <outline>
    <contour>
      <point x="45" y="0" type="line"/>
      <point x="1016" y="0" type="line"/>
      <point x="1016" y="108" type="line"/>
      <point x="633" y="1095" type="line"/>
      <point x="427" y="1095" type="line"/>
      <point x="45" y="108" type="line"/>
    </contour>
    <contour>
      <point x="235" y="157" type="line"/>
      <point x="528" y="933" type="line"/>
      <point x="825" y="157" type="line"/>
    </contour>
  </outline>
</glyph>
<glyph name="summation" format="2">
  <advance width="937"/>
  <unicode hex="2211"/>
  <anchor x="442" y="-75" name="L"/>
  <anchor x="442" y="1147" name="U"/>
  <outline>
    <contour>
      <point x="48" y="0" type="line"/>
      <point x="873" y="0" type="line"/>
      <point x="873" y="187" type="line"/>
      <point x="813" y="177"/>
      <point x="694" y="172"/>
      <point x="547" y="172" type="curve" smooth="yes"/>
      <point x="296" y="172" type="line"/>
      <point x="575" y="559" type="line"/>
      <point x="327" y="922" type="line"/>
      <point x="502" y="922" type="line" smooth="yes"/>
      <point x="665" y="922"/>
      <point x="762" y="920"/>
      <point x="828" y="907" type="curve"/>
      <point x="828" y="1095" type="line"/>
      <point x="71" y="1095" type="line"/>
      <point x="71" y="963" type="line"/>
      <point x="347" y="558" type="line"/>
      <point x="48" y="120" type="line"/>
    </contour>
  </outline>
</glyph>
<glyph name="lessequal" format="2">
  <advance width="900"/>
  <unicode hex="2264"/>
  <outline>
    <contour>
      <point x="810" y="206" type="line"/>
      <point x="810" y="378" type="line"/>
      <point x="292" y="562" type="line"/>
      <point x="810" y="753" type="line"/>
      <point x="810" y="926" type="line"/>
      <point x="75" y="633" type="line"/>
      <point x="75" y="491" type="line"/>
    </contour>
    <contour>
      <point x="75" y="-15" type="line"/>
      <point x="810" y="-15" type="line"/>
      <point x="810" y="135" type="line"/>
      <point x="75" y="135" type="line"/>
    </contour>
  </outline>
</glyph>
<glyph name="subhaanahuWaTaaalaa-ar" format="2">
  <advance width="3752"/>
  <unicode hex="FDFE"/>
  <outline>
    <component base="_dot1" xScale="0.81" yScale="0.81" xOffset="1854" yOffset="-579"/>
    <component base="_dot2h" xOffset="1908" yOffset="834"/>
    <component base="alefabove-ar" xScale="0.59049" yScale="0.59049" xOffset="914" yOffset="-1088"/>
    <component base="alefabove-ar" xOffset="1085" yOffset="901"/>
    <component base="_dot1" xScale="0.81" yScale="0.81" xOffset="1101" yOffset="81"/>
    <component base="damma-ar" xScale="0.81" yScale="0.81" xOffset="159" yOffset="-715"/>
    <component base="damma-ar" xScale="0.81" yScale="0.81" xOffset="2697" yOffset="-855"/>
    <component base="fatha-ar" xScale="0.81" yScale="0.81" xOffset="2004" yOffset="447"/>
    <component base="fatha-ar" xScale="0.81" yScale="0.81" xOffset="1270" yOffset="-247"/>
    <component base="fatha-ar" xScale="0.81" yScale="0.81" xOffset="2518" yOffset="76"/>
    <contour>
      <point x="2176" y="59" type="curve"/>
      <point x="2496" y="132"/>
      <point x="2698" y="388"/>
      <point x="2698" y="657" type="curve" smooth="yes"/>
      <point x="2698" y="895"/>
      <point x="2594" y="1010"/>
      <point x="2445" y="1010" type="curve" smooth="yes"/>
      <point x="2287" y="1010"/>
      <point x="2197" y="886"/>
      <point x="2197" y="766" type="curve" smooth="yes"/>
      <point x="2197" y="615"/>
      <point x="2315" y="542"/>
      <point x="2456" y="542" type="curve" smooth="yes"/>
      <point x="2546" y="542"/>
      <point x="2645" y="572"/>
      <point x="2730" y="630" type="curve"/>
      <point x="2735" y="652"/>
      <point x="2738" y="671"/>
      <point x="2738" y="692" type="curve" smooth="yes"/>
      <point x="2738" y="710"/>
      <point x="2735" y="730"/>
      <point x="2732" y="750" type="curve"/>
      <point x="2645" y="687"/>
      <point x="2540" y="650"/>
      <point x="2457" y="650" type="curve" smooth="yes"/>
      <point x="2372" y="650"/>
      <point x="2308" y="688"/>
      <point x="2308" y="773" type="curve" smooth="yes"/>
      <point x="2308" y="837"/>
      <point x="2355" y="900"/>
      <point x="2434" y="900" type="curve" smooth="yes"/>
      <point x="2550" y="900"/>
      <point x="2588" y="789"/>
      <point x="2588" y="660" type="curve" smooth="yes"/>
      <point x="2588" y="387"/>
      <point x="2393" y="222"/>
      <point x="2115" y="167" type="curve"/>
      <point x="2123" y="126"/>
      <point x="2149" y="80"/>
    </contour>
    <contour>
      <point x="642" y="-377" type="curve"/>
      <point x="560" y="-451"/>
      <point x="512" y="-531"/>
      <point x="512" y="-620" type="curve" smooth="yes"/>
      <point x="512" y="-700"/>
      <point x="564" y="-747"/>
      <point x="628" y="-747" type="curve" smooth="yes"/>
      <point x="696" y="-747"/>
      <point x="747" y="-697"/>
      <point x="768" y="-614" type="curve"/>
      <point x="768" y="-609"/>
      <point x="746" y="-584"/>
      <point x="736" y="-581" type="curve"/>
      <point x="719" y="-624"/>
      <point x="693" y="-671"/>
      <point x="641" y="-671" type="curve" smooth="yes"/>
      <point x="602" y="-671"/>
      <point x="585" y="-641"/>
      <point x="585" y="-604" type="curve" smooth="yes"/>
      <point x="585" y="-548"/>
      <point x="611" y="-486"/>
      <point x="667" y="-408" type="curve"/>
      <point x="662" y="-391"/>
      <point x="647" y="-380"/>
    </contour>
    <contour>
      <point x="2215" y="-103" type="line"/>
      <point x="2218" y="-114"/>
      <point x="2219" y="-135"/>
      <point x="2219" y="-157" type="curve" smooth="yes"/>
      <point x="2219" y="-244"/>
      <point x="2167" y="-352"/>
      <point x="2070" y="-352" type="curve" smooth="yes"/>
      <point x="1996" y="-352"/>
      <point x="1970" y="-272"/>
      <point x="1940" y="-104" type="curve"/>
      <point x="1897" y="-106"/>
      <point x="1863" y="-115"/>
      <point x="1833" y="-130" type="curve"/>
      <point x="1833" y="-139"/>
      <point x="1859" y="-254"/>
      <point x="1859" y="-266" type="curve" smooth="yes"/>
      <point x="1859" y="-366"/>
      <point x="1548" y="-438"/>
      <point x="1374" y="-438" type="curve"/>
      <point x="1374" y="-548" type="line"/>
      <point x="1595" y="-548"/>
      <point x="1893" y="-457"/>
      <point x="1921" y="-339" type="curve"/>
      <point x="1882" y="-335" type="line"/>
      <point x="1917" y="-418"/>
      <point x="1991" y="-459"/>
      <point x="2066" y="-459" type="curve" smooth="yes"/>
      <point x="2171" y="-459"/>
      <point x="2276" y="-376"/>
      <point x="2311" y="-219" type="curve"/>
      <point x="2252" y="-219" type="line"/>
      <point x="2277" y="-326"/>
      <point x="2367" y="-381"/>
      <point x="2458" y="-381" type="curve" smooth="yes"/>
      <point x="2529" y="-381"/>
      <point x="2601" y="-347"/>
      <point x="2643" y="-279" type="curve"/>
      <point x="2688" y="-348"/>
      <point x="2747" y="-375"/>
      <point x="2813" y="-375" type="curve" smooth="yes"/>
      <point x="2925" y="-375"/>
      <point x="3015" y="-276"/>
      <point x="3015" y="-138" type="curve" smooth="yes"/>
      <point x="3015" y="-78"/>
      <point x="3002" y="-9"/>
      <point x="2979" y="62" type="curve"/>
      <point x="2938" y="59"/>
      <point x="2898" y="46"/>
      <point x="2869" y="30" type="curve"/>
      <point x="2882" y="-5"/>
      <point x="2907" y="-82"/>
      <point x="2907" y="-150" type="curve" smooth="yes"/>
      <point x="2907" y="-212"/>
      <point x="2873" y="-265"/>
      <point x="2815" y="-265" type="curve" smooth="yes"/>
      <point x="2750" y="-265"/>
      <point x="2716" y="-193"/>
      <point x="2678" y="3" type="curve"/>
      <point x="2643" y="0"/>
      <point x="2592" y="-12"/>
      <point x="2566" y="-26" type="curve"/>
      <point x="2569" y="-36"/>
      <point x="2573" y="-54"/>
      <point x="2578" y="-88" type="curve"/>
      <point x="2578" y="-95"/>
      <point x="2579" y="-103"/>
      <point x="2579" y="-110" type="curve" smooth="yes"/>
      <point x="2579" y="-192"/>
      <point x="2557" y="-274"/>
      <point x="2464" y="-274" type="curve" smooth="yes"/>
      <point x="2376" y="-274"/>
      <point x="2336" y="-151"/>
      <point x="2315" y="-24" type="curve"/>
      <point x="2268" y="-27"/>
      <point x="2238" y="-35"/>
      <point x="2204" y="-50" type="curve"/>
    </contour>
    <contour>
      <point x="993" y="307" type="curve" smooth="yes"/>
      <point x="733" y="307"/>
      <point x="721" y="355"/>
      <point x="721" y="478" type="curve" smooth="yes"/>
      <point x="721" y="630"/>
      <point x="727" y="863"/>
      <point x="727" y="997" type="curve" smooth="yes"/>
      <point x="727" y="1018"/>
      <point x="726" y="1069"/>
      <point x="723" y="1088" type="curve"/>
      <point x="687" y="1083"/>
      <point x="609" y="1058"/>
      <point x="590" y="1020" type="curve"/>
      <point x="594" y="961"/>
      <point x="599" y="556"/>
      <point x="610" y="405" type="curve" smooth="yes"/>
      <point x="617" y="301"/>
      <point x="674" y="198"/>
      <point x="993" y="198" type="curve" smooth="yes"/>
      <point x="1375" y="198"/>
      <point x="1498" y="276"/>
      <point x="1670" y="603" type="curve"/>
      <point x="1657" y="630"/>
      <point x="1639" y="656"/>
      <point x="1620" y="674" type="curve"/>
      <point x="1555" y="697"/>
      <point x="1474" y="710"/>
      <point x="1388" y="710" type="curve" smooth="yes"/>
      <point x="1331" y="710"/>
      <point x="1272" y="704"/>
      <point x="1214" y="691" type="curve"/>
      <point x="1188" y="657"/>
      <point x="1168" y="612"/>
      <point x="1157" y="573" type="curve"/>
      <point x="1239" y="322"/>
      <point x="1446" y="198"/>
      <point x="1751" y="198" type="curve" smooth="yes"/>
      <point x="1932" y="198"/>
      <point x="2018" y="312"/>
      <point x="2018" y="454" type="curve" smooth="yes"/>
      <point x="2018" y="506"/>
      <point x="2006" y="568"/>
      <point x="1983" y="635" type="curve"/>
      <point x="1951" y="633"/>
      <point x="1900" y="616"/>
      <point x="1877" y="605" type="curve"/>
      <point x="1889" y="547"/>
      <point x="1900" y="498"/>
      <point x="1900" y="457" type="curve" smooth="yes"/>
      <point x="1900" y="383"/>
      <point x="1865" y="307"/>
      <point x="1751" y="307" type="curve" smooth="yes"/>
      <point x="1496" y="307"/>
      <point x="1333" y="384"/>
      <point x="1266" y="595" type="curve"/>
      <point x="1291" y="603"/>
      <point x="1341" y="607"/>
      <point x="1388" y="607" type="curve" smooth="yes"/>
      <point x="1448" y="607"/>
      <point x="1500" y="600"/>
      <point x="1541" y="587" type="curve"/>
      <point x="1431" y="389"/>
      <point x="1358" y="307"/>
    </contour>
    <contour>
      <point x="345" y="-196" type="curve" smooth="yes"/>
      <point x="420" y="-196"/>
      <point x="487" y="-171"/>
      <point x="535" y="-107" type="curve"/>
      <point x="502" y="9" type="line"/>
      <point x="469" y="-64"/>
      <point x="405" y="-86"/>
      <point x="345" y="-86" type="curve" smooth="yes"/>
      <point x="298" y="-86"/>
      <point x="254" y="-69"/>
      <point x="254" y="-44" type="curve" smooth="yes"/>
      <point x="254" y="-18"/>
      <point x="371" y="90"/>
      <point x="518" y="161" type="curve"/>
      <point x="491" y="263" type="line"/>
      <point x="248" y="123"/>
      <point x="160" y="26"/>
      <point x="160" y="-57" type="curve" smooth="yes"/>
      <point x="160" y="-146"/>
      <point x="247" y="-196"/>
    </contour>
    <contour>
      <point x="891" y="-335" type="curve" smooth="yes"/>
      <point x="1372" y="-335"/>
      <point x="1453" y="-251"/>
      <point x="1453" y="-79" type="curve" smooth="yes"/>
      <point x="1453" y="-26"/>
      <point x="1442" y="35"/>
      <point x="1418" y="102" type="curve"/>
      <point x="1386" y="101"/>
      <point x="1335" y="84"/>
      <point x="1312" y="72" type="curve"/>
      <point x="1324" y="14"/>
      <point x="1335" y="-34"/>
      <point x="1335" y="-76" type="curve" smooth="yes"/>
      <point x="1335" y="-169"/>
      <point x="1301" y="-226"/>
      <point x="886" y="-226" type="curve" smooth="yes"/>
      <point x="607" y="-226"/>
      <point x="596" y="-160"/>
      <point x="573" y="339" type="curve"/>
      <point x="535" y="331"/>
      <point x="488" y="306"/>
      <point x="467" y="275" type="curve"/>
      <point x="476" y="108"/>
      <point x="490" y="20"/>
      <point x="506" y="-94" type="curve" smooth="yes"/>
      <point x="525" y="-230"/>
      <point x="628" y="-335"/>
    </contour>
    <contour>
      <point x="1109" y="-947" type="curve"/>
      <point x="1326" y="-941"/>
      <point x="1494" y="-837"/>
      <point x="1669" y="-837" type="curve" smooth="yes"/>
      <point x="1749" y="-837"/>
      <point x="1780" y="-843"/>
      <point x="1818" y="-869" type="curve"/>
      <point x="1850" y="-854"/>
      <point x="1873" y="-826"/>
      <point x="1887" y="-791" type="curve"/>
      <point x="1710" y="-618"/>
      <point x="1528" y="-438"/>
      <point x="1374" y="-438" type="curve" smooth="yes"/>
      <point x="1294" y="-438"/>
      <point x="1224" y="-480"/>
      <point x="1140" y="-585" type="curve"/>
      <point x="1151" y="-601"/>
      <point x="1161" y="-611"/>
      <point x="1181" y="-619" type="curve"/>
      <point x="1238" y="-579"/>
      <point x="1293" y="-559"/>
      <point x="1348" y="-559" type="curve" smooth="yes"/>
      <point x="1445" y="-559"/>
      <point x="1545" y="-620"/>
      <point x="1673" y="-734" type="curve"/>
      <point x="1448" y="-734"/>
      <point x="1360" y="-839"/>
      <point x="1110" y="-838" type="curve" smooth="yes"/>
      <point x="980" y="-837"/>
      <point x="967" y="-789"/>
      <point x="967" y="-666" type="curve" smooth="yes"/>
      <point x="967" y="-515"/>
      <point x="953" y="-341"/>
      <point x="953" y="702" type="curve" smooth="yes"/>
      <point x="953" y="723"/>
      <point x="952" y="774"/>
      <point x="949" y="794" type="curve"/>
      <point x="913" y="788"/>
      <point x="835" y="764"/>
      <point x="816" y="726" type="curve"/>
      <point x="820" y="667"/>
      <point x="845" y="-588"/>
      <point x="856" y="-740" type="curve" smooth="yes"/>
      <point x="863" y="-844"/>
      <point x="920" y="-947"/>
    </contour>
    <contour>
      <point x="1647" y="1543" type="curve" smooth="yes"/>
      <point x="1841" y="1543"/>
      <point x="1911" y="1649"/>
      <point x="1911" y="1769" type="curve" smooth="yes"/>
      <point x="1911" y="1965"/>
      <point x="1907" y="2112"/>
      <point x="1907" y="2247" type="curve" smooth="yes"/>
      <point x="1907" y="2313"/>
      <point x="1907" y="2414"/>
      <point x="1903" y="2433" type="curve"/>
      <point x="1867" y="2427"/>
      <point x="1789" y="2403"/>
      <point x="1770" y="2365" type="curve"/>
      <point x="1774" y="2306"/>
      <point x="1795" y="1865"/>
      <point x="1795" y="1758" type="curve" smooth="yes"/>
      <point x="1795" y="1700"/>
      <point x="1768" y="1652"/>
      <point x="1647" y="1652" type="curve" smooth="yes"/>
      <point x="1523" y="1652"/>
      <point x="1456" y="1593"/>
      <point x="1456" y="1518" type="curve" smooth="yes"/>
      <point x="1456" y="1335"/>
      <point x="1772" y="1421"/>
      <point x="1772" y="1327" type="curve" smooth="yes"/>
      <point x="1772" y="1290"/>
      <point x="1662" y="1176"/>
      <point x="1421" y="1176" type="curve" smooth="yes"/>
      <point x="1141" y="1176"/>
      <point x="1043" y="1291"/>
      <point x="1043" y="1413" type="curve" smooth="yes"/>
      <point x="1043" y="1487"/>
      <point x="1091" y="1586"/>
      <point x="1185" y="1674" type="curve"/>
      <point x="1172" y="1696"/>
      <point x="1158" y="1709"/>
      <point x="1135" y="1711" type="curve"/>
      <point x="992" y="1608"/>
      <point x="932" y="1484"/>
      <point x="932" y="1385" type="curve" smooth="yes"/>
      <point x="932" y="1223"/>
      <point x="1087" y="1069"/>
      <point x="1402" y="1069" type="curve" smooth="yes"/>
      <point x="1711" y="1069"/>
      <point x="1883" y="1212"/>
      <point x="1883" y="1342" type="curve" smooth="yes"/>
      <point x="1883" y="1503"/>
      <point x="1566" y="1458"/>
      <point x="1566" y="1513" type="curve" smooth="yes"/>
      <point x="1566" y="1532"/>
      <point x="1584" y="1543"/>
    </contour>
    <contour>
      <point x="2180" y="-548" type="curve"/>
      <point x="2098" y="-622"/>
      <point x="2050" y="-702"/>
      <point x="2050" y="-791" type="curve" smooth="yes"/>
      <point x="2050" y="-871"/>
      <point x="2102" y="-918"/>
      <point x="2166" y="-918" type="curve" smooth="yes"/>
      <point x="2234" y="-918"/>
      <point x="2285" y="-868"/>
      <point x="2306" y="-785" type="curve"/>
      <point x="2306" y="-780"/>
      <point x="2284" y="-755"/>
      <point x="2274" y="-752" type="curve"/>
      <point x="2257" y="-795"/>
      <point x="2231" y="-842"/>
      <point x="2179" y="-842" type="curve" smooth="yes"/>
      <point x="2140" y="-842"/>
      <point x="2123" y="-812"/>
      <point x="2123" y="-775" type="curve" smooth="yes"/>
      <point x="2123" y="-719"/>
      <point x="2149" y="-657"/>
      <point x="2205" y="-579" type="curve"/>
      <point x="2200" y="-562"/>
      <point x="2185" y="-551"/>
    </contour>
    <contour>
      <point x="2893" y="1120" type="curve"/>
      <point x="2811" y="1046"/>
      <point x="2763" y="966"/>
      <point x="2763" y="877" type="curve" smooth="yes"/>
      <point x="2763" y="797"/>
      <point x="2815" y="750"/>
      <point x="2879" y="750" type="curve" smooth="yes"/>
      <point x="2947" y="750"/>
      <point x="2998" y="800"/>
      <point x="3019" y="883" type="curve"/>
      <point x="3019" y="888"/>
      <point x="2997" y="913"/>
      <point x="2987" y="916" type="curve"/>
      <point x="2970" y="873"/>
      <point x="2944" y="826"/>
      <point x="2892" y="826" type="curve" smooth="yes"/>
      <point x="2853" y="826"/>
      <point x="2836" y="856"/>
      <point x="2836" y="893" type="curve" smooth="yes"/>
      <point x="2836" y="949"/>
      <point x="2862" y="1011"/>
      <point x="2918" y="1089" type="curve"/>
      <point x="2913" y="1106"/>
      <point x="2898" y="1117"/>
    </contour>
    <contour>
      <point x="2463" y="1501" type="curve"/>
      <point x="2381" y="1427"/>
      <point x="2333" y="1347"/>
      <point x="2333" y="1258" type="curve" smooth="yes"/>
      <point x="2333" y="1178"/>
      <point x="2385" y="1131"/>
      <point x="2449" y="1131" type="curve" smooth="yes"/>
      <point x="2517" y="1131"/>
      <point x="2568" y="1181"/>
      <point x="2589" y="1264" type="curve"/>
      <point x="2589" y="1269"/>
      <point x="2567" y="1294"/>
      <point x="2557" y="1297" type="curve"/>
      <point x="2540" y="1254"/>
      <point x="2514" y="1207"/>
      <point x="2462" y="1207" type="curve" smooth="yes"/>
      <point x="2423" y="1207"/>
      <point x="2406" y="1237"/>
      <point x="2406" y="1274" type="curve" smooth="yes"/>
      <point x="2406" y="1330"/>
      <point x="2432" y="1392"/>
      <point x="2488" y="1470" type="curve"/>
      <point x="2483" y="1487"/>
      <point x="2468" y="1498"/>
    </contour>
    <contour>
      <point x="2143" y="2073" type="curve"/>
      <point x="2061" y="1999"/>
      <point x="2013" y="1919"/>
      <point x="2013" y="1830" type="curve" smooth="yes"/>
      <point x="2013" y="1750"/>
      <point x="2065" y="1703"/>
      <point x="2129" y="1703" type="curve" smooth="yes"/>
      <point x="2197" y="1703"/>
      <point x="2248" y="1753"/>
      <point x="2269" y="1836" type="curve"/>
      <point x="2269" y="1841"/>
      <point x="2247" y="1866"/>
      <point x="2237" y="1869" type="curve"/>
      <point x="2220" y="1826"/>
      <point x="2194" y="1779"/>
      <point x="2142" y="1779" type="curve" smooth="yes"/>
      <point x="2103" y="1779"/>
      <point x="2086" y="1809"/>
      <point x="2086" y="1846" type="curve" smooth="yes"/>
      <point x="2086" y="1902"/>
      <point x="2112" y="1964"/>
      <point x="2168" y="2042" type="curve"/>
      <point x="2163" y="2059"/>
      <point x="2148" y="2070"/>
    </contour>
    <contour>
      <point x="695" y="1566" type="curve"/>
      <point x="613" y="1492"/>
      <point x="565" y="1412"/>
      <point x="565" y="1323" type="curve" smooth="yes"/>
      <point x="565" y="1243"/>
      <point x="617" y="1196"/>
      <point x="681" y="1196" type="curve" smooth="yes"/>
      <point x="749" y="1196"/>
      <point x="800" y="1246"/>
      <point x="821" y="1329" type="curve"/>
      <point x="821" y="1334"/>
      <point x="799" y="1359"/>
      <point x="789" y="1362" type="curve"/>
      <point x="772" y="1319"/>
      <point x="746" y="1272"/>
      <point x="694" y="1272" type="curve" smooth="yes"/>
      <point x="655" y="1272"/>
      <point x="638" y="1302"/>
      <point x="638" y="1339" type="curve" smooth="yes"/>
      <point x="638" y="1395"/>
      <point x="664" y="1457"/>
      <point x="720" y="1535" type="curve"/>
      <point x="715" y="1552"/>
      <point x="700" y="1563"/>
    </contour>
    <contour>
      <point x="1120" y="1072" type="curve"/>
      <point x="1038" y="998"/>
      <point x="990" y="918"/>
      <point x="990" y="829" type="curve" smooth="yes"/>
      <point x="990" y="749"/>
      <point x="1042" y="702"/>
      <point x="1106" y="702" type="curve" smooth="yes"/>
      <point x="1174" y="702"/>
      <point x="1225" y="752"/>
      <point x="1246" y="835" type="curve"/>
      <point x="1246" y="840"/>
      <point x="1224" y="865"/>
      <point x="1214" y="868" type="curve"/>
      <point x="1197" y="825"/>
      <point x="1171" y="778"/>
      <point x="1119" y="778" type="curve" smooth="yes"/>
      <point x="1080" y="778"/>
      <point x="1063" y="808"/>
      <point x="1063" y="845" type="curve" smooth="yes"/>
      <point x="1063" y="901"/>
      <point x="1089" y="963"/>
      <point x="1145" y="1041" type="curve"/>
      <point x="1140" y="1058"/>
      <point x="1125" y="1069"/>
    </contour>
  </outline>
</glyph>
<glyph name="azzaWaJall-ar" format="2">
  <advance width="2464"/>
  <unicode hex="FDFF"/>
  <outline>
    <component base="_dot1" xScale="0.81" yScale="0.81" xOffset="1258" yOffset="-397"/>
    <component base="_dot1" xScale="0.81" yScale="0.81" xOffset="402" yOffset="910"/>
    <component base="shadda-ar" xScale="0.81" yScale="0.81" xOffset="605" yOffset="-154"/>
    <component base="fatha-ar" xScale="0.81" yScale="0.81" xOffset="1741" yOffset="-678"/>
    <component base="shadda-ar" xScale="0.81" yScale="0.81" xOffset="124" yOffset="-24"/>
    <component base="fatha-ar" xScale="0.81" yScale="0.81" xOffset="103" yOffset="286"/>
    <component base="fatha-ar" xScale="0.81" yScale="0.81" xOffset="572" yOffset="160"/>
    <component base="fatha-ar" xScale="0.81" yScale="0.81" xOffset="1067" yOffset="64"/>
    <contour>
      <point x="1599" y="-666" type="curve"/>
      <point x="2097" y="-563"/>
      <point x="2329" y="-274"/>
      <point x="2329" y="-6" type="curve" smooth="yes"/>
      <point x="2329" y="253"/>
      <point x="2203" y="384"/>
      <point x="2030" y="384" type="curve" smooth="yes"/>
      <point x="1850" y="384"/>
      <point x="1757" y="249"/>
      <point x="1757" y="115" type="curve" smooth="yes"/>
      <point x="1757" y="-20"/>
      <point x="1850" y="-155"/>
      <point x="2044" y="-155" type="curve" smooth="yes"/>
      <point x="2181" y="-155"/>
      <point x="2296" y="-93"/>
      <point x="2356" y="-61" type="curve"/>
      <point x="2361" y="-38"/>
      <point x="2364" y="-10"/>
      <point x="2364" y="19" type="curve" smooth="yes"/>
      <point x="2364" y="55"/>
      <point x="2360" y="93"/>
      <point x="2352" y="121" type="curve"/>
      <point x="2257" y="60"/>
      <point x="2165" y="14"/>
      <point x="2052" y="14" type="curve" smooth="yes"/>
      <point x="1969" y="14"/>
      <point x="1932" y="65"/>
      <point x="1932" y="115" type="curve" smooth="yes"/>
      <point x="1932" y="164"/>
      <point x="1967" y="212"/>
      <point x="2027" y="212" type="curve" smooth="yes"/>
      <point x="2124" y="212"/>
      <point x="2162" y="143"/>
      <point x="2162" y="-2" type="curve" smooth="yes"/>
      <point x="2162" y="-209"/>
      <point x="1978" y="-421"/>
      <point x="1522" y="-506" type="curve"/>
      <point x="1524" y="-547"/>
      <point x="1558" y="-645"/>
    </contour>
    <contour>
      <point x="1047" y="-279" type="curve" smooth="yes"/>
      <point x="1146" y="-279"/>
      <point x="1332" y="-193"/>
      <point x="1549" y="-193" type="curve" smooth="yes"/>
      <point x="1621" y="-193"/>
      <point x="1652" y="-199"/>
      <point x="1698" y="-225" type="curve"/>
      <point x="1735" y="-202"/>
      <point x="1758" y="-143"/>
      <point x="1775" y="-100" type="curve"/>
      <point x="1597" y="72"/>
      <point x="1407" y="273"/>
      <point x="1253" y="273" type="curve" smooth="yes"/>
      <point x="1166" y="273"/>
      <point x="1057" y="188"/>
      <point x="981" y="83" type="curve"/>
      <point x="998" y="66"/>
      <point x="1025" y="32"/>
      <point x="1048" y="21" type="curve"/>
      <point x="1129" y="68"/>
      <point x="1183" y="81"/>
      <point x="1232" y="81" type="curve" smooth="yes"/>
      <point x="1297" y="81"/>
      <point x="1377" y="48"/>
      <point x="1591" y="-111" type="curve"/>
      <point x="1592" y="-38" type="line"/>
      <point x="1349" y="-38"/>
      <point x="1204" y="-107"/>
      <point x="1047" y="-107" type="curve" smooth="yes"/>
      <point x="960" y="-107"/>
      <point x="926" y="-92"/>
      <point x="898" y="-49" type="curve"/>
      <point x="827" y="-198" type="line"/>
      <point x="873" y="-246"/>
      <point x="915" y="-279"/>
    </contour>
    <contour>
      <point x="510" y="-804" type="curve" smooth="yes"/>
      <point x="732" y="-804"/>
      <point x="899" y="-652"/>
      <point x="915" y="-319" type="curve" smooth="yes"/>
      <point x="921" y="-206"/>
      <point x="927" y="446"/>
      <point x="927" y="658" type="curve" smooth="yes"/>
      <point x="927" y="753"/>
      <point x="926" y="851"/>
      <point x="923" y="870" type="curve"/>
      <point x="855" y="864"/>
      <point x="757" y="814"/>
      <point x="738" y="776" type="curve"/>
      <point x="742" y="567"/>
      <point x="752" y="-17"/>
      <point x="752" y="-223" type="curve" smooth="yes"/>
      <point x="752" y="-470"/>
      <point x="719" y="-643"/>
      <point x="514" y="-643" type="curve" smooth="yes"/>
      <point x="404" y="-643"/>
      <point x="317" y="-555"/>
      <point x="317" y="-438" type="curve" smooth="yes"/>
      <point x="317" y="-362"/>
      <point x="353" y="-275"/>
      <point x="443" y="-191" type="curve"/>
      <point x="432" y="-165"/>
      <point x="395" y="-125"/>
      <point x="367" y="-120" type="curve"/>
      <point x="224" y="-204"/>
      <point x="154" y="-346"/>
      <point x="154" y="-456" type="curve" smooth="yes"/>
      <point x="154" y="-663"/>
      <point x="289" y="-804"/>
    </contour>
    <contour>
      <point x="813" y="349" type="curve" smooth="yes"/>
      <point x="1093" y="349"/>
      <point x="1483" y="512"/>
      <point x="1766" y="577" type="curve"/>
      <point x="1789" y="609"/>
      <point x="1807" y="676"/>
      <point x="1813" y="731" type="curve"/>
      <point x="1725" y="715"/>
      <point x="1647" y="708"/>
      <point x="1579" y="708" type="curve" smooth="yes"/>
      <point x="1348" y="708"/>
      <point x="1256" y="794"/>
      <point x="1256" y="876" type="curve" smooth="yes"/>
      <point x="1256" y="953"/>
      <point x="1332" y="1005"/>
      <point x="1471" y="1005" type="curve" smooth="yes"/>
      <point x="1541" y="1005"/>
      <point x="1613" y="987"/>
      <point x="1665" y="950" type="curve"/>
      <point x="1683" y="976"/>
      <point x="1711" y="1044"/>
      <point x="1724" y="1097" type="curve"/>
      <point x="1659" y="1150"/>
      <point x="1558" y="1166"/>
      <point x="1473" y="1166" type="curve" smooth="yes"/>
      <point x="1275" y="1166"/>
      <point x="1084" y="1044"/>
      <point x="1084" y="851" type="curve" smooth="yes"/>
      <point x="1084" y="727"/>
      <point x="1189" y="610"/>
      <point x="1404" y="583" type="curve"/>
      <point x="1430" y="629" type="line"/>
      <point x="1252" y="599"/>
      <point x="1067" y="517"/>
      <point x="814" y="517" type="curve" smooth="yes"/>
      <point x="619" y="517"/>
      <point x="576" y="621"/>
      <point x="531" y="753" type="curve"/>
      <point x="488" y="750"/>
      <point x="413" y="725"/>
      <point x="381" y="708" type="curve"/>
      <point x="393" y="620"/>
      <point x="407" y="541"/>
      <point x="407" y="441" type="curve" smooth="yes"/>
      <point x="407" y="169"/>
      <point x="281" y="48"/>
      <point x="100" y="-18" type="curve"/>
      <point x="104" y="-85"/>
      <point x="134" y="-132"/>
      <point x="178" y="-160" type="curve"/>
      <point x="416" y="-53"/>
      <point x="562" y="141"/>
      <point x="562" y="397" type="curve" smooth="yes"/>
      <point x="562" y="443"/>
      <point x="560" y="456"/>
      <point x="554" y="512" type="curve"/>
      <point x="502" y="484" type="line"/>
      <point x="519" y="437"/>
      <point x="713" y="349"/>
    </contour>
    <contour>
      <point x="1072" y="-482" type="curve"/>
      <point x="978" y="-565"/>
      <point x="920" y="-645"/>
      <point x="920" y="-734" type="curve" smooth="yes"/>
      <point x="920" y="-836"/>
      <point x="987" y="-887"/>
      <point x="1050" y="-887" type="curve" smooth="yes"/>
      <point x="1111" y="-887"/>
      <point x="1177" y="-831"/>
      <point x="1199" y="-728" type="curve"/>
      <point x="1199" y="-723"/>
      <point x="1170" y="-692"/>
      <point x="1161" y="-689" type="curve"/>
      <point x="1141" y="-739"/>
      <point x="1115" y="-785"/>
      <point x="1072" y="-785" type="curve" smooth="yes"/>
      <point x="1032" y="-785"/>
      <point x="1015" y="-756"/>
      <point x="1015" y="-718" type="curve" smooth="yes"/>
      <point x="1015" y="-667"/>
      <point x="1042" y="-597"/>
      <point x="1106" y="-522" type="curve"/>
      <point x="1102" y="-505"/>
      <point x="1080" y="-484"/>
    </contour>
    <contour>
      <point x="1297" y="1732" type="curve"/>
      <point x="1203" y="1648"/>
      <point x="1145" y="1568"/>
      <point x="1145" y="1480" type="curve" smooth="yes"/>
      <point x="1145" y="1378"/>
      <point x="1212" y="1327"/>
      <point x="1275" y="1327" type="curve" smooth="yes"/>
      <point x="1336" y="1327"/>
      <point x="1402" y="1375"/>
      <point x="1424" y="1486" type="curve"/>
      <point x="1424" y="1490"/>
      <point x="1396" y="1521"/>
      <point x="1386" y="1524" type="curve"/>
      <point x="1366" y="1475"/>
      <point x="1341" y="1429"/>
      <point x="1297" y="1429" type="curve" smooth="yes"/>
      <point x="1257" y="1429"/>
      <point x="1240" y="1458"/>
      <point x="1240" y="1495" type="curve" smooth="yes"/>
      <point x="1240" y="1547"/>
      <point x="1267" y="1617"/>
      <point x="1332" y="1691" type="curve"/>
      <point x="1327" y="1708"/>
      <point x="1305" y="1729"/>
    </contour>
    <contour>
      <point x="1807" y="1580" type="curve"/>
      <point x="1713" y="1497"/>
      <point x="1656" y="1417"/>
      <point x="1656" y="1328" type="curve" smooth="yes"/>
      <point x="1656" y="1226"/>
      <point x="1722" y="1175"/>
      <point x="1785" y="1175" type="curve" smooth="yes"/>
      <point x="1847" y="1175"/>
      <point x="1912" y="1223"/>
      <point x="1934" y="1334" type="curve"/>
      <point x="1934" y="1339"/>
      <point x="1906" y="1370"/>
      <point x="1896" y="1373" type="curve"/>
      <point x="1877" y="1324"/>
      <point x="1851" y="1277"/>
      <point x="1807" y="1277" type="curve" smooth="yes"/>
      <point x="1767" y="1277"/>
      <point x="1750" y="1307"/>
      <point x="1750" y="1344" type="curve" smooth="yes"/>
      <point x="1750" y="1396"/>
      <point x="1777" y="1465"/>
      <point x="1842" y="1540" type="curve"/>
      <point x="1837" y="1557"/>
      <point x="1815" y="1578"/>
    </contour>
  </outline>
</glyph>
<glyph name="biblicalendofverse-ar" format="2">
  <advance width="978"/>
  <unicode hex="10ED0"/>
  <outline>
    <contour>
      <point x="489" y="321" type="curve" smooth="yes"/>
      <point x="706" y="321"/>
      <point x="882" y="497"/>
      <point x="882" y="714" type="curve" smooth="yes"/>
      <point x="882" y="931"/>
      <point x="706" y="1107"/>
      <point x="489" y="1107" type="curve" smooth="yes"/>
      <point x="272" y="1107"/>
      <point x="96" y="931"/>
      <point x="96" y="714" type="curve" smooth="yes"/>
      <point x="96" y="497"/>
      <point x="272" y="321"/>
    </contour>
    <contour>
      <point x="489" y="490" type="curve" smooth="yes"/>
      <point x="365" y="490"/>
      <point x="265" y="590"/>
      <point x="265" y="714" type="curve" smooth="yes"/>
      <point x="265" y="838"/>
      <point x="365" y="938"/>
      <point x="489" y="938" type="curve" smooth="yes"/>
      <point x="613" y="938"/>
      <point x="713" y="838"/>
      <point x="713" y="714" type="curve" smooth="yes"/>
      <point x="713" y="590"/>
      <point x="613" y="490"/>
    </contour>
    <contour>
      <point x="70" y="170" type="line"/>
      <point x="70" y="0" type="line"/>
      <point x="908" y="0" type="line"/>
      <point x="908" y="170" type="line"/>
    </contour>
  </outline>
</glyph>
<glyph name="_breve" format="2">
  <anchor x="-336" y="1210" name="U"/>
  <anchor x="-336" y="809" name="_U"/>
  <outline>
    <contour>
      <point x="-334" y="855" type="curve" smooth="yes"/>
      <point x="-152" y="855"/>
      <point x="-30" y="1017"/>
      <point x="-30" y="1162" type="curve"/>
      <point x="-165" y="1162" type="line"/>
      <point x="-183" y="1071"/>
      <point x="-251" y="1005"/>
      <point x="-334" y="1005" type="curve" smooth="yes"/>
      <point x="-417" y="1005"/>
      <point x="-488" y="1071"/>
      <point x="-503" y="1162" type="curve"/>
      <point x="-637" y="1162" type="line"/>
      <point x="-637" y="1017"/>
      <point x="-518" y="855"/>
    </contour>
  </outline>
</glyph>
<glyph name="_dot1_dot3u" format="2">
  <anchor x="17" y="-206" name="_above"/>
  <anchor x="-9" y="722" name="_below"/>
  <anchor x="-2" y="213" name="_center"/>
  <outline>
    <contour>
      <point x="14" y="-130" type="curve"/>
      <point x="30" y="-125"/>
      <point x="70" y="-82"/>
      <point x="154" y="22" type="curve"/>
      <point x="-9" y="156" type="line"/>
      <point x="-135" y="5" type="line"/>
      <point x="-127" y="-14"/>
      <point x="-57" y="-79"/>
    </contour>
    <contour>
      <point x="-40" y="391" type="curve"/>
      <point x="-28" y="394"/>
      <point x="5" y="428"/>
      <point x="72" y="512" type="curve"/>
      <point x="-58" y="620" type="line"/>
      <point x="-160" y="500" type="line"/>
      <point x="-153" y="484"/>
      <point x="-98" y="432"/>
    </contour>
    <contour>
      <point x="-114" y="194" type="curve"/>
      <point x="-102" y="196"/>
      <point x="-62" y="230"/>
      <point x="-1" y="307" type="curve"/>
      <point x="-131" y="415" type="line"/>
      <point x="-234" y="302" type="line"/>
      <point x="-226" y="286"/>
      <point x="-171" y="234"/>
    </contour>
    <contour>
      <point x="82" y="207" type="curve"/>
      <point x="93" y="211"/>
      <point x="150" y="262"/>
      <point x="194" y="322" type="curve"/>
      <point x="64" y="429" type="line"/>
      <point x="-39" y="316" type="line"/>
      <point x="-32" y="301"/>
      <point x="24" y="248"/>
    </contour>
  </outline>
</glyph>
<glyph name="_dotCircular" format="2">
  <anchor x="-2" y="-147" name="_diaA"/>
  <anchor x="0" y="121" name="diaA"/>
  <outline>
    <contour>
      <point x="-1" y="-92" type="curve" smooth="yes"/>
      <point x="46" y="-92"/>
      <point x="83" y="-54"/>
      <point x="83" y="-9" type="curve" smooth="yes"/>
      <point x="83" y="37"/>
      <point x="46" y="75"/>
      <point x="-1" y="75" type="curve" smooth="yes"/>
      <point x="-48" y="75"/>
      <point x="-85" y="37"/>
      <point x="-85" y="-9" type="curve" smooth="yes"/>
      <point x="-85" y="-54"/>
      <point x="-48" y="-92"/>
    </contour>
  </outline>
</glyph>
<glyph name="_ogonek" format="2">
  <anchor x="-311" y="-322" name="L"/>
  <anchor x="-228" y="0" name="_O"/>
  <outline>
    <contour>
      <point x="-405" y="-330" type="curve" smooth="yes"/>
      <point x="-350" y="-330"/>
      <point x="-280" y="-306"/>
      <point x="-237" y="-262" type="curve"/>
      <point x="-259" y="-157" type="line"/>
      <point x="-287" y="-190"/>
      <point x="-358" y="-213"/>
      <point x="-390" y="-213" type="curve" smooth="yes"/>
      <point x="-438" y="-213"/>
      <point x="-469" y="-187"/>
      <point x="-469" y="-138" type="curve" smooth="yes"/>
      <point x="-469" y="-86"/>
      <point x="-430" y="-48"/>
      <point x="-353" y="0" type="curve"/>
      <point x="-480" y="0" type="line"/>
      <point x="-558" y="-37"/>
      <point x="-600" y="-90"/>
      <point x="-600" y="-168" type="curve" smooth="yes"/>
      <point x="-600" y="-258"/>
      <point x="-512" y="-330"/>
    </contour>
  </outline>
</glyph>
<glyph name="_tah_smallV" format="2">
  <anchor x="32" y="-202" name="_above"/>
  <anchor x="33" y="752" name="_below"/>
  <anchor x="33" y="302" name="_center"/>
  <outline>
    <contour>
      <point x="30" y="-139" type="curve" smooth="yes"/>
      <point x="167" y="-139"/>
      <point x="232" y="-64"/>
      <point x="232" y="13" type="curve" smooth="yes"/>
      <point x="232" y="78"/>
      <point x="182" y="142"/>
      <point x="98" y="142" type="curve" smooth="yes"/>
      <point x="-31" y="142"/>
      <point x="-107" y="28"/>
      <point x="-172" y="-28" type="curve"/>
      <point x="-179" y="-27"/>
      <point x="-231" y="-25"/>
      <point x="-242" y="-25" type="curve"/>
      <point x="-240" y="-55"/>
      <point x="-230" y="-96"/>
      <point x="-217" y="-120" type="curve"/>
      <point x="-154" y="-120"/>
      <point x="-60" y="-139"/>
    </contour>
    <contour>
      <point x="48" y="-45" type="curve" smooth="yes"/>
      <point x="1" y="-45"/>
      <point x="-33" y="-42"/>
      <point x="-59" y="-39" type="curve"/>
      <point x="-16" y="13"/>
      <point x="53" y="48"/>
      <point x="91" y="48" type="curve" smooth="yes"/>
      <point x="121" y="48"/>
      <point x="140" y="28"/>
      <point x="140" y="6" type="curve" smooth="yes"/>
      <point x="140" y="-14"/>
      <point x="106" y="-45"/>
    </contour>
    <contour>
      <point x="-138" y="-31" type="curve"/>
      <point x="-56" y="37" type="line"/>
      <point x="-53" y="132"/>
      <point x="-48" y="272"/>
      <point x="-49" y="363" type="curve"/>
      <point x="-76" y="360"/>
      <point x="-129" y="336"/>
      <point x="-151" y="304" type="curve"/>
      <point x="-149" y="237"/>
      <point x="-140" y="97"/>
    </contour>
    <contour>
      <point x="20" y="407" type="curve" smooth="yes"/>
      <point x="59" y="407"/>
      <point x="198" y="565"/>
      <point x="261" y="655" type="curve"/>
      <point x="252" y="688"/>
      <point x="231" y="731"/>
      <point x="202" y="751" type="curve"/>
      <point x="169" y="706"/>
      <point x="88" y="601"/>
      <point x="35" y="553" type="curve"/>
      <point x="-20" y="591"/>
      <point x="-107" y="679"/>
      <point x="-168" y="750" type="curve"/>
      <point x="-197" y="730"/>
      <point x="-219" y="671"/>
      <point x="-224" y="621" type="curve"/>
      <point x="-180" y="570"/>
      <point x="-13" y="407"/>
    </contour>
  </outline>
</glyph>
<glyph name="_wavyHamza" format="2">
  <anchor x="-3" y="1123" name="_diaA"/>
  <anchor x="-3" y="1571" name="diaA"/>
  <outline>
    <contour>
      <point x="-104" y="1140" type="curve" smooth="yes"/>
      <point x="-48" y="1140"/>
      <point x="39" y="1177"/>
      <point x="141" y="1205" type="curve"/>
      <point x="154" y="1219"/>
      <point x="165" y="1262"/>
      <point x="165" y="1281" type="curve" smooth="yes"/>
      <point x="165" y="1286"/>
      <point x="165" y="1290"/>
      <point x="164" y="1294" type="curve"/>
      <point x="1" y="1329"/>
      <point x="-44" y="1356"/>
      <point x="-44" y="1392" type="curve" smooth="yes"/>
      <point x="-44" y="1424"/>
      <point x="-16" y="1439"/>
      <point x="15" y="1439" type="curve" smooth="yes"/>
      <point x="53" y="1439"/>
      <point x="86" y="1422"/>
      <point x="123" y="1396" type="curve"/>
      <point x="149" y="1408"/>
      <point x="178" y="1432"/>
      <point x="188" y="1468" type="curve"/>
      <point x="140" y="1514"/>
      <point x="85" y="1538"/>
      <point x="16" y="1538" type="curve" smooth="yes"/>
      <point x="-96" y="1538"/>
      <point x="-158" y="1472"/>
      <point x="-158" y="1395" type="curve" smooth="yes"/>
      <point x="-158" y="1344"/>
      <point x="-110" y="1289"/>
      <point x="-25" y="1255" type="curve"/>
      <point x="-46" y="1242"/>
      <point x="-81" y="1237"/>
      <point x="-101" y="1237" type="curve" smooth="yes"/>
      <point x="-160" y="1237"/>
      <point x="-180" y="1293"/>
      <point x="-245" y="1293" type="curve" smooth="yes"/>
      <point x="-294" y="1293"/>
      <point x="-372" y="1232"/>
      <point x="-383" y="1219" type="curve"/>
      <point x="-383" y="1195"/>
      <point x="-369" y="1154"/>
      <point x="-351" y="1131" type="curve"/>
      <point x="-302" y="1180"/>
      <point x="-276" y="1193"/>
      <point x="-254" y="1193" type="curve" smooth="yes"/>
      <point x="-209" y="1193"/>
      <point x="-178" y="1140"/>
    </contour>
  </outline>
</glyph>
<glyph name="behDotless-ar.fina" format="2">
  <advance width="2057"/>
  <anchor x="1043" y="575" name="above"/>
  <anchor x="471" y="875" name="alef"/>
  <anchor x="1028" y="-89" name="below"/>
  <anchor x="1066" y="638" name="diaA"/>
  <anchor x="1005" y="-121" name="diaB"/>
  <anchor x="1005" y="-4" name="ring"/>
  <outline>
    <contour>
      <point x="1018" y="-25" type="curve" smooth="yes"/>
      <point x="1521" y="-25"/>
      <point x="1674" y="48"/>
      <point x="1776" y="160" type="curve"/>
      <point x="1824" y="61"/>
      <point x="1919" y="-10"/>
      <point x="2057" y="-10" type="curve" smooth="yes"/>
      <point x="2077" y="-10" type="line"/>
      <point x="2077" y="165" type="line"/>
      <point x="2057" y="165" type="line" smooth="yes"/>
      <point x="1961" y="165"/>
      <point x="1895" y="242"/>
      <point x="1857" y="444" type="curve"/>
      <point x="1807" y="441"/>
      <point x="1726" y="425"/>
      <point x="1693" y="409" type="curve"/>
      <point x="1614" y="187"/>
      <point x="1519" y="152"/>
      <point x="937" y="152" type="curve" smooth="yes"/>
      <point x="457" y="152"/>
      <point x="289" y="255"/>
      <point x="289" y="419" type="curve" smooth="yes"/>
      <point x="289" y="510"/>
      <point x="337" y="613"/>
      <point x="433" y="733" type="curve"/>
      <point x="419" y="764"/>
      <point x="368" y="819"/>
      <point x="337" y="821" type="curve"/>
      <point x="180" y="705"/>
      <point x="85" y="528"/>
      <point x="85" y="401" type="curve" smooth="yes"/>
      <point x="85" y="122"/>
      <point x="341" y="-25"/>
    </contour>
  </outline>
</glyph>
<glyph name="dal-ar.fina" format="2">
  <advance width="939"/>
  <anchor x="446" y="939" name="above"/>
  <anchor x="151" y="718" name="alef"/>
  <anchor x="501" y="-21" name="below"/>
  <anchor x="468" y="976" name="diaA"/>
  <anchor x="451" y="-91" name="diaB"/>
  <anchor x="453" y="83" name="ring"/>
  <outline>
    <contour>
      <point x="939" y="-10" type="curve" smooth="yes"/>
      <point x="959" y="-10" type="line"/>
      <point x="959" y="165" type="line"/>
      <point x="939" y="165" type="line" smooth="yes"/>
      <point x="870" y="165"/>
      <point x="803" y="192"/>
      <point x="756" y="326" type="curve" smooth="yes"/>
      <point x="713" y="449"/>
      <point x="666" y="635"/>
      <point x="598" y="911" type="curve"/>
      <point x="519" y="890"/>
      <point x="451" y="837"/>
      <point x="416" y="789" type="curve"/>
      <point x="490" y="552"/>
      <point x="512" y="496"/>
      <point x="566" y="324" type="curve"/>
      <point x="519" y="216"/>
      <point x="409" y="176"/>
      <point x="278" y="176" type="curve" smooth="yes"/>
      <point x="194" y="176"/>
      <point x="139" y="183"/>
      <point x="90" y="195" type="curve"/>
      <point x="89" y="184"/>
      <point x="85" y="153"/>
      <point x="85" y="141" type="curve" smooth="yes"/>
      <point x="85" y="97"/>
      <point x="93" y="49"/>
      <point x="110" y="13" type="curve"/>
      <point x="154" y="7"/>
      <point x="201" y="3"/>
      <point x="279" y="3" type="curve" smooth="yes"/>
      <point x="473" y="3"/>
      <point x="644" y="62"/>
      <point x="701" y="224" type="curve"/>
      <point x="610" y="220" type="line"/>
      <point x="676" y="41"/>
      <point x="806" y="-10"/>
    </contour>
  </outline>
</glyph>
<glyph name="dal-ar.loclWLF" format="2">
  <advance width="857"/>
  <anchor x="205" y="910" name="above"/>
  <anchor x="-16" y="808" name="alef"/>
  <anchor x="466" y="-71" name="below"/>
  <anchor x="223" y="888" name="diaA"/>
  <anchor x="466" y="-121" name="diaB"/>
  <anchor x="466" y="4" name="ring"/>
  <outline>
    <contour>
      <point x="216" y="-251" type="curve"/>
      <point x="250" y="-70"/>
      <point x="350" y="-6"/>
      <point x="442" y="-4" type="curve" smooth="yes"/>
      <point x="548" y="-2"/>
      <point x="706" y="-9"/>
      <point x="716" y="3" type="curve" smooth="yes"/>
      <point x="736" y="27"/>
      <point x="826" y="326"/>
      <point x="726" y="356" type="curve" smooth="yes"/>
      <point x="369" y="462"/>
      <point x="245" y="507"/>
      <point x="333" y="847" type="curve"/>
      <point x="260" y="847"/>
      <point x="179" y="825"/>
      <point x="126" y="780" type="curve"/>
      <point x="84" y="417"/>
      <point x="248" y="309"/>
      <point x="580" y="233" type="curve" smooth="yes"/>
      <point x="617" y="224"/>
      <point x="595" y="170"/>
      <point x="590" y="170" type="curve" smooth="yes"/>
      <point x="557" y="170"/>
      <point x="536" y="170"/>
      <point x="498" y="170" type="curve" smooth="yes"/>
      <point x="263" y="170"/>
      <point x="109" y="59"/>
      <point x="85" y="-219" type="curve"/>
      <point x="110" y="-243"/>
      <point x="173" y="-261"/>
    </contour>
  </outline>
</glyph>
<glyph name="dammainverted-ar.filled" format="2">
  <anchor x="14" y="1218" name="_diaA"/>
  <anchor x="15" y="1832" name="diaA"/>
  <outline>
    <contour>
      <point x="18" y="1296" type="curve" smooth="yes"/>
      <point x="111" y="1296"/>
      <point x="159" y="1365"/>
      <point x="159" y="1432" type="curve" smooth="yes"/>
      <point x="159" y="1495"/>
      <point x="116" y="1556"/>
      <point x="27" y="1556" type="curve" smooth="yes"/>
      <point x="12" y="1556"/>
      <point x="-5" y="1553"/>
      <point x="-24" y="1543" type="curve"/>
      <point x="-6" y="1617"/>
      <point x="37" y="1681"/>
      <point x="116" y="1747" type="curve"/>
      <point x="97" y="1775"/>
      <point x="64" y="1800"/>
      <point x="21" y="1801" type="curve"/>
      <point x="-92" y="1701"/>
      <point x="-136" y="1571"/>
      <point x="-136" y="1480" type="curve" smooth="yes"/>
      <point x="-136" y="1367"/>
      <point x="-70" y="1296"/>
    </contour>
  </outline>
</glyph>
<glyph name="endofayah-ar.altB.3" format="2">
  <advance width="2019"/>
  <anchor x="238" y="0" name="digitR"/>
  <outline>
    <contour>
      <point x="28" y="-290" type="curve"/>
      <point x="345" y="-250"/>
      <point x="619" y="-225"/>
      <point x="1056" y="-225" type="curve" smooth="yes"/>
      <point x="1463" y="-225"/>
      <point x="1708" y="-243"/>
      <point x="1986" y="-288" type="curve"/>
      <point x="1989" y="-236"/>
      <point x="1992" y="-181"/>
      <point x="1992" y="-124" type="curve" smooth="yes"/>
      <point x="1992" y="190"/>
      <point x="1945" y="567"/>
      <point x="1945" y="937" type="curve" smooth="yes"/>
      <point x="1945" y="1139"/>
      <point x="1959" y="1338"/>
      <point x="2001" y="1525" type="curve"/>
      <point x="1614" y="1498"/>
      <point x="1242" y="1479"/>
      <point x="906" y="1479" type="curve" smooth="yes"/>
      <point x="524" y="1479"/>
      <point x="309" y="1493"/>
      <point x="47" y="1525" type="curve"/>
      <point x="46" y="1131"/>
      <point x="79" y="763"/>
      <point x="79" y="392" type="curve" smooth="yes"/>
      <point x="79" y="168"/>
      <point x="67" y="-58"/>
    </contour>
    <contour>
      <point x="169" y="-165" type="curve"/>
      <point x="190" y="23"/>
      <point x="197" y="206"/>
      <point x="197" y="387" type="curve" smooth="yes"/>
      <point x="197" y="733"/>
      <point x="171" y="1068"/>
      <point x="170" y="1398" type="curve"/>
      <point x="379" y="1377"/>
      <point x="581" y="1368"/>
      <point x="936" y="1368" type="curve" smooth="yes"/>
      <point x="1252" y="1368"/>
      <point x="1592" y="1381"/>
      <point x="1865" y="1404" type="curve"/>
      <point x="1840" y="1281"/>
      <point x="1831" y="1131"/>
      <point x="1831" y="969" type="curve" smooth="yes"/>
      <point x="1831" y="622"/>
      <point x="1871" y="222"/>
      <point x="1871" y="-72" type="curve" smooth="yes"/>
      <point x="1871" y="-104"/>
      <point x="1871" y="-134"/>
      <point x="1870" y="-163" type="curve"/>
      <point x="1678" y="-133"/>
      <point x="1437" y="-116"/>
      <point x="1029" y="-116" type="curve" smooth="yes"/>
      <point x="638" y="-116"/>
      <point x="390" y="-132"/>
    </contour>
  </outline>
</glyph>
<glyph name="footnotemarker-ar.2" format="2">
  <advance width="2212"/>
  <anchor x="535" y="0" name="digitR"/>
  <outline>
    <contour>
      <point x="729" y="-165" type="curve" smooth="yes"/>
      <point x="1693" y="-165"/>
      <point x="1893" y="-161"/>
      <point x="2061" y="-149" type="curve"/>
      <point x="2093" y="-97"/>
      <point x="2114" y="-31"/>
      <point x="2127" y="32" type="curve"/>
      <point x="1995" y="17"/>
      <point x="1729" y="10"/>
      <point x="596" y="10" type="curve" smooth="yes"/>
      <point x="316" y="10"/>
      <point x="254" y="70"/>
      <point x="254" y="138" type="curve" smooth="yes"/>
      <point x="254" y="188"/>
      <point x="288" y="214"/>
      <point x="324" y="214" type="curve" smooth="yes"/>
      <point x="361" y="214"/>
      <point x="399" y="185"/>
      <point x="399" y="122" type="curve" smooth="yes"/>
      <point x="399" y="80"/>
      <point x="385" y="27"/>
      <point x="347" y="-16" type="curve"/>
      <point x="479" y="-71" type="line"/>
      <point x="542" y="-14"/>
      <point x="570" y="60"/>
      <point x="570" y="132" type="curve" smooth="yes"/>
      <point x="570" y="261"/>
      <point x="478" y="382"/>
      <point x="327" y="382" type="curve" smooth="yes"/>
      <point x="196" y="382"/>
      <point x="85" y="293"/>
      <point x="85" y="140" type="curve" smooth="yes"/>
      <point x="85" y="-96"/>
      <point x="319" y="-165"/>
    </contour>
  </outline>
</glyph>
<glyph name="guillemetleft.latn" format="2">
  <advance width="979"/>
  <outline>
    <contour>
      <point x="758" y="0" type="line"/>
      <point x="942" y="0" type="line"/>
      <point x="664" y="382" type="line"/>
      <point x="942" y="765" type="line"/>
      <point x="758" y="765" type="line"/>
      <point x="432" y="382" type="line"/>
    </contour>
    <contour>
      <point x="378" y="0" type="line"/>
      <point x="562" y="0" type="line"/>
      <point x="285" y="382" type="line"/>
      <point x="562" y="765" type="line"/>
      <point x="378" y="765" type="line"/>
      <point x="52" y="382" type="line"/>
    </contour>
  </outline>
</glyph>
<glyph name="guilsinglright.latn" format="2">
  <advance width="600"/>
  <outline>
    <contour>
      <point x="37" y="0" type="line"/>
      <point x="221" y="0" type="line"/>
      <point x="547" y="382" type="line"/>
      <point x="221" y="765" type="line"/>
      <point x="37" y="765" type="line"/>
      <point x="315" y="382" type="line"/>
    </contour>
  </outline>
</glyph>
<glyph name="hah-ar.medi" format="2">
  <advance width="989"/>
  <anchor x="363" y="631" name="above"/>
  <anchor x="12" y="470" name="alef"/>
  <anchor x="384" y="-3" name="below"/>
  <anchor x="319" y="656" name="diaA"/>
  <anchor x="408" y="-27" name="diaB"/>
  <outline>
    <contour>
      <point x="-20" y="-10" type="line"/>
      <point x="-8" y="-10"/>
      <point x="-10" y="-10"/>
      <point x="7" y="-10" type="curve" smooth="yes"/>
      <point x="251" y="-10"/>
      <point x="521" y="215"/>
      <point x="772" y="215" type="curve" smooth="yes"/>
      <point x="810" y="215"/>
      <point x="849" y="210"/>
      <point x="892" y="200" type="curve"/>
      <point x="918" y="229"/>
      <point x="946" y="305"/>
      <point x="954" y="348" type="curve"/>
      <point x="682" y="395"/>
      <point x="588" y="614"/>
      <point x="388" y="614" type="curve" smooth="yes"/>
      <point x="290" y="614"/>
      <point x="159" y="542"/>
      <point x="55" y="387" type="curve"/>
      <point x="71" y="366"/>
      <point x="103" y="344"/>
      <point x="126" y="335" type="curve"/>
      <point x="203" y="387"/>
      <point x="275" y="420"/>
      <point x="343" y="420" type="curve" smooth="yes"/>
      <point x="407" y="420"/>
      <point x="450" y="409"/>
      <point x="560" y="337" type="curve"/>
      <point x="310" y="267"/>
      <point x="178" y="165"/>
      <point x="0" y="165" type="curve" smooth="yes"/>
      <point x="-20" y="165" type="line"/>
    </contour>
    <contour>
      <point x="981" y="-10" type="curve" smooth="yes"/>
      <point x="1009" y="-10" type="line"/>
      <point x="1009" y="165" type="line"/>
      <point x="981" y="165" type="line" smooth="yes"/>
      <point x="901" y="165"/>
      <point x="739" y="171"/>
      <point x="724" y="226" type="curve"/>
      <point x="562" y="209" type="line"/>
      <point x="598" y="74"/>
      <point x="708" y="-10"/>
    </contour>
  </outline>
</glyph>
<glyph name="hahFourbelow-ar.fina" format="2">
  <advance width="1125"/>
  <anchor x="153" y="470" name="alef"/>
  <anchor x="542" y="660" name="diaA"/>
  <anchor x="643" y="-812" name="diaB"/>
  <outline>
    <component base="hah-ar.fina"/>
    <contour>
      <point x="464" y="-474" type="curve"/>
      <point x="482" y="-474"/>
      <point x="535" y="-471"/>
      <point x="545" y="-455" type="curve"/>
      <point x="546" y="-444"/>
      <point x="546" y="-433"/>
      <point x="546" y="-423" type="curve" smooth="yes"/>
      <point x="546" y="-295"/>
      <point x="507" y="-233"/>
      <point x="507" y="-152" type="curve" smooth="yes"/>
      <point x="507" y="-97"/>
      <point x="523" y="-65"/>
      <point x="554" y="-65" type="curve" smooth="yes"/>
      <point x="577" y="-65"/>
      <point x="595" y="-96"/>
      <point x="600" y="-154" type="curve" smooth="yes"/>
      <point x="602" y="-177"/>
      <point x="602" y="-205"/>
      <point x="603" y="-236" type="curve"/>
      <point x="635" y="-236"/>
      <point x="666" y="-233"/>
      <point x="687" y="-227" type="curve"/>
      <point x="683" y="-144"/>
      <point x="706" y="-59"/>
      <point x="781" y="-53" type="curve"/>
      <point x="794" y="-31"/>
      <point x="804" y="19"/>
      <point x="804" y="41" type="curve"/>
      <point x="714" y="41"/>
      <point x="656" y="-18"/>
      <point x="649" y="-72" type="curve"/>
      <point x="665" y="-78" type="line"/>
      <point x="659" y="-6"/>
      <point x="608" y="31"/>
      <point x="554" y="31" type="curve" smooth="yes"/>
      <point x="483" y="31"/>
      <point x="412" y="-22"/>
      <point x="412" y="-134" type="curve" smooth="yes"/>
      <point x="412" y="-243"/>
      <point x="464" y="-314"/>
    </contour>
  </outline>
</glyph>
<glyph name="hehDoachashmee-ar.fina" format="2">
  <advance width="1085"/>
  <anchor x="306" y="642" name="alef"/>
  <anchor x="741" y="725" name="diaA"/>
  <anchor x="728" y="-572" name="diaB"/>
  <outline>
    <contour>
      <point x="741" y="-502" type="curve" smooth="yes"/>
      <point x="879" y="-502"/>
      <point x="971" y="-396"/>
      <point x="971" y="-286" type="curve" smooth="yes"/>
      <point x="971" y="-190"/>
      <point x="913" y="-63"/>
      <point x="804" y="-2" type="curve"/>
      <point x="873" y="-7"/>
      <point x="926" y="-10"/>
      <point x="1071" y="-10" type="curve" smooth="yes"/>
      <point x="1081" y="-10"/>
      <point x="1085" y="-10"/>
      <point x="1105" y="-10" type="curve"/>
      <point x="1105" y="165" type="line"/>
      <point x="1085" y="165" type="line" smooth="yes"/>
      <point x="992" y="165"/>
      <point x="934" y="165"/>
      <point x="812" y="157" type="curve"/>
      <point x="900" y="228"/>
      <point x="963" y="344"/>
      <point x="963" y="451" type="curve" smooth="yes"/>
      <point x="963" y="561"/>
      <point x="878" y="653"/>
      <point x="747" y="653" type="curve" smooth="yes"/>
      <point x="487" y="653"/>
      <point x="331" y="342"/>
      <point x="331" y="64" type="curve" smooth="yes"/>
      <point x="331" y="-238"/>
      <point x="483" y="-502"/>
    </contour>
    <contour>
      <point x="92" y="-41" type="curve"/>
      <point x="146" y="-15"/>
      <point x="242" y="4"/>
      <point x="406" y="6" type="curve"/>
      <point x="389" y="177" type="line"/>
      <point x="264" y="177"/>
      <point x="164" y="167"/>
      <point x="119" y="153" type="curve"/>
      <point x="97" y="112"/>
      <point x="85" y="64"/>
      <point x="85" y="14" type="curve" smooth="yes"/>
      <point x="85" y="-9"/>
      <point x="88" y="-24"/>
    </contour>
    <contour>
      <point x="732" y="-342" type="curve" smooth="yes"/>
      <point x="607" y="-342"/>
      <point x="502" y="-136"/>
      <point x="502" y="82" type="curve" smooth="yes"/>
      <point x="502" y="270"/>
      <point x="602" y="490"/>
      <point x="717" y="490" type="curve" smooth="yes"/>
      <point x="758" y="490"/>
      <point x="783" y="468"/>
      <point x="783" y="431" type="curve" smooth="yes"/>
      <point x="783" y="322"/>
      <point x="665" y="186"/>
      <point x="496" y="178" type="curve"/>
      <point x="505" y="13" type="line"/>
      <point x="757" y="-84"/>
      <point x="810" y="-229"/>
      <point x="810" y="-269" type="curve" smooth="yes"/>
      <point x="810" y="-313"/>
      <point x="778" y="-342"/>
    </contour>
  </outline>
</glyph>
<glyph name="hehDoachashmee-ar.init" format="2">
  <advance width="1076"/>
  <anchor x="456" y="793" name="above"/>
  <anchor x="77" y="552" name="alef"/>
  <anchor x="449" y="-144" name="below"/>
  <anchor x="537" y="812" name="diaA"/>
  <anchor x="507" y="-176" name="diaB"/>
  <outline>
    <contour>
      <point x="566" y="-113" type="curve" smooth="yes"/>
      <point x="860" y="-113"/>
      <point x="1011" y="105"/>
      <point x="1011" y="323" type="curve" smooth="yes"/>
      <point x="1011" y="538"/>
      <point x="862" y="753"/>
      <point x="555" y="753" type="curve" smooth="yes"/>
      <point x="501" y="753"/>
      <point x="454" y="750"/>
      <point x="415" y="744" type="curve"/>
      <point x="389" y="718"/>
      <point x="368" y="654"/>
      <point x="368" y="603" type="curve" smooth="yes"/>
      <point x="368" y="593"/>
      <point x="369" y="583"/>
      <point x="371" y="574" type="curve"/>
      <point x="419" y="585"/>
      <point x="484" y="590"/>
      <point x="532" y="590" type="curve" smooth="yes"/>
      <point x="728" y="590"/>
      <point x="838" y="455"/>
      <point x="838" y="320" type="curve" smooth="yes"/>
      <point x="838" y="139"/>
      <point x="703" y="58"/>
      <point x="565" y="58" type="curve" smooth="yes"/>
      <point x="422" y="58"/>
      <point x="277" y="145"/>
      <point x="277" y="300" type="curve" smooth="yes"/>
      <point x="277" y="373"/>
      <point x="324" y="411"/>
      <point x="370" y="411" type="curve" smooth="yes"/>
      <point x="413" y="411"/>
      <point x="456" y="376"/>
      <point x="456" y="302" type="curve" smooth="yes"/>
      <point x="456" y="235"/>
      <point x="407" y="164"/>
      <point x="301" y="164" type="curve"/>
      <point x="234" y="164"/>
      <point x="85" y="165"/>
      <point x="0" y="165" type="curve" smooth="yes"/>
      <point x="-8" y="165"/>
      <point x="-14" y="165"/>
      <point x="-20" y="165" type="curve"/>
      <point x="-20" y="-10" type="line"/>
      <point x="-14" y="-10"/>
      <point x="-4" y="-10"/>
      <point x="2" y="-10" type="curve" smooth="yes"/>
      <point x="107" y="-10"/>
      <point x="180" y="-11"/>
      <point x="241" y="-11" type="curve" smooth="yes"/>
      <point x="526" y="-11"/>
      <point x="632" y="159"/>
      <point x="632" y="312" type="curve" smooth="yes"/>
      <point x="632" y="455"/>
      <point x="535" y="578"/>
      <point x="365" y="578" type="curve" smooth="yes"/>
      <point x="193" y="578"/>
      <point x="99" y="441"/>
      <point x="99" y="288" type="curve" smooth="yes"/>
      <point x="99" y="99"/>
      <point x="245" y="-113"/>
    </contour>
  </outline>
</glyph>
<glyph name="hehDoachashmee-ar.medi.knottedHigh" format="2">
  <advance width="1132"/>
  <anchor x="77" y="552" name="alef"/>
  <anchor x="537" y="812" name="diaA"/>
  <anchor x="507" y="-176" name="diaB"/>
  <outline>
    <component base="hehDoachashmee-ar.init"/>
    <contour>
      <point x="820" y="-10" type="line"/>
      <point x="826" y="-10"/>
      <point x="1146" y="-10"/>
      <point x="1152" y="-10" type="curve"/>
      <point x="1150" y="165" type="line"/>
      <point x="1142" y="165"/>
      <point x="826" y="165"/>
      <point x="820" y="165" type="curve"/>
    </contour>
  </outline>
</glyph>
